<?xml version="1.0" encoding="iso-8859-1"?>
<!-- Generator: Adobe Illustrator 19.0.0, SVG Export Plug-In . SVG Version: 6.00 Build 0)  -->
<svg version="1.1" id="Layer_1" xmlns="http://www.w3.org/2000/svg" xmlns:xlink="http://www.w3.org/1999/xlink" x="0px" y="0px"
	 viewBox="0 0 511.999 511.999" style="enable-background:new 0 0 511.999 511.999;" xml:space="preserve">
<polygon style="fill:#CCCCCC;" points="302.308,470.316 209.679,470.316 217.435,438.009 224.927,406.841 287.072,406.841 
	294.552,438.009 "/>
<polygon style="fill:#999999;" points="294.552,438.009 217.435,438.009 224.927,406.841 254.389,374.747 287.072,406.841 "/>
<path style="fill:#CCCCCC;" d="M503.007,73.843v300.305c0,18.054-14.637,32.691-32.691,32.691H41.683
	c-18.054,0-32.691-14.637-32.691-32.691V73.843c0-18.054,14.637-32.691,32.691-32.691h428.634
	C488.37,41.152,503.007,55.789,503.007,73.843z"/>
<path style="fill:#E6E6E6;" d="M503.007,73.845V374.15c0,18.054-14.637,32.691-32.691,32.691H207.701L310.232,41.154h160.084
	C488.37,41.155,503.007,55.792,503.007,73.845z"/>
<rect x="8.992" y="85.999" style="fill:#9BD7F4;" width="494.015" height="275.994"/>
<polygon style="fill:#C8EDFC;" points="503.007,86.001 503.007,361.994 220.276,361.994 297.657,86.001 "/>
<path d="M470.316,32.427H41.683C18.7,32.427,0,51.127,0,74.111v40.433c0,4.965,4.024,8.991,8.991,8.991s8.991-4.025,8.991-8.991
	V74.111c0-13.069,10.632-23.701,23.701-23.701h428.634c13.069,0,23.701,10.633,23.701,23.701v267.002
	c0,4.965,4.024,8.991,8.991,8.991s8.991-4.025,8.991-8.991V74.111C512,51.127,493.3,32.427,470.316,32.427z"/>
<path d="M503.009,365.419c-4.967,0-8.991,4.025-8.991,8.991c0,13.069-10.632,23.701-23.701,23.701H41.683
	c-13.069,0.001-23.701-10.632-23.701-23.701V149.308c0-4.965-4.024-8.991-8.991-8.991S0,144.343,0,149.308V374.41
	c0,22.984,18.7,41.684,41.683,41.684h171.839l-10.923,45.496h-42.501c-4.967,0-8.991,4.025-8.991,8.991s4.024,8.991,8.991,8.991
	h49.59h92.623h49.591c4.967,0,8.991-4.025,8.991-8.991s-4.024-8.991-8.991-8.991h-42.503l-10.922-45.496h171.839
	c22.984,0,41.683-18.7,41.683-41.683C512,369.445,507.975,365.419,503.009,365.419z M290.906,461.589h-69.813l10.923-45.496h47.968
	L290.906,461.589z"/>
<path d="M39.35,371.245H472.65c4.967,0,8.991-4.025,8.991-8.991c0-4.965-4.024-8.991-8.991-8.991H39.35
	c-4.967,0-8.991,4.025-8.991,8.991C30.359,367.22,34.384,371.245,39.35,371.245z"/>
<path d="M481.641,86.267c0-4.965-4.024-8.991-8.991-8.991H39.35c-4.967,0-8.991,4.025-8.991,8.991c0,4.965,4.024,8.991,8.991,8.991
	H472.65C477.617,95.258,481.641,91.232,481.641,86.267z"/>
<path d="M118.619,129.376c0-10.416-8.474-18.89-18.89-18.89H85.874c-10.415,0-18.89,8.474-18.89,18.89v29.917
	c0,10.416,8.474,18.89,18.89,18.89H99.73c10.415,0,18.89-8.474,18.89-18.89v-29.917H118.619z M100.637,159.292
	c0,0.501-0.408,0.909-0.909,0.909H85.874c-0.501,0-0.909-0.408-0.909-0.909v-29.917c0-0.501,0.408-0.909,0.909-0.909H99.73
	c0.501,0,0.909,0.408,0.909,0.909v29.917H100.637z"/>
<path d="M205.955,178.183h13.855c10.415,0,18.89-8.474,18.89-18.89v-29.917c0-10.416-8.474-18.89-18.89-18.89h-13.855
	c-10.415,0-18.89,8.474-18.89,18.89v29.917C187.065,169.709,195.539,178.183,205.955,178.183z M205.047,129.376
	c0-0.501,0.408-0.909,0.909-0.909h13.855c0.501,0,0.909,0.408,0.909,0.909v29.917c0,0.501-0.408,0.909-0.909,0.909h-13.855
	c-0.501,0-0.909-0.408-0.909-0.909V129.376z"/>
<path d="M385.74,129.376c0-10.416-8.474-18.89-18.89-18.89h-13.855c-10.415,0-18.89,8.474-18.89,18.89v29.917
	c0,10.416,8.474,18.89,18.89,18.89h13.855c10.415,0,18.89-8.474,18.89-18.89V129.376z M367.759,159.292
	c0,0.501-0.408,0.909-0.909,0.909h-13.855c-0.501,0-0.909-0.408-0.909-0.909v-29.917c0-0.501,0.408-0.909,0.909-0.909h13.855
	c0.501,0,0.909,0.408,0.909,0.909V159.292z"/>
<path d="M280.234,178.183c10.415,0,18.89-8.474,18.89-18.89v-29.917c0-10.416-8.474-18.89-18.89-18.89h-13.855
	c-10.415,0-18.89,8.474-18.89,18.89v29.917c0,10.416,8.474,18.89,18.89,18.89H280.234z M265.47,159.292v-29.917
	c0-0.501,0.408-0.909,0.909-0.909h13.855c0.501,0,0.909,0.408,0.909,0.909v29.917c0,0.501-0.408,0.909-0.909,0.909h-13.855
	C265.877,160.201,265.47,159.794,265.47,159.292z"/>
<path d="M146.919,169.192v-49.716c0-4.965-4.024-8.991-8.991-8.991c-4.967,0-8.991,4.025-8.991,8.991v49.716
	c0,4.965,4.024,8.991,8.991,8.991C142.895,178.183,146.919,174.157,146.919,169.192z"/>
<path d="M178.277,119.476c0-4.965-4.024-8.991-8.991-8.991s-8.991,4.025-8.991,8.991v49.716c0,4.965,4.024,8.991,8.991,8.991
	s8.991-4.025,8.991-8.991V119.476z"/>
<path d="M405.813,178.183c4.967,0,8.991-4.025,8.991-8.991v-49.716c0-4.965-4.024-8.991-8.991-8.991s-8.991,4.025-8.991,8.991
	v49.716C396.822,174.157,400.847,178.183,405.813,178.183z"/>
<path d="M325.128,119.476c0-4.965-4.024-8.991-8.991-8.991s-8.991,4.025-8.991,8.991v49.716c0,4.965,4.024,8.991,8.991,8.991
	s8.991-4.025,8.991-8.991V119.476z"/>
<path d="M445.016,119.476c0-4.965-4.024-8.991-8.991-8.991s-8.991,4.025-8.991,8.991v49.716c0,4.965,4.024,8.991,8.991,8.991
	s8.991-4.025,8.991-8.991V119.476z"/>
<path d="M66.984,319.145c0,10.416,8.474,18.89,18.89,18.89H99.73c10.415,0,18.89-8.474,18.89-18.89v-29.917
	c0-10.416-8.474-18.89-18.89-18.89H85.874c-10.415,0-18.89,8.474-18.89,18.89C66.984,289.229,66.984,319.145,66.984,319.145z
	 M84.966,289.229c0-0.501,0.408-0.909,0.909-0.909H99.73c0.501,0,0.909,0.408,0.909,0.909v29.917c0,0.501-0.408,0.909-0.909,0.909
	H85.874c-0.501,0-0.909-0.408-0.909-0.909V289.229z"/>
<path d="M205.955,338.036h13.855c10.415,0,18.89-8.474,18.89-18.89v-29.917c0-10.416-8.474-18.89-18.89-18.89h-13.855
	c-10.415,0-18.89,8.474-18.89,18.89v29.917C187.065,329.562,195.539,338.036,205.955,338.036z M205.047,289.229
	c0-0.501,0.408-0.909,0.909-0.909h13.855c0.501,0,0.909,0.408,0.909,0.909v29.917c0,0.501-0.408,0.909-0.909,0.909h-13.855
	c-0.501,0-0.909-0.408-0.909-0.909V289.229z"/>
<path d="M352.996,338.036h13.855c10.415,0,18.89-8.474,18.89-18.89v-29.917c0-10.416-8.474-18.89-18.89-18.89h-13.855
	c-10.415,0-18.89,8.474-18.89,18.89v29.917C334.106,329.562,342.58,338.036,352.996,338.036z M352.087,289.229
	c0-0.501,0.408-0.909,0.909-0.909h13.855c0.501,0,0.909,0.408,0.909,0.909v29.917c0,0.501-0.408,0.909-0.909,0.909h-13.855
	c-0.501,0-0.909-0.408-0.909-0.909V289.229z"/>
<path d="M426.126,270.339H412.27c-10.415,0-18.89,8.474-18.89,18.89v29.917c0,10.416,8.474,18.89,18.89,18.89h13.855
	c10.415,0,18.89-8.474,18.89-18.89v-29.917C445.016,278.813,436.541,270.339,426.126,270.339z M427.035,319.145
	c0,0.501-0.408,0.909-0.909,0.909H412.27c-0.501,0-0.909-0.408-0.909-0.909v-29.917c0-0.501,0.408-0.909,0.909-0.909h13.855
	c0.501,0,0.909,0.408,0.909,0.909V319.145z"/>
<path d="M256.479,338.036c4.967,0,8.991-4.025,8.991-8.991v-49.716c0-4.965-4.024-8.991-8.991-8.991s-8.991,4.025-8.991,8.991
	v49.716C247.488,334.01,251.514,338.036,256.479,338.036z"/>
<path d="M277.317,279.329v49.716c0,4.965,4.024,8.991,8.991,8.991s8.991-4.025,8.991-8.991v-49.716c0-4.965-4.024-8.991-8.991-8.991
	S277.317,274.364,277.317,279.329z"/>
<path d="M137.929,270.339c-4.967,0-8.991,4.025-8.991,8.991v49.716c0,4.965,4.024,8.991,8.991,8.991
	c4.967,0,8.991-4.025,8.991-8.991v-49.716C146.919,274.364,142.894,270.339,137.929,270.339z"/>
<path d="M169.286,338.036c4.967,0,8.991-4.025,8.991-8.991v-49.716c0-4.965-4.024-8.991-8.991-8.991s-8.991,4.025-8.991,8.991
	v49.716C160.295,334.01,164.32,338.036,169.286,338.036z"/>
<path d="M316.137,338.036c4.967,0,8.991-4.025,8.991-8.991v-3.794c0-4.965-4.024-8.991-8.991-8.991s-8.991,4.025-8.991,8.991v3.794
	C307.146,334.01,311.171,338.036,316.137,338.036z"/>
<path d="M325.128,279.329c0-4.965-4.024-8.991-8.991-8.991s-8.991,4.025-8.991,8.991v21.946c0,4.965,4.024,8.991,8.991,8.991
	s8.991-4.025,8.991-8.991V279.329z"/>
<path d="M445.016,209.302c0-10.415-8.474-18.889-18.89-18.889H412.27c-10.415,0-18.89,8.474-18.89,18.889v29.918
	c0,10.415,8.474,18.889,18.89,18.889h13.855c10.415,0,18.89-8.474,18.89-18.889V209.302z M427.035,239.22
	c0,0.5-0.408,0.907-0.909,0.907H412.27c-0.501,0-0.909-0.408-0.909-0.907v-29.918c0-0.5,0.408-0.907,0.909-0.907h13.855
	c0.501,0,0.909,0.408,0.909,0.907V239.22z"/>
<path d="M324.935,239.22v-18.861c0-4.965-4.024-8.991-8.991-8.991c-4.967,0-8.991,4.025-8.991,8.991v18.86
	c0,0.5-0.408,0.907-0.909,0.907h-13.855c-0.501,0-0.909-0.408-0.909-0.907v-29.918c0-0.5,0.408-0.907,0.909-0.907h13.855
	c4.967,0,8.991-4.025,8.991-8.991s-4.024-8.991-8.991-8.991h-13.855c-10.415,0-18.89,8.474-18.89,18.889v29.918
	c0,10.415,8.474,18.889,18.89,18.889h13.855C316.46,258.109,324.935,249.635,324.935,239.22z"/>
<path d="M177.894,239.22v-29.918c0-10.415-8.474-18.889-18.89-18.889h-13.855c-10.415,0-18.89,8.474-18.89,18.889v29.918
	c0,10.415,8.474,18.889,18.89,18.889h13.855C169.42,258.109,177.894,249.635,177.894,239.22z M144.241,239.22v-29.918
	c0-0.5,0.408-0.907,0.909-0.907h13.855c0.501,0,0.909,0.408,0.909,0.907v29.918c0,0.5-0.408,0.907-0.909,0.907H145.15
	C144.649,240.127,144.241,239.719,144.241,239.22z"/>
<path d="M264.512,239.22v-29.918c0-10.415-8.474-18.889-18.89-18.889h-13.855c-10.415,0-18.89,8.474-18.89,18.889v29.918
	c0,10.415,8.474,18.889,18.89,18.889h13.855C256.038,258.109,264.512,249.635,264.512,239.22z M230.859,239.22v-29.918
	c0-0.5,0.408-0.907,0.909-0.907h13.855c0.501,0,0.909,0.408,0.909,0.907v29.918c0,0.5-0.408,0.907-0.909,0.907h-13.855
	C231.266,240.127,230.859,239.719,230.859,239.22z"/>
<path d="M374.073,258.109c4.967,0,8.991-4.025,8.991-8.991v-49.714c0-4.965-4.024-8.991-8.991-8.991
	c-4.967,0-8.991,4.025-8.991,8.991v49.714C365.082,254.083,369.106,258.109,374.073,258.109z"/>
<path d="M342.714,258.109c4.967,0,8.991-4.025,8.991-8.991v-49.714c0-4.965-4.024-8.991-8.991-8.991s-8.991,4.025-8.991,8.991
	v49.714C333.723,254.083,337.747,258.109,342.714,258.109z"/>
<path d="M106.186,258.109c4.967,0,8.991-4.025,8.991-8.991v-49.714c0-4.965-4.024-8.991-8.991-8.991
	c-4.967,0-8.991,4.025-8.991,8.991v49.714C97.195,254.083,101.221,258.109,106.186,258.109z"/>
<path d="M186.872,249.118c0,4.965,4.024,8.991,8.991,8.991c4.967,0,8.991-4.025,8.991-8.991v-49.714
	c0-4.965-4.024-8.991-8.991-8.991c-4.967,0-8.991,4.025-8.991,8.991V249.118z"/>
<path d="M84.966,249.118v-49.714c0-4.965-4.024-8.991-8.991-8.991c-4.967,0-8.991,4.025-8.991,8.991v49.714
	c0,4.965,4.024,8.991,8.991,8.991C80.941,258.109,84.966,254.083,84.966,249.118z"/>
<g>
</g>
<g>
</g>
<g>
</g>
<g>
</g>
<g>
</g>
<g>
</g>
<g>
</g>
<g>
</g>
<g>
</g>
<g>
</g>
<g>
</g>
<g>
</g>
<g>
</g>
<g>
</g>
<g>
</g>
</svg>
