<?xml version="1.0" encoding="iso-8859-1"?>
<!-- Generator: Adobe Illustrator 19.0.0, SVG Export Plug-In . SVG Version: 6.00 Build 0)  -->
<svg version="1.1" id="Layer_1" xmlns="http://www.w3.org/2000/svg" xmlns:xlink="http://www.w3.org/1999/xlink" x="0px" y="0px"
	 viewBox="0 0 512 512" style="enable-background:new 0 0 512 512;" xml:space="preserve">
<rect x="8.994" y="72.893" style="fill:#CCCCCC;" width="494.015" height="365.686"/>
<polygon style="fill:#E6E6E6;" points="503.009,72.893 503.009,438.579 196.399,438.579 298.93,72.893 "/>
<rect x="8.994" y="72.893" style="fill:#F9C573;" width="494.015" height="55.144"/>
<polygon style="fill:#FCD8A9;" points="503.009,72.893 503.009,128.037 283.466,128.037 298.93,72.893 "/>
<path d="M503.009,64.167H8.991C4.024,64.167,0,68.193,0,73.158v106.691c0,4.965,4.024,8.991,8.991,8.991s8.991-4.025,8.991-8.991
	v-97.7h476.037v347.702h-19.66c-4.967,0-8.991,4.026-8.991,8.991c0,4.965,4.024,8.991,8.991,8.991h28.651
	c4.967,0,8.991-4.025,8.991-8.991V73.158C512,68.193,507.975,64.167,503.009,64.167z"/>
<path d="M442.59,429.851H17.982V213.415c0-4.965-4.024-8.991-8.991-8.991S0,208.449,0,213.415v225.427
	c0,4.965,4.024,8.991,8.991,8.991H442.59c4.967,0,8.991-4.025,8.991-8.991C451.581,433.877,447.556,429.851,442.59,429.851z"/>
<path d="M36.925,137.293h438.152c4.967,0,8.991-4.025,8.991-8.991c0-4.965-4.024-8.991-8.991-8.991H36.925
	c-4.967,0-8.991,4.025-8.991,8.991C27.934,133.267,31.958,137.293,36.925,137.293z"/>
<circle cx="39.202" cy="101.932" r="8.991"/>
<circle cx="97.34" cy="101.932" r="8.991"/>
<circle cx="68.273" cy="101.932" r="8.991"/>
<path d="M224.914,161.867H108.04c-4.967,0-8.991,4.025-8.991,8.991s4.024,8.991,8.991,8.991h116.874
	c4.967,0,8.991-4.025,8.991-8.991S229.881,161.867,224.914,161.867z"/>
<path d="M224.914,193.547h-44.952c-4.967,0-8.991,4.025-8.991,8.991c0,4.965,4.024,8.991,8.991,8.991h44.952
	c4.967,0,8.991-4.025,8.991-8.991C233.905,197.573,229.881,193.547,224.914,193.547z"/>
<path d="M126.587,211.529h24.606c4.967,0,8.991-4.025,8.991-8.991c0-4.965-4.024-8.991-8.991-8.991h-24.606
	c-4.967,0-8.991,4.025-8.991,8.991C117.596,207.504,121.62,211.529,126.587,211.529z"/>
<path d="M224.914,225.227h-73.721c-4.967,0-8.991,4.025-8.991,8.991c0,4.965,4.024,8.991,8.991,8.991h73.721
	c4.967,0,8.991-4.025,8.991-8.991C233.905,229.253,229.881,225.227,224.914,225.227z"/>
<path d="M224.914,256.907h-26.971c-4.967,0-8.991,4.025-8.991,8.991c0,4.965,4.024,8.991,8.991,8.991h26.971
	c4.967,0,8.991-4.025,8.991-8.991C233.905,260.933,229.881,256.907,224.914,256.907z"/>
<path d="M111.223,265.898c0,4.965,4.024,8.991,8.991,8.991h50.571c4.967,0,8.991-4.025,8.991-8.991c0-4.965-4.024-8.991-8.991-8.991
	h-50.571C115.249,256.907,111.223,260.933,111.223,265.898z"/>
<path d="M224.914,288.587H70.279c-4.967,0-8.991,4.025-8.991,8.991s4.024,8.991,8.991,8.991h154.635
	c4.967,0,8.991-4.025,8.991-8.991S229.881,288.587,224.914,288.587z"/>
<path d="M224.914,320.267h-44.952c-4.967,0-8.991,4.025-8.991,8.991c0,4.965,4.024,8.991,8.991,8.991h44.952
	c4.967,0,8.991-4.026,8.991-8.991C233.905,324.293,229.881,320.267,224.914,320.267z"/>
<path d="M224.914,351.947h-86.308c-4.967,0-8.991,4.025-8.991,8.991c0,4.965,4.024,8.991,8.991,8.991h86.308
	c4.967,0,8.991-4.025,8.991-8.991C233.905,355.973,229.881,351.947,224.914,351.947z"/>
<path d="M224.914,383.626h-44.952c-4.967,0-8.991,4.025-8.991,8.991c0,4.965,4.024,8.991,8.991,8.991h44.952
	c4.967,0,8.991-4.025,8.991-8.991C233.905,387.652,229.881,383.626,224.914,383.626z"/>
<path d="M269.866,179.849h55.739c4.967,0,8.991-4.025,8.991-8.991s-4.024-8.991-8.991-8.991h-55.739
	c-4.967,0-8.991,4.025-8.991,8.991S264.9,179.849,269.866,179.849z"/>
<path d="M269.866,211.529h109.682c4.967,0,8.991-4.025,8.991-8.991c0-4.965-4.024-8.991-8.991-8.991H269.866
	c-4.967,0-8.991,4.025-8.991,8.991C260.875,207.504,264.9,211.529,269.866,211.529z"/>
<path d="M269.866,243.209h73.721c4.967,0,8.991-4.025,8.991-8.991c0-4.965-4.024-8.991-8.991-8.991h-73.721
	c-4.967,0-8.991,4.025-8.991,8.991C260.875,239.184,264.9,243.209,269.866,243.209z"/>
<path d="M386.74,265.898c0-4.965-4.024-8.991-8.991-8.991H269.866c-4.967,0-8.991,4.025-8.991,8.991
	c0,4.965,4.024,8.991,8.991,8.991h107.884C382.716,274.889,386.74,270.864,386.74,265.898z"/>
<path d="M269.866,288.587c-4.967,0-8.991,4.025-8.991,8.991s4.024,8.991,8.991,8.991h43.153c4.967,0,8.991-4.025,8.991-8.991
	s-4.024-8.991-8.991-8.991H269.866z"/>
<path d="M339.99,306.569h68.327c4.967,0,8.991-4.025,8.991-8.991s-4.024-8.991-8.991-8.991H339.99c-4.967,0-8.991,4.025-8.991,8.991
	S335.025,306.569,339.99,306.569z"/>
<path d="M469.452,329.258c0-4.965-4.024-8.991-8.991-8.991H269.866c-4.967,0-8.991,4.025-8.991,8.991
	c0,4.965,4.024,8.991,8.991,8.991h190.595C465.428,338.249,469.452,334.224,469.452,329.258z"/>
<path d="M402.922,360.938c0-4.965-4.024-8.991-8.991-8.991H269.866c-4.967,0-8.991,4.025-8.991,8.991
	c0,4.965,4.024,8.991,8.991,8.991h124.066C398.898,369.929,402.922,365.904,402.922,360.938z"/>
<path d="M269.866,383.626c-4.967,0-8.991,4.025-8.991,8.991c0,4.965,4.024,8.991,8.991,8.991h79.114
	c4.967,0,8.991-4.025,8.991-8.991c0-4.965-4.024-8.991-8.991-8.991H269.866z"/>
<g>
</g>
<g>
</g>
<g>
</g>
<g>
</g>
<g>
</g>
<g>
</g>
<g>
</g>
<g>
</g>
<g>
</g>
<g>
</g>
<g>
</g>
<g>
</g>
<g>
</g>
<g>
</g>
<g>
</g>
</svg>
