<?xml version="1.0" encoding="iso-8859-1"?>
<!-- Generator: Adobe Illustrator 19.0.0, SVG Export Plug-In . SVG Version: 6.00 Build 0)  -->
<svg version="1.1" id="Layer_1" xmlns="http://www.w3.org/2000/svg" xmlns:xlink="http://www.w3.org/1999/xlink" x="0px" y="0px"
	 viewBox="0 0 512 512" style="enable-background:new 0 0 512 512;" xml:space="preserve">
<rect x="8.994" y="72.893" style="fill:#CCCCCC;" width="494.015" height="365.686"/>
<polygon style="fill:#E6E6E6;" points="503.009,72.893 503.009,438.579 196.399,438.579 298.93,72.893 "/>
<rect x="8.994" y="72.893" style="fill:#F9C573;" width="494.015" height="55.144"/>
<polygon style="fill:#FCD8A9;" points="503.009,72.893 503.009,128.037 283.466,128.037 298.93,72.893 "/>
<path d="M503.009,64.167H8.991C4.025,64.167,0,68.193,0,73.158v106.691c0,4.965,4.025,8.991,8.991,8.991s8.991-4.025,8.991-8.991
	v-97.7h476.037v347.702h-19.66c-4.967,0-8.991,4.026-8.991,8.991c0,4.965,4.024,8.991,8.991,8.991h28.651
	c4.967,0,8.991-4.025,8.991-8.991V73.158C512,68.193,507.975,64.167,503.009,64.167z"/>
<path d="M442.59,429.851H17.982V213.415c0-4.965-4.025-8.991-8.991-8.991S0,208.449,0,213.415v225.427
	c0,4.965,4.025,8.991,8.991,8.991H442.59c4.967,0,8.991-4.025,8.991-8.991C451.581,433.877,447.556,429.851,442.59,429.851z"/>
<path d="M36.923,137.293h438.152c4.967,0,8.991-4.025,8.991-8.991c0-4.965-4.024-8.991-8.991-8.991H36.923
	c-4.965,0-8.991,4.025-8.991,8.991C27.933,133.267,31.958,137.293,36.923,137.293z"/>
<circle cx="39.202" cy="101.932" r="8.991"/>
<circle cx="97.34" cy="101.932" r="8.991"/>
<circle cx="68.273" cy="101.932" r="8.991"/>
<path d="M240.931,211.793c0-3.883-2.492-7.327-6.181-8.54c-3.687-1.213-7.738,0.077-10.045,3.201l-15.632,21.181l-15.632-21.181
	c-2.306-3.124-6.359-4.415-10.045-3.201c-3.689,1.213-6.181,4.657-6.181,8.54v55.144c0,4.965,4.025,8.991,8.991,8.991
	s8.991-4.025,8.991-8.991v-27.821l6.641,8.999c1.695,2.297,4.38,3.651,7.235,3.651c2.854,0,5.54-1.355,7.235-3.651l6.641-8.999
	v27.821c0,4.965,4.025,8.991,8.991,8.991s8.991-4.026,8.991-8.991V211.793z"/>
<path d="M117.974,226.377v25.974c0,12.999,10.577,23.576,23.576,23.576s23.576-10.577,23.576-23.576v-25.974
	c0-12.999-10.576-23.576-23.576-23.576S117.974,213.378,117.974,226.377z M147.144,226.377v25.974c0,3.084-2.509,5.595-5.595,5.595
	c-3.086,0-5.595-2.51-5.595-5.595v-25.974c0-3.084,2.51-5.595,5.595-5.595C144.633,220.782,147.144,223.293,147.144,226.377z"/>
<path d="M83.405,220.784c3.084,0,5.595,2.509,5.595,5.595c0,4.965,4.025,8.991,8.991,8.991s8.991-4.025,8.991-8.991
	c0-12.999-10.577-23.576-23.576-23.576s-23.576,10.576-23.576,23.576v25.974c0,12.999,10.576,23.576,23.576,23.576
	s23.576-10.577,23.576-23.576c0-4.965-4.025-8.991-8.991-8.991s-8.991,4.025-8.991,8.991c0,3.084-2.51,5.595-5.595,5.595
	c-3.084,0-5.595-2.51-5.595-5.595v-25.975C77.81,223.293,80.319,220.784,83.405,220.784z"/>
<circle cx="46.443" cy="263.335" r="8.991"/>
<path d="M355.725,211.793c0-4.965-4.024-8.991-8.991-8.991s-8.991,4.025-8.991,8.991v24.469l-18.805-29.323
	c-2.155-3.36-6.267-4.896-10.097-3.774c-3.83,1.123-6.463,4.637-6.463,8.628v55.144c0,4.965,4.024,8.991,8.991,8.991
	c4.967,0,8.991-4.026,8.991-8.991v-24.469l18.805,29.323c1.684,2.625,4.563,4.138,7.568,4.138c0.84,0,1.691-0.119,2.528-0.363
	c3.83-1.123,6.463-4.637,6.463-8.628v-55.145H355.725z"/>
<path d="M408.471,220.784c4.967,0,8.991-4.025,8.991-8.991s-4.024-8.991-8.991-8.991h-29.39c-4.967,0-8.991,4.025-8.991,8.991
	v55.144c0,4.965,4.024,8.991,8.991,8.991h29.39c4.967,0,8.991-4.025,8.991-8.991c0-4.965-4.024-8.991-8.991-8.991h-20.4v-9.59h8.412
	c4.967,0,8.991-4.025,8.991-8.991c0-4.965-4.024-8.991-8.991-8.991h-8.412v-9.59H408.471z"/>
<path d="M472.661,211.793c0-4.965-4.024-8.991-8.991-8.991h-29.39c-4.967,0-8.991,4.025-8.991,8.991s4.024,8.991,8.991,8.991h5.705
	v46.153c0,4.965,4.024,8.991,8.991,8.991s8.991-4.025,8.991-8.991v-46.153h5.704C468.637,220.784,472.661,216.758,472.661,211.793z"
	/>
<circle cx="284.997" cy="263.335" r="8.991"/>
<path d="M216.041,296.481c-13,0-23.576,10.576-23.576,23.576v25.974c0,12.999,10.577,23.576,23.576,23.576
	c13,0,23.576-10.576,23.576-23.576v-25.974C239.617,307.057,229.041,296.481,216.041,296.481z M221.635,346.032
	c0,3.084-2.509,5.595-5.595,5.595c-3.086,0-5.595-2.509-5.595-5.595v-25.974c0-3.084,2.51-5.595,5.595-5.595
	s5.595,2.509,5.595,5.595L221.635,346.032L221.635,346.032z"/>
<path d="M331.123,314.463c3.084,0,5.595,2.509,5.595,5.595c0,4.965,4.024,8.991,8.991,8.991s8.991-4.025,8.991-8.991
	c0-12.999-10.576-23.576-23.576-23.576c-12.999,0-23.575,10.576-23.575,23.576v25.974c0,12.999,10.576,23.576,23.575,23.576
	c1.952,0,3.848-0.239,5.664-0.688c0.55,4.439,4.335,7.874,8.921,7.874c4.967,0,8.991-4.025,8.991-8.991v-21.771
	c0-4.965-4.024-8.991-8.991-8.991c-4.967,0-8.991,4.025-8.991,8.991c0,3.084-2.51,5.595-5.595,5.595s-5.593-2.509-5.593-5.595
	v-25.974C325.53,316.972,328.039,314.463,331.123,314.463z"/>
<path d="M298.167,320.457c0-13.22-10.755-23.975-23.975-23.975h-14.406c-4.965,0-8.991,4.025-8.991,8.991v55.144
	c0,4.965,4.025,8.991,8.991,8.991c4.967,0,8.991-4.025,8.991-8.991v-16.183h0.303l12.37,20.782c1.681,2.826,4.669,4.394,7.733,4.394
	c1.564,0,3.149-0.408,4.59-1.266c4.268-2.54,5.668-8.058,3.126-12.325l-9.33-15.675C293.959,336.03,298.167,328.726,298.167,320.457
	z M268.777,314.463h5.415c3.305,0,5.994,2.689,5.994,5.994c0,3.305-2.689,5.994-5.994,5.994h-5.415V314.463z"/>
<circle cx="175.285" cy="358.218" r="8.991"/>
<g>
</g>
<g>
</g>
<g>
</g>
<g>
</g>
<g>
</g>
<g>
</g>
<g>
</g>
<g>
</g>
<g>
</g>
<g>
</g>
<g>
</g>
<g>
</g>
<g>
</g>
<g>
</g>
<g>
</g>
</svg>
