<?xml version="1.0" encoding="iso-8859-1"?>
<!-- Generator: Adobe Illustrator 19.0.0, SVG Export Plug-In . SVG Version: 6.00 Build 0)  -->
<svg version="1.1" id="Layer_1" xmlns="http://www.w3.org/2000/svg" xmlns:xlink="http://www.w3.org/1999/xlink" x="0px" y="0px"
	 viewBox="0 0 512 512" style="enable-background:new 0 0 512 512;" xml:space="preserve">
<rect x="8.994" y="72.894" style="fill:#CCCCCC;" width="494.015" height="365.686"/>
<polygon style="fill:#E6E6E6;" points="503.009,72.894 503.009,438.58 196.399,438.58 298.93,72.894 "/>
<rect x="8.994" y="72.894" style="fill:#F9C573;" width="494.015" height="55.144"/>
<polygon style="fill:#FCD8A9;" points="503.009,72.894 503.009,128.038 283.466,128.038 298.93,72.894 "/>
<rect x="72.166" y="225.898" style="fill:#FFFFFF;" width="268.142" height="172.995"/>
<rect x="134.874" y="169.675" style="fill:#9BD7F4;" width="268.142" height="172.995"/>
<circle style="fill:#F94B54;" cx="337.527" cy="216.499" r="20.379"/>
<g>
	<polygon style="fill:#F9C573;" points="403.01,308.313 403.01,342.67 323.148,342.67 288.311,306.443 336.49,264.45 	"/>
	<polygon style="fill:#F9C573;" points="288.311,306.443 323.148,342.67 134.88,342.67 134.88,319.018 221.42,236.878 	"/>
</g>
<path d="M503.009,64.167H8.991C4.025,64.167,0,68.193,0,73.158v106.691c0,4.965,4.025,8.991,8.991,8.991s8.991-4.025,8.991-8.991
	v-97.7h476.037v347.702h-19.661c-4.965,0-8.991,4.026-8.991,8.991c0,4.965,4.026,8.991,8.991,8.991h28.652
	c4.965,0,8.991-4.025,8.991-8.991V73.158C512,68.193,507.975,64.167,503.009,64.167z"/>
<path d="M442.59,429.852H17.982V213.415c0-4.965-4.025-8.991-8.991-8.991S0,208.449,0,213.415v225.427
	c0,4.965,4.025,8.991,8.991,8.991H442.59c4.965,0,8.991-4.025,8.991-8.991C451.581,433.877,447.555,429.852,442.59,429.852z"/>
<path d="M36.925,137.293h438.152c4.965,0,8.991-4.025,8.991-8.991c0-4.965-4.025-8.991-8.991-8.991H36.925
	c-4.965,0-8.991,4.025-8.991,8.991C27.934,133.267,31.959,137.293,36.925,137.293z"/>
<circle cx="39.202" cy="101.932" r="8.991"/>
<circle cx="97.34" cy="101.932" r="8.991"/>
<circle cx="68.273" cy="101.932" r="8.991"/>
<path d="M349.301,351.925h53.709c4.965,0,8.991-4.025,8.991-8.991V169.939c0-4.965-4.025-8.991-8.991-8.991H225.636
	c-4.965,0-8.991,4.025-8.991,8.991s4.025,8.991,8.991,8.991h168.383v112.95l-52.579-34.671c-3.372-2.224-7.814-1.925-10.857,0.728
	l-26.702,23.273c-3.744,3.263-4.133,8.942-0.87,12.685s8.942,4.133,12.685,0.87l21.55-18.782l56.773,37.436v20.525h-67.044
	L227.9,230.912c-3.426-3.563-9.085-3.692-12.67-0.29l-71.359,67.732V178.93h54.593c4.965,0,8.991-4.025,8.991-8.991
	s-4.025-8.991-8.991-8.991H134.88c-4.965,0-8.991,4.025-8.991,8.991v47.232h-5.997c-4.965,0-8.991,4.025-8.991,8.991
	s4.025,8.991,8.991,8.991h5.997v107.782c0,4.965,4.025,8.991,8.991,8.991h196.44v5.994c0,4.965,4.025,8.991,8.991,8.991
	c4.965,0,8.991-4.025,8.991-8.991L349.301,351.925L349.301,351.925z M143.871,323.145l77.26-73.331l80.898,84.13H143.871V323.145z"
	/>
<path d="M340.31,375.182c-4.965,0-8.991,4.025-8.991,8.991v5.994h-5.994c-4.965,0-8.991,4.025-8.991,8.991
	c0,4.965,4.025,8.991,8.991,8.991h14.985c4.965,0,8.991-4.025,8.991-8.991v-14.985C349.301,379.208,345.276,375.182,340.31,375.182z
	"/>
<path d="M190.319,390.166c-4.965,0-8.991,4.025-8.991,8.991s4.025,8.991,8.991,8.991h31.842c4.965,0,8.991-4.025,8.991-8.991
	s-4.025-8.991-8.991-8.991H190.319z"/>
<path d="M257.822,390.166c-4.965,0-8.991,4.025-8.991,8.991s4.025,8.991,8.991,8.991h31.842c4.965,0,8.991-4.025,8.991-8.991
	s-4.025-8.991-8.991-8.991H257.822z"/>
<path d="M122.816,390.166c-4.965,0-8.991,4.025-8.991,8.991s4.025,8.991,8.991,8.991h31.842c4.965,0,8.991-4.025,8.991-8.991
	s-4.025-8.991-8.991-8.991H122.816z"/>
<path d="M63.178,399.156c0,4.965,4.025,8.991,8.991,8.991h14.985c4.965,0,8.991-4.025,8.991-8.991s-4.025-8.991-8.991-8.991h-5.994
	v-5.994c0-4.965-4.025-8.991-8.991-8.991c-4.965,0-8.991,4.026-8.991,8.991C63.178,384.172,63.178,399.156,63.178,399.156z"/>
<path d="M63.178,354.286c0,4.965,4.025,8.991,8.991,8.991s8.991-4.025,8.991-8.991v-26.684c0-4.965-4.025-8.991-8.991-8.991
	c-4.965,0-8.991,4.025-8.991,8.991C63.178,327.603,63.178,354.286,63.178,354.286z"/>
<path d="M72.169,306.707c4.965,0,8.991-4.025,8.991-8.991v-26.684c0-4.965-4.025-8.991-8.991-8.991
	c-4.965,0-8.991,4.026-8.991,8.991v26.684C63.178,302.681,67.203,306.707,72.169,306.707z"/>
<path d="M87.153,217.171H72.169c-4.965,0-8.991,4.025-8.991,8.991v14.985c0,4.965,4.025,8.991,8.991,8.991
	c4.965,0,8.991-4.025,8.991-8.991v-5.994h5.994c4.965,0,8.991-4.025,8.991-8.991S92.119,217.171,87.153,217.171z"/>
<path d="M366.891,216.763c0-16.194-13.176-29.37-29.37-29.37s-29.37,13.176-29.37,29.37s13.176,29.37,29.37,29.37
	S366.891,232.958,366.891,216.763z M326.132,216.763c0-6.279,5.109-11.388,11.388-11.388c6.279,0,11.388,5.109,11.388,11.388
	c0,6.279-5.109,11.388-11.388,11.388C331.242,228.151,326.132,223.043,326.132,216.763z"/>
<g>
</g>
<g>
</g>
<g>
</g>
<g>
</g>
<g>
</g>
<g>
</g>
<g>
</g>
<g>
</g>
<g>
</g>
<g>
</g>
<g>
</g>
<g>
</g>
<g>
</g>
<g>
</g>
<g>
</g>
</svg>
