<?xml version="1.0" encoding="iso-8859-1"?>
<!-- Generator: Adobe Illustrator 19.0.0, SVG Export Plug-In . SVG Version: 6.00 Build 0)  -->
<svg version="1.1" id="Layer_1" xmlns="http://www.w3.org/2000/svg" xmlns:xlink="http://www.w3.org/1999/xlink" x="0px" y="0px"
	 viewBox="0 0 512 512" style="enable-background:new 0 0 512 512;" xml:space="preserve">
<rect x="8.994" y="72.894" style="fill:#CCCCCC;" width="494.015" height="365.686"/>
<polygon style="fill:#E6E6E6;" points="503.009,72.894 503.009,438.58 196.399,438.58 298.93,72.894 "/>
<rect x="8.994" y="72.894" style="fill:#F9C573;" width="494.015" height="55.144"/>
<polygon style="fill:#FCD8A9;" points="503.009,72.894 503.009,128.038 283.466,128.038 298.93,72.894 "/>
<path d="M503.009,64.167H8.991C4.025,64.167,0,68.193,0,73.158v106.691c0,4.965,4.025,8.991,8.991,8.991s8.991-4.025,8.991-8.991
	v-97.7h476.037v347.702h-19.661c-4.965,0-8.991,4.026-8.991,8.991c0,4.965,4.026,8.991,8.991,8.991h28.652
	c4.965,0,8.991-4.025,8.991-8.991V73.158C512,68.193,507.975,64.167,503.009,64.167z"/>
<path d="M442.59,429.852H17.982V213.415c0-4.965-4.025-8.991-8.991-8.991S0,208.449,0,213.415v225.427
	c0,4.965,4.025,8.991,8.991,8.991H442.59c4.965,0,8.991-4.025,8.991-8.991C451.581,433.877,447.555,429.852,442.59,429.852z"/>
<path d="M36.925,137.293h438.152c4.965,0,8.991-4.025,8.991-8.991c0-4.965-4.025-8.991-8.991-8.991H36.925
	c-4.965,0-8.991,4.025-8.991,8.991C27.934,133.267,31.959,137.293,36.925,137.293z"/>
<circle cx="39.202" cy="101.932" r="8.991"/>
<circle cx="97.34" cy="101.932" r="8.991"/>
<circle cx="68.273" cy="101.932" r="8.991"/>
<path d="M122.608,165.195c-1.02-3.975-4.603-6.756-8.709-6.756s-7.689,2.78-8.709,6.756l-35.067,136.66
	c-1.234,4.809,1.664,9.71,6.473,10.944c4.813,1.237,9.709-1.664,10.944-6.473l5.537-21.579h41.642l5.537,21.579
	c1.042,4.06,4.696,6.759,8.702,6.759c0.74,0,1.491-0.092,2.242-0.284c4.809-1.234,7.708-6.134,6.473-10.944L122.608,165.195z
	 M97.693,266.764l16.207-63.161l16.207,63.161H97.693z"/>
<path d="M450.191,167.269h-41.948c-4.965,0-8.991,4.025-8.991,8.991s4.025,8.991,8.991,8.991h41.948
	c4.965,0,8.991-4.025,8.991-8.991S455.158,167.269,450.191,167.269z"/>
<path d="M189.471,167.269c-4.965,0-8.991,4.025-8.991,8.991s4.025,8.991,8.991,8.991h183.61c4.965,0,8.991-4.025,8.991-8.991
	s-4.025-8.991-8.991-8.991H189.471z"/>
<path d="M450.191,252.139H296.36c-4.965,0-8.991,4.025-8.991,8.991c0,4.965,4.025,8.991,8.991,8.991h153.833
	c4.965,0,8.991-4.025,8.991-8.991C459.183,256.164,455.158,252.139,450.191,252.139z"/>
<path d="M189.471,270.12h78.117c4.965,0,8.991-4.025,8.991-8.991c0-4.965-4.025-8.991-8.991-8.991h-78.117
	c-4.965,0-8.991,4.025-8.991,8.991C180.48,266.095,184.506,270.12,189.471,270.12z"/>
<path d="M450.191,337.007h-69.919c-4.965,0-8.991,4.025-8.991,8.991c0,4.965,4.025,8.991,8.991,8.991h69.919
	c4.965,0,8.991-4.025,8.991-8.991C459.182,341.033,455.158,337.007,450.191,337.007z"/>
<path d="M358.895,345.998c0-4.965-4.025-8.991-8.991-8.991H61.809c-4.965,0-8.991,4.025-8.991,8.991
	c0,4.965,4.025,8.991,8.991,8.991h288.095C354.87,354.989,358.895,350.963,358.895,345.998z"/>
<path d="M450.191,209.705h-260.72c-4.965,0-8.991,4.025-8.991,8.991s4.025,8.991,8.991,8.991h260.72
	c4.965,0,8.991-4.025,8.991-8.991S455.158,209.705,450.191,209.705z"/>
<path d="M450.191,294.573h-260.72c-4.965,0-8.991,4.025-8.991,8.991s4.025,8.991,8.991,8.991h260.72
	c4.965,0,8.991-4.025,8.991-8.991S455.158,294.573,450.191,294.573z"/>
<path d="M450.191,379.441H224.832c-4.965,0-8.991,4.025-8.991,8.991c0,4.965,4.025,8.991,8.991,8.991h225.36
	c4.965,0,8.991-4.026,8.991-8.991C459.183,383.467,455.158,379.441,450.191,379.441z"/>
<path d="M61.809,379.441c-4.965,0-8.991,4.025-8.991,8.991c0,4.965,4.025,8.991,8.991,8.991h134.654
	c4.965,0,8.991-4.026,8.991-8.991c0-4.965-4.025-8.991-8.991-8.991H61.809z"/>
<g>
</g>
<g>
</g>
<g>
</g>
<g>
</g>
<g>
</g>
<g>
</g>
<g>
</g>
<g>
</g>
<g>
</g>
<g>
</g>
<g>
</g>
<g>
</g>
<g>
</g>
<g>
</g>
<g>
</g>
</svg>
