<?xml version="1.0" encoding="iso-8859-1"?>
<!-- Generator: Adobe Illustrator 19.0.0, SVG Export Plug-In . SVG Version: 6.00 Build 0)  -->
<svg version="1.1" id="Layer_1" xmlns="http://www.w3.org/2000/svg" xmlns:xlink="http://www.w3.org/1999/xlink" x="0px" y="0px"
	 viewBox="0 0 512 512" style="enable-background:new 0 0 512 512;" xml:space="preserve">
<rect x="8.994" y="72.893" style="fill:#CCCCCC;" width="494.015" height="365.686"/>
<polygon style="fill:#E6E6E6;" points="503.009,72.893 503.009,438.579 196.399,438.579 298.93,72.893 "/>
<rect x="8.994" y="72.893" style="fill:#F9C573;" width="494.015" height="55.144"/>
<polygon style="fill:#FCD8A9;" points="503.009,72.893 503.009,128.037 283.466,128.037 298.93,72.893 "/>
<g>
	<rect x="86.983" y="220.06" style="fill:#9BD7F4;" width="338.054" height="106.691"/>
	<polygon style="fill:#9BD7F4;" points="425.031,220.058 425.031,326.749 227.761,326.749 257.671,220.058 	"/>
</g>
<rect x="318.334" y="220.06" style="fill:#F98791;" width="106.691" height="106.691"/>
<path d="M503.009,64.167H8.991C4.025,64.167,0,68.193,0,73.158v106.691c0,4.965,4.025,8.991,8.991,8.991s8.991-4.025,8.991-8.991
	v-97.7h476.037v347.702h-19.66c-4.967,0-8.991,4.026-8.991,8.991c0,4.965,4.024,8.991,8.991,8.991h28.651
	c4.967,0,8.991-4.025,8.991-8.991V73.158C512,68.193,507.975,64.167,503.009,64.167z"/>
<path d="M442.59,429.851H17.982V213.415c0-4.965-4.025-8.991-8.991-8.991S0,208.449,0,213.415v225.427
	c0,4.965,4.025,8.991,8.991,8.991H442.59c4.967,0,8.991-4.025,8.991-8.991C451.581,433.877,447.556,429.851,442.59,429.851z"/>
<path d="M36.923,137.293h438.152c4.967,0,8.991-4.025,8.991-8.991c0-4.965-4.024-8.991-8.991-8.991H36.923
	c-4.965,0-8.991,4.025-8.991,8.991C27.933,133.267,31.958,137.293,36.923,137.293z"/>
<circle cx="39.202" cy="101.932" r="8.991"/>
<circle cx="97.34" cy="101.932" r="8.991"/>
<circle cx="68.273" cy="101.932" r="8.991"/>
<path d="M270.389,220.327c0-4.965-4.024-8.991-8.991-8.991H86.972c-4.965,0-8.991,4.025-8.991,8.991v106.691
	c0,4.965,4.025,8.991,8.991,8.991h338.054c4.967,0,8.991-4.025,8.991-8.991V220.327c0-4.965-4.024-8.991-8.991-8.991H290.769
	c-4.967,0-8.991,4.025-8.991,8.991s4.024,8.991,8.991,8.991h18.577v88.709H95.964v-88.709h165.434
	C266.364,229.318,270.389,225.292,270.389,220.327z M327.328,229.318h88.709v88.709h-88.709V229.318z"/>
<path d="M394.374,282.446c5.656-11.042,3.88-24.94-5.353-34.173h-0.001c-11.451-11.449-30.083-11.451-41.535,0
	c-11.451,11.452-11.451,30.084,0,41.535c5.725,5.725,13.246,8.588,20.768,8.588c4.607,0,9.21-1.086,13.406-3.236l9.904,9.904
	c1.756,1.755,4.058,2.634,6.358,2.634s4.602-0.878,6.358-2.634c3.511-3.511,3.511-9.204,0-12.714L394.374,282.446z M360.2,277.094
	c-4.44-4.44-4.44-11.665,0-16.107c2.22-2.22,5.136-3.33,8.052-3.33s5.833,1.11,8.055,3.33c4.438,4.439,4.439,11.663,0.002,16.102
	c-0.001,0.001-0.002,0.002-0.004,0.004c-0.001,0.001-0.001,0.001-0.002,0.002C371.862,281.531,364.64,281.533,360.2,277.094z"/>
<path d="M114.549,291.055c-4.965,0-8.991,4.026-8.991,8.991c0,4.965,4.025,8.991,8.991,8.991h44.355
	c4.965,0,8.991-4.025,8.991-8.991c0-4.965-4.025-8.991-8.991-8.991H114.549z"/>
<g>
</g>
<g>
</g>
<g>
</g>
<g>
</g>
<g>
</g>
<g>
</g>
<g>
</g>
<g>
</g>
<g>
</g>
<g>
</g>
<g>
</g>
<g>
</g>
<g>
</g>
<g>
</g>
<g>
</g>
</svg>
