<?xml version="1.0" encoding="iso-8859-1"?>
<!-- Generator: Adobe Illustrator 19.0.0, SVG Export Plug-In . SVG Version: 6.00 Build 0)  -->
<svg version="1.1" id="Layer_1" xmlns="http://www.w3.org/2000/svg" xmlns:xlink="http://www.w3.org/1999/xlink" x="0px" y="0px"
	 viewBox="0 0 512 512" style="enable-background:new 0 0 512 512;" xml:space="preserve">
<rect x="8.994" y="72.894" style="fill:#CCCCCC;" width="494.015" height="365.686"/>
<polygon style="fill:#E6E6E6;" points="503.009,72.894 503.009,438.58 196.399,438.58 298.93,72.894 "/>
<rect x="8.994" y="72.894" style="fill:#F9C573;" width="494.015" height="55.144"/>
<polygon style="fill:#FCD8A9;" points="503.009,72.894 503.009,128.038 283.466,128.038 298.93,72.894 "/>
<path style="fill:#9BD7F4;" d="M196.808,438.58V331.633c26.087-11.175,44.365-37.074,44.365-67.25
	c0-29.766-17.792-55.358-43.312-66.774v58.612l-29.823,17.648l-29.823-17.648v-58.612c-25.52,11.416-43.312,37.01-43.312,66.774
	c0,30.176,18.279,56.076,44.365,67.25V438.58"/>
<path style="fill:#F98791;" d="M323.572,209.528c0,26.315-21.333,47.649-47.649,47.649v27.87h154.635v-75.519H323.572z"/>
<polyline style="fill:#FCD8A9;" points="335.259,438.578 335.259,285.047 387.403,285.047 387.403,438.578 "/>
<path d="M503.009,64.167H8.991C4.025,64.167,0,68.193,0,73.158v106.691c0,4.965,4.025,8.991,8.991,8.991s8.991-4.025,8.991-8.991
	v-97.7h476.037v347.702h-19.661c-4.965,0-8.991,4.026-8.991,8.991c0,4.965,4.026,8.991,8.991,8.991h28.652
	c4.965,0,8.991-4.025,8.991-8.991V73.158C512,68.193,507.975,64.167,503.009,64.167z"/>
<path d="M36.923,137.293h438.152c4.965,0,8.991-4.025,8.991-8.991c0-4.965-4.025-8.991-8.991-8.991H36.923
	c-4.965,0-8.991,4.025-8.991,8.991C27.933,133.267,31.958,137.293,36.923,137.293z"/>
<circle cx="39.202" cy="101.932" r="8.991"/>
<circle cx="97.34" cy="101.932" r="8.991"/>
<circle cx="68.273" cy="101.932" r="8.991"/>
<path d="M193.268,323.632c-3.306,1.417-5.451,4.668-5.451,8.264v75.683c0,4.965,4.025,8.991,8.991,8.991
	c4.965,0,8.991-4.025,8.991-8.991v-69.993c27.138-14.041,44.365-42.052,44.365-72.942c0-32.333-19.088-61.766-48.631-74.982
	c-2.781-1.243-6.003-0.995-8.562,0.663c-2.557,1.657-4.101,4.497-4.101,7.544v53.486l-20.832,12.328l-20.831-12.328V197.87
	c0-3.047-1.544-5.887-4.101-7.544c-2.557-1.658-5.782-1.907-8.562-0.663c-29.543,13.215-48.632,42.648-48.632,74.982
	c0,30.89,17.228,58.899,44.365,72.942v69.993c0,4.965,4.025,8.991,8.991,8.991c4.965,0,8.991-4.025,8.991-8.991v-75.683
	c0-3.598-2.145-6.849-5.451-8.264c-23.64-10.126-38.915-33.279-38.915-58.986c0-20.269,9.605-39.078,25.33-51.052v42.889
	c0,3.178,1.677,6.119,4.411,7.738l29.822,17.648c2.824,1.671,6.334,1.671,9.159,0l29.823-17.648c2.734-1.618,4.411-4.56,4.411-7.738
	v-42.889c15.723,11.975,25.33,30.785,25.33,51.052C232.182,290.353,216.907,313.506,193.268,323.632z"/>
<path d="M387.403,416.572c4.965,0,8.991-4.025,8.991-8.991V294.303h34.164c4.965,0,8.991-4.025,8.991-8.991v-75.519
	c0-4.965-4.026-8.991-8.991-8.991h-15.117c-4.965,0-8.991,4.025-8.991,8.991s4.025,8.991,8.991,8.991h6.126v57.538H284.914V265.72
	c24.044-3.852,43.084-22.892,46.936-46.936h53.621c4.965,0,8.991-4.025,8.991-8.991s-4.025-8.991-8.991-8.991h-61.9
	c-4.965,0-8.991,4.025-8.991,8.991c0,21.317-17.341,38.658-38.658,38.658c-4.965,0-8.991,4.025-8.991,8.991v27.87
	c0,4.965,4.025,8.991,8.991,8.991h50.346v113.278c0,4.965,4.025,8.991,8.991,8.991s8.991-4.025,8.991-8.991V294.303h34.163v113.278
	C378.412,412.547,382.438,416.572,387.403,416.572z"/>
<path d="M442.59,429.852H17.982V213.415c0-4.965-4.025-8.991-8.991-8.991S0,208.449,0,213.415v225.427
	c0,4.965,4.025,8.991,8.991,8.991H442.59c4.965,0,8.991-4.025,8.991-8.991C451.581,433.877,447.555,429.852,442.59,429.852z"/>
<g>
</g>
<g>
</g>
<g>
</g>
<g>
</g>
<g>
</g>
<g>
</g>
<g>
</g>
<g>
</g>
<g>
</g>
<g>
</g>
<g>
</g>
<g>
</g>
<g>
</g>
<g>
</g>
<g>
</g>
</svg>
