<?xml version="1.0" encoding="iso-8859-1"?>
<!-- Generator: Adobe Illustrator 19.0.0, SVG Export Plug-In . SVG Version: 6.00 Build 0)  -->
<svg version="1.1" id="Layer_1" xmlns="http://www.w3.org/2000/svg" xmlns:xlink="http://www.w3.org/1999/xlink" x="0px" y="0px"
	 viewBox="0 0 512 512" style="enable-background:new 0 0 512 512;" xml:space="preserve">
<rect x="8.994" y="72.893" style="fill:#CCCCCC;" width="494.015" height="365.686"/>
<polygon style="fill:#E6E6E6;" points="503.009,72.893 503.009,438.579 196.399,438.579 298.93,72.893 "/>
<rect x="8.994" y="72.893" style="fill:#F9C573;" width="494.015" height="55.144"/>
<polygon style="fill:#FCD8A9;" points="503.009,72.893 503.009,128.037 283.466,128.037 298.93,72.893 "/>
<rect x="47.714" y="165.204" style="fill:#F94B54;" width="98.695" height="237.022"/>
<g>
	<rect x="361.67" y="165.204" style="fill:#F2F2F2;" width="98.695" height="237.022"/>
	<rect x="182.358" y="199.74" style="fill:#F2F2F2;" width="143.361" height="167.948"/>
</g>
<polygon style="fill:#FFFFFF;" points="263.365,199.739 325.725,199.739 325.725,367.687 216.277,367.687 "/>
<rect x="361.67" y="165.204" style="fill:#C8EDFC;" width="98.695" height="237.022"/>
<polygon style="fill:#F94B54;" points="284.671,283.71 223.414,319.076 223.414,248.342 "/>
<path d="M503.009,64.167H8.991C4.025,64.167,0,68.193,0,73.158v106.691c0,4.965,4.025,8.991,8.991,8.991s8.991-4.025,8.991-8.991
	v-97.7h476.037v347.702h-19.66c-4.967,0-8.991,4.026-8.991,8.991c0,4.965,4.024,8.991,8.991,8.991h28.651
	c4.967,0,8.991-4.025,8.991-8.991V73.158C512,68.193,507.975,64.167,503.009,64.167z"/>
<path d="M442.59,429.851H17.982V213.415c0-4.965-4.025-8.991-8.991-8.991S0,208.449,0,213.415v225.427
	c0,4.965,4.025,8.991,8.991,8.991H442.59c4.967,0,8.991-4.025,8.991-8.991C451.581,433.877,447.556,429.851,442.59,429.851z"/>
<path d="M36.923,137.293h438.152c4.967,0,8.991-4.025,8.991-8.991c0-4.965-4.024-8.991-8.991-8.991H36.923
	c-4.965,0-8.991,4.025-8.991,8.991C27.933,133.267,31.958,137.293,36.923,137.293z"/>
<circle cx="39.202" cy="101.932" r="8.991"/>
<circle cx="97.34" cy="101.932" r="8.991"/>
<circle cx="68.273" cy="101.932" r="8.991"/>
<path d="M47.712,156.473c-4.965,0-8.991,4.025-8.991,8.991v237.02c0,4.965,4.025,8.991,8.991,8.991h98.701
	c4.965,0,8.991-4.025,8.991-8.991v-237.02c0-4.965-4.025-8.991-8.991-8.991H47.712z M137.424,393.493H56.703V174.455h80.719v219.039
	H137.424z"/>
<path d="M469.362,402.484V225.402c0-4.965-4.024-8.991-8.991-8.991s-8.991,4.025-8.991,8.991v168.091h-80.719V174.455h80.719v20.979
	c0,4.965,4.024,8.991,8.991,8.991s8.991-4.025,8.991-8.991v-29.969c0-4.965-4.024-8.991-8.991-8.991H361.67
	c-4.967,0-8.991,4.025-8.991,8.991v237.02c0,4.965,4.024,8.991,8.991,8.991h98.701C465.338,411.475,469.362,407.45,469.362,402.484z
	"/>
<path d="M334.716,199.999c0-4.965-4.024-8.991-8.991-8.991H182.36c-4.965,0-8.991,4.025-8.991,8.991V367.95
	c0,4.965,4.025,8.991,8.991,8.991s8.991-4.025,8.991-8.991V208.99h125.383v149.969H215.821c-4.965,0-8.991,4.025-8.991,8.991
	c0,4.965,4.025,8.991,8.991,8.991h109.904c4.967,0,8.991-4.025,8.991-8.991V199.999z"/>
<path d="M218.919,327.127c1.391,0.803,2.943,1.205,4.495,1.205s3.105-0.402,4.495-1.205l61.256-35.366
	c2.781-1.606,4.495-4.573,4.495-7.786s-1.714-6.18-4.495-7.786l-61.256-35.366c-2.781-1.606-6.21-1.606-8.991,0
	s-4.495,4.573-4.495,7.786v70.734C214.424,322.554,216.137,325.521,218.919,327.127z M232.405,264.179l34.284,19.794l-34.284,19.794
	V264.179z"/>
<path d="M325.725,393.493H182.36c-4.965,0-8.991,4.025-8.991,8.991c0,4.965,4.025,8.991,8.991,8.991h143.365
	c4.967,0,8.991-4.025,8.991-8.991C334.716,397.519,330.69,393.493,325.725,393.493z"/>
<path d="M325.725,156.473H182.36c-4.965,0-8.991,4.025-8.991,8.991s4.025,8.991,8.991,8.991h143.365
	c4.967,0,8.991-4.025,8.991-8.991S330.69,156.473,325.725,156.473z"/>
<g>
</g>
<g>
</g>
<g>
</g>
<g>
</g>
<g>
</g>
<g>
</g>
<g>
</g>
<g>
</g>
<g>
</g>
<g>
</g>
<g>
</g>
<g>
</g>
<g>
</g>
<g>
</g>
<g>
</g>
</svg>
