<?xml version="1.0" encoding="iso-8859-1"?>
<!-- Generator: Adobe Illustrator 19.0.0, SVG Export Plug-In . SVG Version: 6.00 Build 0)  -->
<svg version="1.1" id="Layer_1" xmlns="http://www.w3.org/2000/svg" xmlns:xlink="http://www.w3.org/1999/xlink" x="0px" y="0px"
	 viewBox="0 0 512 512" style="enable-background:new 0 0 512 512;" xml:space="preserve">
<rect x="8.997" y="72.898" style="fill:#CCCCCC;" width="494.015" height="365.686"/>
<polygon style="fill:#E6E6E6;" points="503.012,72.898 503.012,438.584 196.401,438.584 298.932,72.898 "/>
<rect x="8.997" y="72.898" style="fill:#F9C573;" width="494.015" height="55.144"/>
<polygon style="fill:#FCD8A9;" points="503.012,72.898 503.012,128.042 283.468,128.042 298.932,72.898 "/>
<path d="M503.009,64.167H8.991C4.025,64.167,0,68.193,0,73.158v106.691c0,4.965,4.025,8.991,8.991,8.991s8.991-4.025,8.991-8.991
	v-97.7h476.037v347.702h-19.661c-4.965,0-8.991,4.026-8.991,8.991c0,4.965,4.026,8.991,8.991,8.991h28.652
	c4.965,0,8.991-4.025,8.991-8.991V73.158C512,68.193,507.975,64.167,503.009,64.167z"/>
<path d="M442.59,429.852H17.982V213.415c0-4.965-4.025-8.991-8.991-8.991S0,208.449,0,213.415v225.427
	c0,4.965,4.025,8.991,8.991,8.991H442.59c4.965,0,8.991-4.025,8.991-8.991C451.581,433.877,447.555,429.852,442.59,429.852z"/>
<path d="M36.925,137.293h438.152c4.965,0,8.991-4.025,8.991-8.991c0-4.965-4.025-8.991-8.991-8.991H36.925
	c-4.965,0-8.991,4.025-8.991,8.991C27.934,133.267,31.959,137.293,36.925,137.293z"/>
<path d="M85.955,161.867H49.991c-4.965,0-8.991,4.025-8.991,8.991s4.025,8.991,8.991,8.991h35.963c4.965,0,8.991-4.025,8.991-8.991
	S90.92,161.867,85.955,161.867z"/>
<path d="M85.955,199.529H49.991c-4.965,0-8.991,4.025-8.991,8.991c0,4.965,4.025,8.991,8.991,8.991h35.963
	c4.965,0,8.991-4.025,8.991-8.991C94.945,203.555,90.92,199.529,85.955,199.529z"/>
<path d="M85.955,237.19H49.991c-4.965,0-8.991,4.025-8.991,8.991c0,4.965,4.025,8.991,8.991,8.991h35.963
	c4.965,0,8.991-4.025,8.991-8.991C94.945,241.216,90.92,237.19,85.955,237.19z"/>
<path d="M85.955,274.852H49.991c-4.965,0-8.991,4.026-8.991,8.991c0,4.965,4.025,8.991,8.991,8.991h35.963
	c4.965,0,8.991-4.025,8.991-8.991C94.945,278.877,90.92,274.852,85.955,274.852z"/>
<path d="M85.955,312.514H49.991c-4.965,0-8.991,4.025-8.991,8.991s4.025,8.991,8.991,8.991h35.963c4.965,0,8.991-4.025,8.991-8.991
	S90.92,312.514,85.955,312.514z"/>
<path d="M85.955,350.174H49.991c-4.965,0-8.991,4.025-8.991,8.991s4.025,8.991,8.991,8.991h35.963c4.965,0,8.991-4.025,8.991-8.991
	S90.92,350.174,85.955,350.174z"/>
<path d="M85.955,387.836H49.991c-4.965,0-8.991,4.025-8.991,8.991c0,4.965,4.025,8.991,8.991,8.991h35.963
	c4.965,0,8.991-4.025,8.991-8.991C94.945,391.862,90.92,387.836,85.955,387.836z"/>
<path d="M144.694,161.867c-4.965,0-8.991,4.025-8.991,8.991s4.025,8.991,8.991,8.991h125.871c4.965,0,8.991-4.025,8.991-8.991
	s-4.025-8.991-8.991-8.991H144.694z"/>
<path d="M448.134,199.529h-303.44c-4.965,0-8.991,4.025-8.991,8.991c0,4.965,4.025,8.991,8.991,8.991h303.44
	c4.965,0,8.991-4.025,8.991-8.991C457.125,203.555,453.099,199.529,448.134,199.529z"/>
<path d="M144.694,255.172h179.816c4.965,0,8.991-4.025,8.991-8.991c0-4.965-4.025-8.991-8.991-8.991H144.694
	c-4.965,0-8.991,4.025-8.991,8.991C135.704,251.146,139.729,255.172,144.694,255.172z"/>
<path d="M448.134,274.852h-303.44c-4.965,0-8.991,4.026-8.991,8.991c0,4.965,4.025,8.991,8.991,8.991h303.44
	c4.965,0,8.991-4.025,8.991-8.991C457.125,278.877,453.099,274.852,448.134,274.852z"/>
<path d="M216.621,312.514h-71.926c-4.965,0-8.991,4.025-8.991,8.991s4.025,8.991,8.991,8.991h71.926
	c4.965,0,8.991-4.025,8.991-8.991S221.586,312.514,216.621,312.514z"/>
<path d="M409.024,359.165c0-4.965-4.025-8.991-8.991-8.991H144.694c-4.965,0-8.991,4.025-8.991,8.991s4.025,8.991,8.991,8.991
	h255.339C404.999,368.156,409.024,364.131,409.024,359.165z"/>
<path d="M144.694,387.836c-4.965,0-8.991,4.025-8.991,8.991c0,4.965,4.025,8.991,8.991,8.991h157.039
	c4.965,0,8.991-4.025,8.991-8.991c0-4.965-4.025-8.991-8.991-8.991H144.694z"/>
<circle cx="39.202" cy="101.932" r="8.991"/>
<circle cx="97.34" cy="101.932" r="8.991"/>
<circle cx="68.273" cy="101.932" r="8.991"/>
<g>
</g>
<g>
</g>
<g>
</g>
<g>
</g>
<g>
</g>
<g>
</g>
<g>
</g>
<g>
</g>
<g>
</g>
<g>
</g>
<g>
</g>
<g>
</g>
<g>
</g>
<g>
</g>
<g>
</g>
</svg>
