<?xml version="1.0" encoding="iso-8859-1"?>
<!-- Generator: Adobe Illustrator 19.0.0, SVG Export Plug-In . SVG Version: 6.00 Build 0)  -->
<svg version="1.1" id="Layer_1" xmlns="http://www.w3.org/2000/svg" xmlns:xlink="http://www.w3.org/1999/xlink" x="0px" y="0px"
	 viewBox="0 0 512 512" style="enable-background:new 0 0 512 512;" xml:space="preserve">
<rect x="8.994" y="72.893" style="fill:#CCCCCC;" width="494.015" height="365.686"/>
<polygon style="fill:#E6E6E6;" points="503.009,72.893 503.009,438.579 196.399,438.579 298.93,72.893 "/>
<rect x="8.994" y="72.893" style="fill:#F9C573;" width="494.015" height="55.144"/>
<polygon style="fill:#FCD8A9;" points="503.009,72.893 503.009,128.037 283.466,128.037 298.93,72.893 "/>
<circle style="fill:#9BD7F4;" cx="129.42" cy="232.071" r="72.726"/>
<circle style="fill:#E6E6E6;" cx="129.42" cy="219.784" r="27.017"/>
<path d="M503.009,64.167H8.991C4.024,64.167,0,68.193,0,73.158v106.691c0,4.965,4.024,8.991,8.991,8.991s8.991-4.025,8.991-8.991
	v-97.7h476.037v347.702h-19.66c-4.967,0-8.991,4.026-8.991,8.991c0,4.965,4.024,8.991,8.991,8.991h28.651
	c4.967,0,8.991-4.025,8.991-8.991V73.158C512,68.193,507.975,64.167,503.009,64.167z"/>
<path d="M442.59,429.851H17.982V213.415c0-4.965-4.024-8.991-8.991-8.991S0,208.449,0,213.415v225.427
	c0,4.965,4.024,8.991,8.991,8.991H442.59c4.967,0,8.991-4.025,8.991-8.991C451.581,433.877,447.556,429.851,442.59,429.851z"/>
<path d="M36.925,137.293h438.152c4.967,0,8.991-4.025,8.991-8.991c0-4.965-4.024-8.991-8.991-8.991H36.925
	c-4.967,0-8.991,4.025-8.991,8.991C27.934,133.267,31.958,137.293,36.925,137.293z"/>
<circle cx="39.202" cy="101.932" r="8.991"/>
<circle cx="97.34" cy="101.932" r="8.991"/>
<circle cx="68.273" cy="101.932" r="8.991"/>
<path d="M186.733,186.669c-4.23,2.599-5.554,8.136-2.955,12.367c6.137,9.991,9.38,21.507,9.38,33.303
	c0,35.143-28.592,63.735-63.735,63.735c-35.142,0-63.734-28.592-63.734-63.735s28.592-63.735,63.734-63.735
	c14.03,0,27.337,4.468,38.479,12.92c3.957,3.002,9.596,2.226,12.598-1.729c3.001-3.956,2.226-9.595-1.729-12.597
	c-14.295-10.844-31.36-16.577-49.348-16.577c-45.058,0-81.716,36.659-81.716,81.717s36.657,81.717,81.716,81.717
	s81.717-36.659,81.717-81.717c0-15.12-4.163-29.891-12.04-42.715C196.501,185.393,190.965,184.071,186.733,186.669z"/>
<path d="M165.431,220.052c0-19.854-16.153-36.008-36.008-36.008s-36.006,16.153-36.006,36.008c0,10.753,4.744,20.413,12.242,27.017
	c-7.497,6.603-12.242,16.264-12.242,27.017c0,4.965,4.024,8.991,8.991,8.991c4.967,0,8.991-4.026,8.991-8.991
	c0-9.939,8.086-18.026,18.025-18.026s18.026,8.086,18.026,18.025c0,4.965,4.024,8.991,8.991,8.991s8.991-4.025,8.991-8.991
	c0-10.753-4.744-20.413-12.242-27.017C160.687,240.465,165.431,230.804,165.431,220.052z M111.398,220.052
	c0-9.939,8.086-18.026,18.025-18.026s18.026,8.087,18.026,18.026s-8.087,18.026-18.026,18.026
	C119.484,238.078,111.398,229.991,111.398,220.052z"/>
<path d="M251.511,175.653c-4.967,0-8.991,4.025-8.991,8.991c0,4.965,4.024,8.991,8.991,8.991h39.56c4.967,0,8.991-4.025,8.991-8.991
	c0-4.965-4.024-8.991-8.991-8.991H251.511z"/>
<path d="M455.303,211.377H251.511c-4.967,0-8.991,4.025-8.991,8.991s4.024,8.991,8.991,8.991h203.792
	c4.967,0,8.991-4.025,8.991-8.991S460.268,211.377,455.303,211.377z"/>
<path d="M455.303,282.824H251.511c-4.967,0-8.991,4.025-8.991,8.991s4.024,8.991,8.991,8.991h203.792
	c4.967,0,8.991-4.025,8.991-8.991S460.268,282.824,455.303,282.824z"/>
<path d="M455.303,344.92h-75.426c-4.967,0-8.991,4.025-8.991,8.991c0,4.965,4.024,8.991,8.991,8.991h75.426
	c4.967,0,8.991-4.025,8.991-8.991C464.294,348.946,460.268,344.92,455.303,344.92z"/>
<path d="M357.9,353.911c0-4.965-4.024-8.991-8.991-8.991H56.698c-4.967,0-8.991,4.025-8.991,8.991c0,4.965,4.024,8.991,8.991,8.991
	h292.211C353.875,362.902,357.9,358.876,357.9,353.911z"/>
<path d="M455.303,380.644H212.847c-4.967,0-8.991,4.025-8.991,8.991s4.024,8.991,8.991,8.991h242.456
	c4.967,0,8.991-4.025,8.991-8.991S460.268,380.644,455.303,380.644z"/>
<path d="M56.698,380.644c-4.967,0-8.991,4.025-8.991,8.991s4.024,8.991,8.991,8.991h123.384c4.967,0,8.991-4.025,8.991-8.991
	s-4.024-8.991-8.991-8.991H56.698z"/>
<path d="M251.511,265.082h39.56c4.967,0,8.991-4.025,8.991-8.991c0-4.965-4.024-8.991-8.991-8.991h-39.56
	c-4.967,0-8.991,4.025-8.991,8.991C242.52,261.056,246.545,265.082,251.511,265.082z"/>
<g>
</g>
<g>
</g>
<g>
</g>
<g>
</g>
<g>
</g>
<g>
</g>
<g>
</g>
<g>
</g>
<g>
</g>
<g>
</g>
<g>
</g>
<g>
</g>
<g>
</g>
<g>
</g>
<g>
</g>
</svg>
