<?xml version="1.0" encoding="iso-8859-1"?>
<!-- Generator: Adobe Illustrator 19.0.0, SVG Export Plug-In . SVG Version: 6.00 Build 0)  -->
<svg version="1.1" id="Layer_1" xmlns="http://www.w3.org/2000/svg" xmlns:xlink="http://www.w3.org/1999/xlink" x="0px" y="0px"
	 viewBox="0 0 512 512" style="enable-background:new 0 0 512 512;" xml:space="preserve">
<rect x="8.997" y="72.898" style="fill:#CCCCCC;" width="494.015" height="365.686"/>
<polygon style="fill:#E6E6E6;" points="503.012,72.898 503.012,438.584 196.401,438.584 298.932,72.898 "/>
<rect x="8.997" y="72.898" style="fill:#F9C573;" width="494.015" height="55.144"/>
<polygon style="fill:#FCD8A9;" points="503.012,72.898 503.012,128.042 283.468,128.042 298.932,72.898 "/>
<rect x="364.14" y="282.468" style="fill:#FFFFFF;" width="100.445" height="105.708"/>
<rect x="147.845" y="176.772" style="fill:#F2F2F2;" width="108.153" height="105.696"/>
<rect x="256.01" y="176.772" style="fill:#C8EDFC;" width="108.141" height="105.696"/>
<rect x="364.14" y="176.772" style="fill:#F98791;" width="100.445" height="105.696"/>
<rect x="256.01" y="282.468" style="fill:#FCD8A9;" width="108.141" height="105.708"/>
<rect x="47.406" y="282.468" style="fill:#9BD7F4;" width="100.445" height="105.708"/>
<rect x="147.845" y="282.468" style="fill:#F94B54;" width="108.153" height="105.708"/>
<rect x="47.406" y="176.772" style="fill:#F9C573;" width="100.445" height="105.696"/>
<polygon style="fill:#F98791;" points="256.004,282.468 256.004,388.176 210.535,388.176 240.168,282.468 "/>
<path d="M503.009,64.167H8.991C4.025,64.167,0,68.193,0,73.158v106.691c0,4.965,4.025,8.991,8.991,8.991s8.991-4.025,8.991-8.991
	v-97.7h476.037v347.702h-19.661c-4.965,0-8.991,4.026-8.991,8.991c0,4.965,4.026,8.991,8.991,8.991h28.652
	c4.965,0,8.991-4.025,8.991-8.991V73.158C512,68.193,507.975,64.167,503.009,64.167z"/>
<path d="M442.59,429.852H17.982V213.415c0-4.965-4.025-8.991-8.991-8.991S0,208.449,0,213.415v225.427
	c0,4.965,4.025,8.991,8.991,8.991H442.59c4.965,0,8.991-4.025,8.991-8.991C451.581,433.877,447.555,429.852,442.59,429.852z"/>
<path d="M36.923,137.293h438.152c4.965,0,8.991-4.025,8.991-8.991c0-4.965-4.025-8.991-8.991-8.991H36.923
	c-4.965,0-8.991,4.025-8.991,8.991C27.933,133.267,31.958,137.293,36.923,137.293z"/>
<circle cx="39.202" cy="101.932" r="8.991"/>
<circle cx="97.34" cy="101.932" r="8.991"/>
<circle cx="68.273" cy="101.932" r="8.991"/>
<path d="M473.582,388.439V177.036c0-4.965-4.025-8.991-8.991-8.991H47.406c-4.965,0-8.991,4.025-8.991,8.991v211.404
	c0,4.965,4.025,8.991,8.991,8.991h265.34c4.965,0,8.991-4.025,8.991-8.991s-4.025-8.991-8.991-8.991h-47.751v-87.726h90.16v87.726
	h-15.236c-4.965,0-8.991,4.025-8.991,8.991s4.025,8.991,8.991,8.991h124.672C469.556,397.43,473.582,393.405,473.582,388.439z
	 M138.859,186.026v26.342c0,4.965,4.025,8.991,8.991,8.991c4.965,0,8.991-4.025,8.991-8.991v-26.342h90.172v87.714H156.84v-32.402
	c0-4.965-4.025-8.991-8.991-8.991c-4.965,0-8.991,4.025-8.991,8.991v32.402H56.395v-87.714L138.859,186.026L138.859,186.026z
	 M56.396,291.722h82.464v87.726H56.396V291.722z M247.013,379.449h-90.172v-87.726h90.172V379.449z M264.995,273.741v-87.714H455.6
	v87.714h-82.464v-72.562c0-4.965-4.026-8.991-8.991-8.991c-4.965,0-8.991,4.025-8.991,8.991v72.562H264.995z M373.136,379.449
	v-87.726H455.6v87.726H373.136z"/>
<path d="M171.726,260.531c1.755,1.755,4.057,2.634,6.357,2.634c2.3,0,4.602-0.878,6.357-2.634l17.618-17.618l17.618,17.618
	c1.755,1.755,4.057,2.634,6.357,2.634c2.3,0,4.602-0.878,6.357-2.634c3.511-3.511,3.511-9.204,0-12.714l-17.618-17.618
	l17.618-17.618c3.511-3.511,3.511-9.204,0-12.714c-3.511-3.511-9.204-3.511-12.714,0l-17.618,17.618l-17.618-17.618
	c-3.511-3.511-9.204-3.511-12.714,0c-3.511,3.511-3.511,9.204,0,12.714l17.618,17.618l-17.618,17.618
	C168.214,251.327,168.214,257.02,171.726,260.531z"/>
<path d="M438.817,303.323h-47.951c-4.965,0-8.991,4.025-8.991,8.991v47.951c0,4.965,4.025,8.991,8.991,8.991h47.951
	c4.965,0,8.991-4.025,8.991-8.991v-47.951C447.808,307.348,443.783,303.323,438.817,303.323z M429.826,351.274h-29.969v-29.969
	h29.969V351.274z"/>
<g>
</g>
<g>
</g>
<g>
</g>
<g>
</g>
<g>
</g>
<g>
</g>
<g>
</g>
<g>
</g>
<g>
</g>
<g>
</g>
<g>
</g>
<g>
</g>
<g>
</g>
<g>
</g>
<g>
</g>
</svg>
