<?xml version="1.0" encoding="iso-8859-1"?>
<!-- Generator: Adobe Illustrator 19.0.0, SVG Export Plug-In . SVG Version: 6.00 Build 0)  -->
<svg version="1.1" id="Layer_1" xmlns="http://www.w3.org/2000/svg" xmlns:xlink="http://www.w3.org/1999/xlink" x="0px" y="0px"
	 viewBox="0 0 512 512" style="enable-background:new 0 0 512 512;" xml:space="preserve">
<rect x="8.994" y="72.894" style="fill:#CCCCCC;" width="494.015" height="365.686"/>
<polygon style="fill:#E6E6E6;" points="503.009,72.894 503.009,438.58 196.399,438.58 298.93,72.894 "/>
<rect x="8.994" y="72.894" style="fill:#F9C573;" width="494.015" height="55.144"/>
<polygon style="fill:#FCD8A9;" points="503.009,72.894 503.009,128.038 283.466,128.038 298.93,72.894 "/>
<g>
	<rect x="57.313" y="173.571" style="fill:#F94B54;" width="50.346" height="50.346"/>
	<rect x="57.313" y="258.972" style="fill:#F94B54;" width="50.346" height="50.346"/>
</g>
<rect x="57.313" y="344.384" style="fill:#FFFFFF;" width="50.346" height="50.346"/>
<path d="M503.009,64.167H8.991C4.025,64.167,0,68.193,0,73.158v106.691c0,4.965,4.025,8.991,8.991,8.991s8.991-4.025,8.991-8.991
	v-97.7h476.037v347.702h-19.661c-4.965,0-8.991,4.026-8.991,8.991c0,4.965,4.026,8.991,8.991,8.991h28.652
	c4.965,0,8.991-4.025,8.991-8.991V73.158C512,68.193,507.975,64.167,503.009,64.167z"/>
<path d="M442.59,429.852H17.982V213.415c0-4.965-4.025-8.991-8.991-8.991S0,208.449,0,213.415v225.427
	c0,4.965,4.025,8.991,8.991,8.991H442.59c4.965,0,8.991-4.025,8.991-8.991C451.581,433.877,447.555,429.852,442.59,429.852z"/>
<path d="M36.925,137.293h438.152c4.965,0,8.991-4.025,8.991-8.991c0-4.965-4.025-8.991-8.991-8.991H36.925
	c-4.965,0-8.991,4.025-8.991,8.991C27.934,133.267,31.959,137.293,36.925,137.293z"/>
<circle cx="39.202" cy="101.932" r="8.991"/>
<circle cx="97.34" cy="101.932" r="8.991"/>
<circle cx="68.273" cy="101.932" r="8.991"/>
<path d="M116.65,173.831c0-4.965-4.025-8.991-8.991-8.991H57.313c-4.965,0-8.991,4.025-8.991,8.991v50.346
	c0,4.965,4.025,8.991,8.991,8.991h50.346c4.965,0,8.991-4.025,8.991-8.991V173.831z M98.669,215.187H66.304v-32.365h32.364V215.187z
	"/>
<circle cx="82.486" cy="199.009" r="8.991"/>
<path d="M454.687,172.033H150.813c-4.965,0-8.991,4.025-8.991,8.991c0,4.965,4.025,8.991,8.991,8.991h303.875
	c4.965,0,8.991-4.025,8.991-8.991C463.679,176.059,459.653,172.033,454.687,172.033z"/>
<path d="M300.053,218.783c0-4.965-4.025-8.991-8.991-8.991H150.813c-4.965,0-8.991,4.025-8.991,8.991
	c0,4.965,4.025,8.991,8.991,8.991h140.249C296.028,227.774,300.053,223.748,300.053,218.783z"/>
<path d="M116.65,259.241c0-4.965-4.025-8.991-8.991-8.991H57.313c-4.965,0-8.991,4.025-8.991,8.991v50.346
	c0,4.965,4.025,8.991,8.991,8.991h50.346c4.965,0,8.991-4.025,8.991-8.991V259.241z M98.669,300.597H66.304v-32.365h32.364V300.597z
	"/>
<circle cx="82.486" cy="284.41" r="8.991"/>
<path d="M454.687,257.443H290.369c-4.965,0-8.991,4.025-8.991,8.991c0,4.965,4.025,8.991,8.991,8.991h164.318
	c4.965,0,8.991-4.025,8.991-8.991C463.679,261.469,459.653,257.443,454.687,257.443z"/>
<path d="M264.396,257.443H150.813c-4.965,0-8.991,4.025-8.991,8.991c0,4.965,4.025,8.991,8.991,8.991h113.583
	c4.965,0,8.991-4.025,8.991-8.991C273.386,261.469,269.361,257.443,264.396,257.443z"/>
<path d="M291.062,295.202H150.813c-4.965,0-8.991,4.026-8.991,8.991c0,4.965,4.025,8.991,8.991,8.991h140.249
	c4.965,0,8.991-4.025,8.991-8.991C300.053,299.228,296.028,295.202,291.062,295.202z"/>
<path d="M107.66,335.661H57.313c-4.965,0-8.991,4.025-8.991,8.991v50.346c0,4.965,4.025,8.991,8.991,8.991h50.346
	c4.965,0,8.991-4.025,8.991-8.991v-50.346C116.65,339.686,112.625,335.661,107.66,335.661z M98.669,386.007H66.304v-32.364h32.364
	V386.007z"/>
<path d="M454.687,342.854H386.27c-4.965,0-8.991,4.025-8.991,8.991c0,4.965,4.025,8.991,8.991,8.991h68.416
	c4.965,0,8.991-4.025,8.991-8.991C463.677,346.879,459.653,342.854,454.687,342.854z"/>
<path d="M370.486,351.844c0-4.965-4.025-8.991-8.991-8.991H150.813c-4.965,0-8.991,4.025-8.991,8.991
	c0,4.965,4.025,8.991,8.991,8.991h210.683C366.46,360.835,370.486,356.81,370.486,351.844z"/>
<path d="M150.813,380.613c-4.965,0-8.991,4.025-8.991,8.991c0,4.965,4.025,8.991,8.991,8.991h140.249
	c4.965,0,8.991-4.025,8.991-8.991c0-4.965-4.025-8.991-8.991-8.991H150.813z"/>
<g>
</g>
<g>
</g>
<g>
</g>
<g>
</g>
<g>
</g>
<g>
</g>
<g>
</g>
<g>
</g>
<g>
</g>
<g>
</g>
<g>
</g>
<g>
</g>
<g>
</g>
<g>
</g>
<g>
</g>
</svg>
