<?xml version="1.0" encoding="iso-8859-1"?>
<!-- Generator: Adobe Illustrator 19.0.0, SVG Export Plug-In . SVG Version: 6.00 Build 0)  -->
<svg version="1.1" id="Layer_1" xmlns="http://www.w3.org/2000/svg" xmlns:xlink="http://www.w3.org/1999/xlink" x="0px" y="0px"
	 viewBox="0 0 512 512" style="enable-background:new 0 0 512 512;" xml:space="preserve">
<rect x="8.994" y="72.893" style="fill:#CCCCCC;" width="494.015" height="365.686"/>
<polygon style="fill:#E6E6E6;" points="503.009,72.893 503.009,438.579 196.399,438.579 298.93,72.893 "/>
<rect x="8.994" y="72.893" style="fill:#F9C573;" width="494.015" height="55.144"/>
<polygon style="fill:#FCD8A9;" points="503.009,72.893 503.009,128.037 283.466,128.037 298.93,72.893 "/>
<g>
	<path style="fill:#9BD7F4;" d="M431.996,274.039c9.338,0,16.903,7.564,16.903,16.891c0,9.338-7.564,16.903-16.903,16.903
		c-9.326,0-16.891-7.564-16.891-16.903C415.105,281.603,422.67,274.039,431.996,274.039z"/>
	<path style="fill:#9BD7F4;" d="M372.022,290.163c9.338,0,16.903,7.564,16.903,16.891c0,9.338-7.564,16.903-16.903,16.903
		c-9.326,0-16.891-7.564-16.891-16.903C355.131,297.727,362.695,290.163,372.022,290.163z"/>
	<polygon style="fill:#9BD7F4;" points="315.344,228.486 315.344,294.418 279.38,268.045 247.169,296.936 238.142,289.719 
		211.05,268.045 176.286,302.81 176.286,228.486 	"/>
</g>
<polygon style="fill:#FCD8A9;" points="315.344,294.418 315.344,330.382 288.97,330.382 247.169,296.936 279.38,268.045 "/>
<polygon style="fill:#F9C573;" points="288.97,330.382 176.286,330.382 176.286,302.81 211.05,268.045 238.142,289.719 
	247.169,296.936 "/>
<polygon style="fill:#C8EDFC;" points="315.344,228.486 315.344,294.418 279.38,268.045 247.169,296.936 238.142,289.719 
	255.309,228.486 "/>
<polygon style="fill:#FCD8A9;" points="288.97,330.382 226.742,330.382 238.142,289.719 247.169,296.936 "/>
<polygon style="fill:#F94B54;" points="132.934,280.511 63.106,320.827 63.106,240.197 "/>
<path d="M503.009,64.167H8.991C4.025,64.167,0,68.193,0,73.158v106.691c0,4.965,4.025,8.991,8.991,8.991s8.991-4.025,8.991-8.991
	v-97.7h476.037v347.702h-19.66c-4.967,0-8.991,4.026-8.991,8.991c0,4.965,4.024,8.991,8.991,8.991h28.651
	c4.967,0,8.991-4.025,8.991-8.991V73.158C512,68.193,507.975,64.167,503.009,64.167z"/>
<path d="M442.59,429.851H17.982V213.415c0-4.965-4.025-8.991-8.991-8.991S0,208.449,0,213.415v225.427
	c0,4.965,4.025,8.991,8.991,8.991H442.59c4.967,0,8.991-4.025,8.991-8.991C451.581,433.877,447.556,429.851,442.59,429.851z"/>
<path d="M36.923,137.293h438.152c4.967,0,8.991-4.025,8.991-8.991c0-4.965-4.024-8.991-8.991-8.991H36.923
	c-4.965,0-8.991,4.025-8.991,8.991C27.933,133.267,31.958,137.293,36.923,137.293z"/>
<circle cx="39.202" cy="101.932" r="8.991"/>
<circle cx="97.34" cy="101.932" r="8.991"/>
<circle cx="68.273" cy="101.932" r="8.991"/>
<path d="M454.369,224.78c-2.22-1.701-5.106-2.273-7.805-1.548l-59.975,16.124c-3.926,1.055-6.657,4.616-6.657,8.683v34.639
	c-2.496-0.802-5.152-1.24-7.912-1.24c-14.27,0-25.882,11.61-25.882,25.882c0,14.277,11.611,25.894,25.882,25.894
	c14.277,0,25.894-11.616,25.894-25.894v-52.386l41.993-11.289v22.911c-2.496-0.802-5.154-1.241-7.913-1.241
	c-14.27,0-25.882,11.61-25.882,25.882c0,14.277,11.611,25.894,25.882,25.894c14.277,0,25.895-11.616,25.895-25.894v-59.279
	C457.89,229.119,456.589,226.481,454.369,224.78z M372.022,315.23c-4.356,0-7.9-3.55-7.9-7.912c0-4.356,3.544-7.9,7.9-7.9
	c4.362,0,7.912,3.544,7.912,7.9C379.933,311.681,376.384,315.23,372.022,315.23z M431.995,299.107c-4.356,0-7.9-3.55-7.9-7.912
	c0-4.356,3.544-7.9,7.9-7.9c4.364,0,7.913,3.544,7.913,7.9C439.908,295.557,436.359,299.107,431.995,299.107z"/>
<path d="M176.286,339.637h139.058c4.967,0,8.991-4.025,8.991-8.991V228.751c0-4.965-4.024-8.991-8.991-8.991H298.36
	c-4.967,0-8.991,4.025-8.991,8.991s4.024,8.991,8.991,8.991h7.992v39.199l-21.655-15.88c-3.43-2.516-8.154-2.284-11.32,0.556
	l-26.543,23.806l-30.168-24.135c-3.577-2.861-8.734-2.575-11.973,0.664l-19.417,19.417v-43.627h83.515
	c4.967,0,8.991-4.025,8.991-8.991s-4.024-8.991-8.991-8.991h-92.506c-4.965,0-8.991,4.025-8.991,8.991v101.896
	C167.295,335.612,171.32,339.637,176.286,339.637z M279.949,279.877l26.403,19.363v22.416h-14.228l-31.055-24.845L279.949,279.877z
	 M211.718,280.358l51.622,41.298h-78.063v-14.858L211.718,280.358z"/>
<path d="M67.601,232.675c-2.781-1.606-6.21-1.606-8.991,0s-4.495,4.573-4.495,7.786v80.631c0,3.213,1.714,6.18,4.495,7.786
	c1.391,0.803,2.943,1.205,4.495,1.205c1.552,0,3.105-0.402,4.495-1.205l69.829-40.315c2.781-1.606,4.495-4.573,4.495-7.786
	s-1.714-6.18-4.495-7.786L67.601,232.675z M72.097,305.519v-49.485l42.856,24.743L72.097,305.519z"/>
<circle cx="251.095" cy="255.375" r="8.991"/>
<g>
</g>
<g>
</g>
<g>
</g>
<g>
</g>
<g>
</g>
<g>
</g>
<g>
</g>
<g>
</g>
<g>
</g>
<g>
</g>
<g>
</g>
<g>
</g>
<g>
</g>
<g>
</g>
<g>
</g>
</svg>
