<?xml version="1.0" encoding="iso-8859-1"?>
<!-- Generator: Adobe Illustrator 19.0.0, SVG Export Plug-In . SVG Version: 6.00 Build 0)  -->
<svg version="1.1" id="Layer_1" xmlns="http://www.w3.org/2000/svg" xmlns:xlink="http://www.w3.org/1999/xlink" x="0px" y="0px"
	 viewBox="0 0 512 512" style="enable-background:new 0 0 512 512;" xml:space="preserve">
<rect x="8.388" y="135.02" style="fill:#9BD7F4;" width="139.403" height="241.467"/>
<rect x="186.299" y="135.02" style="fill:#F9C573;" width="139.403" height="241.467"/>
<rect x="364.213" y="135.02" style="fill:#F94B54;" width="139.403" height="241.467"/>
<polygon style="fill:#C8EDFC;" points="147.79,135.018 147.79,376.485 46.978,376.485 114.678,135.018 "/>
<polygon style="fill:#FCD8A9;" points="325.702,135.018 325.702,376.485 224.89,376.485 292.59,135.018 "/>
<polygon style="fill:#F98791;" points="503.616,135.018 503.616,376.485 402.803,376.485 470.503,135.018 "/>
<path d="M147.789,126.882H8.384c-4.631,0-8.384,3.754-8.384,8.384v241.467c0,4.63,3.753,8.384,8.384,8.384h139.405
	c4.631,0,8.384-3.754,8.384-8.384V135.266C156.173,130.636,152.421,126.882,147.789,126.882z M139.405,368.349H16.769V143.651
	h122.636V368.349z"/>
<path d="M325.704,126.882H186.296c-4.631,0-8.384,3.754-8.384,8.384v241.467c0,4.63,3.753,8.384,8.384,8.384h139.406
	c4.631,0,8.384-3.754,8.384-8.384V135.266C334.088,130.636,330.334,126.882,325.704,126.882z M317.319,368.349H194.681V143.651
	h122.637v224.699H317.319z"/>
<path d="M503.616,126.882H364.21c-4.631,0-8.384,3.754-8.384,8.384v241.467c0,4.63,3.753,8.384,8.384,8.384h139.406
	c4.632,0,8.384-3.754,8.384-8.384V135.266C512,130.636,508.247,126.882,503.616,126.882z M495.231,368.349H372.594V143.651h122.637
	V368.349z"/>
<path d="M223.311,254.128c0,4.63,3.753,8.384,8.384,8.384c4.631,0,8.384-3.754,8.384-8.384c0-8.778,7.142-15.919,15.92-15.919
	s15.919,7.141,15.919,15.919c0,4.63,3.753,8.384,8.384,8.384c4.631,0,8.384-3.754,8.384-8.384c0-9.64-4.197-18.316-10.856-24.303
	c6.659-5.989,10.856-14.664,10.856-24.304c0-18.025-14.664-32.689-32.688-32.689c-18.025,0-32.689,14.664-32.689,32.689
	c0,9.64,4.197,18.316,10.857,24.304C227.508,235.812,223.311,244.488,223.311,254.128z M240.08,205.52
	c0-8.779,7.142-15.92,15.92-15.92s15.919,7.141,15.919,15.92s-7.141,15.92-15.919,15.92
	C247.222,221.44,240.08,214.299,240.08,205.52z"/>
<path d="M42.874,301.275h70.428c4.631,0,8.384-3.754,8.384-8.384c0-4.63-3.753-8.384-8.384-8.384H42.874
	c-4.631,0-8.384,3.754-8.384,8.384C34.49,297.521,38.242,301.275,42.874,301.275z"/>
<path d="M95.498,311.336H60.675c-4.631,0-8.384,3.754-8.384,8.384c0,4.63,3.753,8.384,8.384,8.384h34.822
	c4.631,0,8.384-3.754,8.384-8.384C103.881,315.09,100.128,311.336,95.498,311.336z"/>
<path d="M220.786,301.275h70.428c4.631,0,8.384-3.754,8.384-8.384c0-4.63-3.753-8.384-8.384-8.384h-70.428
	c-4.631,0-8.384,3.754-8.384,8.384C212.402,297.521,216.155,301.275,220.786,301.275z"/>
<path d="M273.41,311.336h-34.82c-4.631,0-8.384,3.754-8.384,8.384c0,4.63,3.753,8.384,8.384,8.384h34.82
	c4.631,0,8.384-3.754,8.384-8.384C281.795,315.09,278.042,311.336,273.41,311.336z"/>
<path d="M398.698,301.275h70.428c4.632,0,8.384-3.754,8.384-8.384c0-4.63-3.753-8.384-8.384-8.384h-70.428
	c-4.631,0-8.384,3.754-8.384,8.384C390.314,297.521,394.068,301.275,398.698,301.275z"/>
<path d="M451.324,311.336h-34.82c-4.632,0-8.384,3.754-8.384,8.384c0,4.63,3.753,8.384,8.384,8.384h34.82
	c4.632,0,8.384-3.754,8.384-8.384C459.708,315.09,455.954,311.336,451.324,311.336z"/>
<path d="M78.087,257.91c10.514,0,21.029-4.002,29.032-12.006c7.756-7.755,12.026-18.065,12.026-29.032
	c0-10.967-4.27-21.277-12.025-29.032c-16.008-16.007-42.057-16.01-58.063,0c-7.756,7.755-12.026,18.065-12.026,29.032
	c0,10.967,4.27,21.277,12.025,29.032C57.059,253.91,67.573,257.91,78.087,257.91z M60.911,234.048
	c-4.588-4.588-7.113-10.687-7.113-17.174c0-3.577,0.794-7.026,2.253-10.179l32.206,32.206
	C79.281,243.03,68.296,241.43,60.911,234.048z M95.262,199.699c4.588,4.588,7.113,10.687,7.113,17.174
	c0,3.577-0.794,7.026-2.253,10.179l-32.206-32.206c3.22-1.482,6.69-2.25,10.168-2.25C84.307,192.596,90.527,194.964,95.262,199.699z
	"/>
<path d="M424.243,251.741c1.594,2.107,4.076,3.328,6.686,3.328c0.269,0,0.54-0.013,0.813-0.039c2.902-0.282,5.448-2.05,6.725-4.671
	l29.066-59.621c2.029-4.162,0.301-9.181-3.862-11.21c-4.16-2.029-9.18-0.298-11.209,3.862l-23.08,47.343l-14.865-19.659
	c-2.793-3.692-8.05-4.425-11.745-1.631c-3.694,2.793-4.424,8.051-1.631,11.745L424.243,251.741z"/>
<g>
</g>
<g>
</g>
<g>
</g>
<g>
</g>
<g>
</g>
<g>
</g>
<g>
</g>
<g>
</g>
<g>
</g>
<g>
</g>
<g>
</g>
<g>
</g>
<g>
</g>
<g>
</g>
<g>
</g>
</svg>
