<?xml version="1.0" encoding="iso-8859-1"?>
<!-- Generator: Adobe Illustrator 19.0.0, SVG Export Plug-In . SVG Version: 6.00 Build 0)  -->
<svg version="1.1" id="Layer_1" xmlns="http://www.w3.org/2000/svg" xmlns:xlink="http://www.w3.org/1999/xlink" x="0px" y="0px"
	 viewBox="0 0 511.999 511.999" style="enable-background:new 0 0 511.999 511.999;" xml:space="preserve">
<polygon style="fill:#CCCCCC;" points="302.308,470.313 209.679,470.313 217.435,438.006 224.927,406.838 287.072,406.838 
	294.552,438.006 "/>
<polygon style="fill:#999999;" points="294.552,438.006 217.435,438.006 224.927,406.838 254.389,374.746 287.072,406.838 "/>
<path style="fill:#CCCCCC;" d="M503.007,73.841v300.305c0,18.054-14.637,32.691-32.691,32.691H41.683
	c-18.054,0-32.691-14.637-32.691-32.691V73.841c0-18.054,14.637-32.691,32.691-32.691h428.634
	C488.37,41.151,503.007,55.788,503.007,73.841z"/>
<path style="fill:#E6E6E6;" d="M503.007,73.843v300.305c0,18.054-14.637,32.691-32.691,32.691H207.701L310.232,41.152h160.084
	C488.37,41.152,503.007,55.789,503.007,73.843z"/>
<rect x="8.992" y="85.999" style="fill:#9BD7F4;" width="494.015" height="275.994"/>
<polygon style="fill:#C8EDFC;" points="503.007,85.998 503.007,361.992 220.276,361.992 297.657,85.998 "/>
<rect x="177.49" y="216.174" style="fill:#F94B54;" width="157.039" height="113.884"/>
<polygon style="fill:#F98791;" points="334.524,216.174 334.524,330.058 229.236,330.058 261.159,216.174 "/>
<circle style="fill:#333333;" cx="255.998" cy="262.927" r="17.382"/>
<path d="M470.316,32.427H41.683C18.7,32.427,0,51.127,0,74.111v40.433c0,4.965,4.024,8.991,8.991,8.991s8.991-4.025,8.991-8.991
	V74.111c0-13.069,10.632-23.701,23.701-23.701h428.634c13.069,0,23.701,10.632,23.701,23.701v267.002
	c0,4.965,4.024,8.991,8.991,8.991s8.991-4.025,8.991-8.991V74.111C512,51.127,493.3,32.427,470.316,32.427z"/>
<path d="M503.009,365.419c-4.967,0-8.991,4.025-8.991,8.991c0,13.069-10.632,23.701-23.701,23.701H41.683
	c-13.069,0.001-23.701-10.632-23.701-23.701V149.308c0-4.965-4.024-8.991-8.991-8.991S0,144.343,0,149.308V374.41
	c0,22.984,18.7,41.684,41.683,41.684h171.839l-10.923,45.496h-42.501c-4.967,0-8.991,4.025-8.991,8.991s4.024,8.991,8.991,8.991
	h49.59h92.623h49.591c4.967,0,8.991-4.025,8.991-8.991s-4.024-8.991-8.991-8.991h-42.503l-10.922-45.496h171.839
	c22.984,0,41.683-18.698,41.683-41.683C512,369.445,507.975,365.419,503.009,365.419z M290.906,461.589h-69.813l10.923-45.496
	h47.968L290.906,461.589z"/>
<path d="M39.35,371.245H472.65c4.967,0,8.991-4.025,8.991-8.991c0-4.965-4.024-8.991-8.991-8.991H39.35
	c-4.967,0-8.991,4.025-8.991,8.991C30.359,367.22,34.384,371.245,39.35,371.245z"/>
<path d="M481.641,86.267c0-4.965-4.024-8.991-8.991-8.991H39.35c-4.967,0-8.991,4.025-8.991,8.991c0,4.965,4.024,8.991,8.991,8.991
	H472.65C477.617,95.258,481.641,91.232,481.641,86.267z"/>
<path d="M334.52,260.195c4.967,0,8.991-4.026,8.991-8.991v-34.764c0-4.965-4.024-8.991-8.991-8.991h-10.474v-32.055
	c0-37.519-30.523-68.042-68.042-68.042s-68.042,30.523-68.042,68.042v32.055h-10.481c-4.967,0-8.991,4.025-8.991,8.991v113.884
	c0,4.965,4.024,8.991,8.991,8.991H334.52c4.967,0,8.991-4.025,8.991-8.991v-47.951c0-4.965-4.024-8.991-8.991-8.991
	c-4.967,0-8.991,4.025-8.991,8.991v38.96H186.472V225.43H325.53v25.774C325.53,256.169,329.554,260.195,334.52,260.195z
	 M205.943,175.393c0-27.604,22.457-50.061,50.061-50.061c27.604,0,50.061,22.457,50.061,50.061v32.055H205.943L205.943,175.393
	L205.943,175.393z"/>
<path d="M256.001,310.543c4.967,0,8.991-4.026,8.991-8.991v-13.568c10.128-3.684,17.382-13.407,17.382-24.793
	c0-14.542-11.831-26.373-26.373-26.373s-26.373,11.831-26.373,26.373c0,11.386,7.254,21.109,17.382,24.793v13.568
	C247.01,306.518,251.034,310.543,256.001,310.543z M256.001,254.8c4.626,0,8.391,3.764,8.391,8.391s-3.765,8.391-8.391,8.391
	s-8.391-3.764-8.391-8.391S251.373,254.8,256.001,254.8z"/>
<g>
</g>
<g>
</g>
<g>
</g>
<g>
</g>
<g>
</g>
<g>
</g>
<g>
</g>
<g>
</g>
<g>
</g>
<g>
</g>
<g>
</g>
<g>
</g>
<g>
</g>
<g>
</g>
<g>
</g>
</svg>
