<?xml version="1.0" encoding="iso-8859-1"?>
<!-- Generator: Adobe Illustrator 19.0.0, SVG Export Plug-In . SVG Version: 6.00 Build 0)  -->
<svg version="1.1" id="Layer_1" xmlns="http://www.w3.org/2000/svg" xmlns:xlink="http://www.w3.org/1999/xlink" x="0px" y="0px"
	 viewBox="0 0 511.999 511.999" style="enable-background:new 0 0 511.999 511.999;" xml:space="preserve">
<polygon style="fill:#CCCCCC;" points="302.308,470.313 209.679,470.313 217.435,438.006 224.927,406.838 287.072,406.838 
	294.552,438.006 "/>
<polygon style="fill:#999999;" points="294.552,438.006 217.435,438.006 224.927,406.838 254.389,374.746 287.072,406.838 "/>
<path style="fill:#CCCCCC;" d="M503.007,73.841v300.305c0,18.054-14.637,32.691-32.691,32.691H41.683
	c-18.054,0-32.691-14.637-32.691-32.691V73.841c0-18.054,14.637-32.691,32.691-32.691h428.634
	C488.37,41.151,503.007,55.788,503.007,73.841z"/>
<path style="fill:#E6E6E6;" d="M503.007,73.843v300.305c0,18.054-14.637,32.691-32.691,32.691H207.701L310.232,41.152h160.084
	C488.37,41.152,503.007,55.789,503.007,73.843z"/>
<rect x="8.992" y="85.999" style="fill:#9BD7F4;" width="494.015" height="275.994"/>
<polygon style="fill:#C8EDFC;" points="503.007,85.998 503.007,361.992 220.276,361.992 297.657,85.998 "/>
<g>
	<rect x="103.766" y="227.491" style="fill:#F94B54;" width="50.948" height="35.436"/>
	<rect x="103.766" y="292.165" style="fill:#F94B54;" width="50.948" height="35.436"/>
	<rect x="188.255" y="292.165" style="fill:#F94B54;" width="50.96" height="35.436"/>
	<rect x="188.255" y="227.491" style="fill:#F94B54;" width="50.96" height="35.436"/>
</g>
<g>
	<rect x="272.769" y="227.491" style="fill:#F98791;" width="50.96" height="35.436"/>
	<rect x="272.769" y="292.165" style="fill:#F98791;" width="50.96" height="35.436"/>
	<rect x="357.295" y="292.165" style="fill:#F98791;" width="50.96" height="35.436"/>
	<rect x="357.295" y="227.491" style="fill:#F98791;" width="50.96" height="35.436"/>
</g>
<rect x="103.766" y="121.279" style="fill:#F9C573;" width="304.489" height="75.523"/>
<polygon style="fill:#FCD8A9;" points="408.249,121.279 408.249,196.802 266.601,196.802 287.772,121.279 "/>
<path d="M417.239,121.543c0-4.965-4.024-8.991-8.991-8.991H103.76c-4.967,0-8.991,4.025-8.991,8.991v75.523
	c0,4.965,4.024,8.991,8.991,8.991h304.489c4.967,0,8.991-4.025,8.991-8.991V121.543z M399.258,188.075H112.751v-57.541h286.507
	V188.075z"/>
<path d="M163.699,227.754c0-4.965-4.024-8.991-8.991-8.991H103.76c-4.967,0-8.991,4.025-8.991,8.991v35.436
	c0,4.965,4.024,8.991,8.991,8.991h50.948c4.967,0,8.991-4.025,8.991-8.991V227.754z M145.717,254.199h-32.966v-17.454h32.966
	V254.199z"/>
<path d="M154.708,283.438H103.76c-4.967,0-8.991,4.026-8.991,8.991v35.436c0,4.965,4.024,8.991,8.991,8.991h50.948
	c4.967,0,8.991-4.025,8.991-8.991v-35.436C163.699,287.463,159.673,283.438,154.708,283.438z M145.717,318.873h-32.966v-17.454
	h32.966V318.873z"/>
<path d="M248.212,227.754c0-4.965-4.024-8.991-8.991-8.991h-50.96c-4.967,0-8.991,4.025-8.991,8.991v35.436
	c0,4.965,4.024,8.991,8.991,8.991h50.96c4.967,0,8.991-4.025,8.991-8.991V227.754z M230.231,254.199h-32.978v-17.454h32.978V254.199
	z"/>
<path d="M239.221,283.438h-50.96c-4.967,0-8.991,4.026-8.991,8.991v35.436c0,4.965,4.024,8.991,8.991,8.991h50.96
	c4.967,0,8.991-4.025,8.991-8.991v-35.436C248.212,287.463,244.187,283.438,239.221,283.438z M230.231,318.873h-32.978v-17.454
	h32.978V318.873z"/>
<path d="M332.726,227.754c0-4.965-4.024-8.991-8.991-8.991h-50.96c-4.967,0-8.991,4.025-8.991,8.991v35.436
	c0,4.965,4.024,8.991,8.991,8.991h50.96c4.967,0,8.991-4.025,8.991-8.991V227.754z M314.744,254.199h-32.978v-17.454h32.978V254.199
	z"/>
<path d="M323.735,283.438h-50.96c-4.967,0-8.991,4.026-8.991,8.991v35.436c0,4.965,4.024,8.991,8.991,8.991h50.96
	c4.967,0,8.991-4.025,8.991-8.991v-35.436C332.726,287.463,328.7,283.438,323.735,283.438z M314.744,318.873h-32.978v-17.454h32.978
	V318.873z"/>
<path d="M417.239,227.754c0-4.965-4.024-8.991-8.991-8.991h-50.96c-4.967,0-8.991,4.025-8.991,8.991v35.436
	c0,4.965,4.024,8.991,8.991,8.991h50.96c4.967,0,8.991-4.025,8.991-8.991V227.754z M399.258,254.199h-32.978v-17.454h32.978V254.199
	z"/>
<path d="M408.249,283.438h-50.96c-4.967,0-8.991,4.026-8.991,8.991v35.436c0,4.965,4.024,8.991,8.991,8.991h50.96
	c4.967,0,8.991-4.025,8.991-8.991v-35.436C417.239,287.463,413.214,283.438,408.249,283.438z M399.258,318.873h-32.978v-17.454
	h32.978V318.873z"/>
<circle cx="143.325" cy="159.304" r="8.991"/>
<circle cx="207.16" cy="159.304" r="8.991"/>
<circle cx="270.995" cy="159.304" r="8.991"/>
<circle cx="239.072" cy="159.304" r="8.991"/>
<circle cx="175.237" cy="159.304" r="8.991"/>
<path d="M470.316,32.427H41.683C18.7,32.427,0,51.127,0,74.111v40.433c0,4.965,4.024,8.991,8.991,8.991s8.991-4.025,8.991-8.991
	V74.111c0-13.069,10.632-23.701,23.701-23.701h428.634c13.069,0,23.701,10.633,23.701,23.701v267.002
	c0,4.965,4.024,8.991,8.991,8.991s8.991-4.025,8.991-8.991V74.111C512,51.127,493.3,32.427,470.316,32.427z"/>
<path d="M503.009,365.419c-4.967,0-8.991,4.025-8.991,8.991c0,13.069-10.632,23.701-23.701,23.701H41.683
	c-13.069,0.001-23.701-10.632-23.701-23.701V149.308c0-4.965-4.024-8.991-8.991-8.991S0,144.343,0,149.308V374.41
	c0,22.984,18.7,41.684,41.683,41.684h171.839l-10.923,45.496h-42.503c-4.967,0-8.991,4.025-8.991,8.991s4.024,8.991,8.991,8.991
	h49.59h92.623H351.9c4.967,0,8.991-4.025,8.991-8.991s-4.024-8.991-8.991-8.991h-42.503l-10.922-45.496h171.839
	c22.984,0,41.683-18.7,41.683-41.683C512,369.445,507.975,365.419,503.009,365.419z M290.906,461.589h-69.813l10.923-45.496h47.968
	L290.906,461.589z"/>
<path d="M39.35,371.245H472.65c4.967,0,8.991-4.025,8.991-8.991c0-4.965-4.024-8.991-8.991-8.991H39.35
	c-4.967,0-8.991,4.025-8.991,8.991C30.359,367.22,34.384,371.245,39.35,371.245z"/>
<path d="M481.641,86.267c0-4.965-4.024-8.991-8.991-8.991H39.35c-4.967,0-8.991,4.025-8.991,8.991c0,4.965,4.024,8.991,8.991,8.991
	H472.65C477.617,95.258,481.641,91.232,481.641,86.267z"/>
<g>
</g>
<g>
</g>
<g>
</g>
<g>
</g>
<g>
</g>
<g>
</g>
<g>
</g>
<g>
</g>
<g>
</g>
<g>
</g>
<g>
</g>
<g>
</g>
<g>
</g>
<g>
</g>
<g>
</g>
</svg>
