<?xml version="1.0" encoding="iso-8859-1"?>
<!-- Generator: Adobe Illustrator 19.0.0, SVG Export Plug-In . SVG Version: 6.00 Build 0)  -->
<svg version="1.1" id="Layer_1" xmlns="http://www.w3.org/2000/svg" xmlns:xlink="http://www.w3.org/1999/xlink" x="0px" y="0px"
	 viewBox="0 0 512 512" style="enable-background:new 0 0 512 512;" xml:space="preserve">
<rect x="8.608" y="365.302" style="fill:#F9C573;" width="98.077" height="98.088"/>
<g>
	<polyline style="fill:#F94B54;" points="140.842,389.665 140.842,463.381 238.924,463.381 238.924,365.299 140.842,365.299 	"/>
	<rect x="405.309" y="365.302" style="fill:#F94B54;" width="98.088" height="98.088"/>
</g>
<g>
	<rect x="273.079" y="365.302" style="fill:#9BD7F4;" width="98.088" height="98.088"/>
	<rect x="8.608" y="232.888" style="fill:#9BD7F4;" width="230.318" height="98.088"/>
</g>
<polyline style="fill:#F9C573;" points="503.393,232.888 273.077,232.888 273.077,330.971 503.393,330.971 503.393,260.564 "/>
<rect x="8.608" y="48.115" style="fill:#F94B54;" width="494.779" height="150.443"/>
<polygon style="fill:#F98791;" points="503.387,48.115 503.387,198.558 225.557,198.558 267.732,48.115 "/>
<polygon style="fill:#FCD8A9;" points="106.685,365.298 106.685,463.386 49.051,463.386 76.548,365.298 "/>
<polygon style="fill:#F98791;" points="238.924,365.298 238.924,463.386 181.29,463.386 208.788,365.298 "/>
<polygon style="fill:#C8EDFC;" points="371.158,365.298 371.158,463.386 313.524,463.386 341.021,365.298 "/>
<polygon style="fill:#F98791;" points="503.393,365.298 503.393,463.386 445.759,463.386 473.256,365.298 "/>
<polygon style="fill:#C8EDFC;" points="238.927,232.884 238.927,330.972 108.739,330.972 136.248,232.884 "/>
<polygon style="fill:#FCD8A9;" points="503.393,232.884 503.393,330.972 373.205,330.972 400.714,232.884 "/>
<path d="M503.393,207.42c4.755,0,8.607-3.854,8.607-8.607V48.364c0-4.753-3.853-8.607-8.607-8.607H83.756
	c-4.755,0-8.607,3.854-8.607,8.607s3.853,8.607,8.607,8.607h411.028v133.234H17.214V56.971h33.263c4.755,0,8.607-3.854,8.607-8.607
	s-3.853-8.607-8.607-8.607H8.607C3.853,39.757,0,43.611,0,48.364v150.449c0,4.753,3.853,8.607,8.607,8.607h106.552v17.115H8.607
	c-4.755,0-8.607,3.854-8.607,8.607v98.082c0,4.753,3.853,8.607,8.607,8.607h40.433v17.115H8.607C3.853,356.946,0,360.8,0,365.554
	v98.082c0,4.754,3.853,8.607,8.607,8.607h98.082c4.755,0,8.607-3.854,8.607-8.607v-40.433h16.938v40.433
	c0,4.754,3.853,8.607,8.607,8.607h98.082c4.755,0,8.607-3.854,8.607-8.607v-98.082c0-4.753-3.853-8.607-8.607-8.607h-40.433v-17.115
	h40.433c4.755,0,8.607-3.854,8.607-8.607v-98.082c0-4.753-3.853-8.607-8.607-8.607H132.374V207.42h247.254v17.115H273.076
	c-4.755,0-8.607,3.854-8.607,8.607v98.082c0,4.753,3.853,8.607,8.607,8.607h40.433v17.115h-40.433c-4.755,0-8.607,3.854-8.607,8.607
	v98.082c0,4.754,3.853,8.607,8.607,8.607h98.082c4.755,0,8.607-3.854,8.607-8.607v-40.433h16.939v40.433
	c0,4.754,3.853,8.607,8.607,8.607h98.081c4.755,0,8.607-3.854,8.607-8.607v-98.082c0-4.753-3.853-8.607-8.607-8.607h-40.433v-17.115
	h40.433c4.755,0,8.607-3.854,8.607-8.607v-70.407c0-4.753-3.853-8.607-8.607-8.607c-4.755,0-8.607,3.854-8.607,8.607v61.8H281.683
	v-80.868h221.709c4.755,0,8.607-3.854,8.607-8.607c0-4.753-3.853-8.607-8.607-8.607H396.841V207.42H503.393z M98.082,455.028H17.214
	V374.16h80.868V455.028z M181.275,356.945h-40.433c-4.755,0-8.607,3.854-8.607,8.607c0,4.754,3.853,8.607,8.607,8.607h89.475v80.868
	h-80.868v-65.109c0-4.753-3.853-8.607-8.607-8.607c-4.755,0-8.607,3.854-8.607,8.607v16.068h-16.938v-40.433
	c0-4.753-3.853-8.607-8.607-8.607H66.255v-17.115h115.02V356.945z M230.316,322.617H17.214v-80.868h213.102V322.617z
	 M362.551,455.028h-80.868V374.16h80.868V455.028z M494.785,455.028h-80.867V374.16h80.867V455.028z M445.744,356.945h-40.432
	c-4.755,0-8.607,3.854-8.607,8.607v40.433h-16.939v-40.433c0-4.753-3.853-8.607-8.607-8.607h-40.433v-17.115h115.02v17.115H445.744z
	"/>
<g>
</g>
<g>
</g>
<g>
</g>
<g>
</g>
<g>
</g>
<g>
</g>
<g>
</g>
<g>
</g>
<g>
</g>
<g>
</g>
<g>
</g>
<g>
</g>
<g>
</g>
<g>
</g>
<g>
</g>
</svg>
