<?xml version="1.0" encoding="iso-8859-1"?>
<!-- Generator: Adobe Illustrator 19.0.0, SVG Export Plug-In . SVG Version: 6.00 Build 0)  -->
<svg version="1.1" id="Layer_1" xmlns="http://www.w3.org/2000/svg" xmlns:xlink="http://www.w3.org/1999/xlink" x="0px" y="0px"
	 viewBox="0 0 512 512" style="enable-background:new 0 0 512 512;" xml:space="preserve">
<polygon style="fill:#CCCCCC;" points="258.997,470.282 179.748,470.282 186.384,442.642 192.794,415.976 245.962,415.976 
	252.362,442.642 "/>
<polygon style="fill:#999999;" points="252.362,442.642 186.384,442.642 192.794,415.976 218,388.519 245.962,415.976 "/>
<path style="fill:#CCCCCC;" d="M430.706,131.078v256.928c0,15.446-12.523,27.968-27.968,27.968H36.018
	c-15.446,0-27.968-12.523-27.968-27.968V131.078c0-15.446,12.523-27.968,27.968-27.968h366.72
	C418.184,103.11,430.706,115.632,430.706,131.078z"/>
<path style="fill:#E6E6E6;" d="M430.706,131.08v256.928c0,15.446-12.523,27.968-27.968,27.968H178.056l87.721-312.864h136.961
	C418.184,103.111,430.706,115.633,430.706,131.08z"/>
<rect x="8.05" y="141.48" style="fill:#9BD7F4;" width="422.658" height="236.13"/>
<polygon style="fill:#C8EDFC;" points="430.706,141.48 430.706,377.607 188.814,377.607 255.018,141.48 "/>
<path style="fill:#F9C573;" d="M413.368,42.795H237.118c-13.586,0-24.599,11.013-24.599,24.599v136.109
	c0,13.586,11.013,24.599,24.599,24.599h42.351v49.017l49.017-49.017h149.949c13.586,0,24.599-11.013,24.599-24.599V67.395
	c0-13.586-11.013-24.599-24.599-24.599h-37.569"/>
<path d="M8.967,174.627c4.952,0,8.967-4.015,8.967-8.967v-34.443c0-10.41,8.474-18.878,18.889-18.878h147.003
	c4.952,0,8.967-4.015,8.967-8.967c0-4.952-4.015-8.967-8.967-8.967H36.822C16.519,94.407,0,110.919,0,131.217v34.443
	C0,170.612,4.015,174.627,8.967,174.627z"/>
<path d="M429.783,246.897c-4.952,0-8.967,4.015-8.967,8.967l0.006,131.159c0,10.411-8.47,18.881-18.881,18.881H36.82
	c-10.411,0-18.881-8.47-18.881-18.881V195.275c0-4.952-4.015-8.967-8.967-8.967s-8.967,4.015-8.967,8.967v191.747
	c0,20.299,16.515,36.814,36.814,36.814h144.718l-8.676,36.139h-35.174c-4.952,0-8.967,4.015-8.967,8.967s4.015,8.967,8.967,8.967
	h42.242h78.898h42.243c4.952,0,8.967-4.015,8.967-8.967s-4.015-8.967-8.966-8.967h-35.174l-8.676-36.139H401.94
	c20.299,0,36.814-16.515,36.814-36.817l-0.006-131.156C438.75,250.912,434.735,246.897,429.783,246.897z M247.456,459.975h-56.15
	l8.676-36.139h38.798L247.456,459.975z"/>
<path d="M34.832,385.634h369.096c4.952,0,8.966-4.015,8.966-8.967s-4.015-8.967-8.966-8.967H34.832
	c-4.952,0-8.967,4.015-8.967,8.967S29.88,385.634,34.832,385.634z"/>
<path d="M34.838,150.537h148.988c4.952,0,8.967-4.015,8.967-8.967c0-4.952-4.015-8.967-8.967-8.967H34.838
	c-4.952,0-8.967,4.015-8.967,8.967C25.871,146.522,29.886,150.537,34.838,150.537z"/>
<path d="M478.434,34.092h-37.568c-4.952,0-8.967,4.015-8.967,8.967s4.015,8.967,8.967,8.967h37.569
	c8.62,0,15.633,7.013,15.633,15.633v136.109c0,8.62-7.013,15.633-15.633,15.633H328.485c-2.378,0-4.659,0.944-6.34,2.627
	l-33.711,33.711v-27.369c0-4.952-4.015-8.967-8.967-8.967h-42.351c-8.62,0-15.633-7.013-15.633-15.633V67.658
	c0-8.62,7.013-15.633,15.633-15.633h173.262c4.952,0,8.967-4.015,8.967-8.967s-4.015-8.967-8.967-8.967H237.118
	c-18.508,0-33.566,15.058-33.566,33.566v136.109c0,18.508,15.058,33.566,33.566,33.566h33.384v40.05
	c0,3.626,2.184,6.896,5.535,8.284c1.109,0.459,2.274,0.683,3.43,0.683c2.334,0,4.627-0.911,6.342-2.627l46.39-46.39h146.234
	c18.508,0,33.566-15.058,33.566-33.566V67.658C512,49.15,496.943,34.092,478.434,34.092z"/>
<path d="M399.171,103.741v64.046c0,16.593,13.5,30.093,30.093,30.093s30.093-13.5,30.093-30.093v-64.046
	c0-16.593-13.5-30.093-30.093-30.093S399.171,87.149,399.171,103.741z M417.104,103.741c0-6.705,5.455-12.16,12.16-12.16
	s12.16,5.455,12.16,12.16v64.046c0,6.705-5.455,12.16-12.16,12.16s-12.16-5.455-12.16-12.16V103.741z"/>
<path d="M376.498,91.582c4.952,0,8.967-4.015,8.967-8.967s-4.015-8.967-8.967-8.967h-38.231c-4.952,0-8.967,4.015-8.967,8.967
	v106.299c0,4.952,4.015,8.967,8.967,8.967h38.231c4.952,0,8.967-4.015,8.967-8.967s-4.015-8.967-8.967-8.967h-29.264V144.73h17.13
	c4.952,0,8.967-4.015,8.967-8.967s-4.015-8.967-8.967-8.967h-17.13V91.582H376.498z"/>
<path d="M284.277,91.582c5.596,0,10.149,4.553,10.149,10.149c0,4.952,4.015,8.967,8.967,8.967s8.967-4.015,8.967-8.967
	c0-15.485-12.597-28.082-28.082-28.082c-15.485,0-28.082,12.597-28.082,28.082v14.919c0,15.485,12.597,28.082,28.082,28.082
	c5.596,0,10.149,4.553,10.149,10.149v14.919c0,5.596-4.553,10.149-10.149,10.149c-5.596,0-10.149-4.553-10.149-10.149
	c0-4.952-4.015-8.967-8.967-8.967s-8.966,4.015-8.966,8.967c0,15.485,12.597,28.082,28.082,28.082
	c15.485,0,28.082-12.597,28.082-28.082V154.88c0-15.485-12.597-28.082-28.082-28.082c-5.596,0-10.149-4.553-10.149-10.149V101.73
	C274.127,96.134,278.681,91.582,284.277,91.582z"/>
<g>
</g>
<g>
</g>
<g>
</g>
<g>
</g>
<g>
</g>
<g>
</g>
<g>
</g>
<g>
</g>
<g>
</g>
<g>
</g>
<g>
</g>
<g>
</g>
<g>
</g>
<g>
</g>
<g>
</g>
</svg>
