<?xml version="1.0" encoding="iso-8859-1"?>
<!-- Generator: Adobe Illustrator 19.0.0, SVG Export Plug-In . SVG Version: 6.00 Build 0)  -->
<svg version="1.1" id="Layer_1" xmlns="http://www.w3.org/2000/svg" xmlns:xlink="http://www.w3.org/1999/xlink" x="0px" y="0px"
	 viewBox="0 0 511.999 511.999" style="enable-background:new 0 0 511.999 511.999;" xml:space="preserve">
<polygon style="fill:#CCCCCC;" points="302.313,470.314 209.684,470.314 217.44,438.007 224.932,406.839 287.076,406.839 
	294.557,438.007 "/>
<polygon style="fill:#999999;" points="294.557,438.007 217.44,438.007 224.932,406.839 250.142,375.934 287.076,406.839 "/>
<path style="fill:#CCCCCC;" d="M503.012,73.843v300.305c0,18.054-14.637,32.691-32.691,32.691H41.687
	c-18.054,0-32.691-14.637-32.691-32.691V73.843c0-18.054,14.637-32.691,32.691-32.691h428.634
	C488.375,41.153,503.012,55.79,503.012,73.843z"/>
<path style="fill:#E6E6E6;" d="M503.012,73.843v300.305c0,18.054-14.637,32.691-32.691,32.691H207.706L310.237,41.153h160.084
	C488.375,41.153,503.012,55.79,503.012,73.843z"/>
<rect x="8.997" y="85.999" style="fill:#9BD7F4;" width="494.015" height="275.994"/>
<polygon style="fill:#C8EDFC;" points="503.012,85.999 503.012,361.993 220.281,361.993 297.662,85.999 "/>
<path d="M470.317,32.428H41.683C18.7,32.428,0,51.127,0,74.111v40.433c0,4.965,4.025,8.991,8.991,8.991s8.991-4.025,8.991-8.991
	V74.111c0-13.069,10.633-23.701,23.701-23.701h428.634c13.069,0,23.701,10.632,23.701,23.701v267.002
	c0,4.965,4.025,8.991,8.991,8.991s8.991-4.025,8.991-8.991V74.111C512,51.127,493.3,32.428,470.317,32.428z"/>
<path d="M503.009,365.419c-4.965,0-8.991,4.025-8.991,8.991c0,13.069-10.633,23.701-23.701,23.701H41.683
	c-13.068,0.001-23.701-10.632-23.701-23.701V149.309c0-4.965-4.025-8.991-8.991-8.991S0,144.343,0,149.309v225.102
	c0,22.983,18.7,41.683,41.683,41.683h171.839L202.6,461.589h-42.503c-4.965,0-8.991,4.025-8.991,8.991
	c0,4.965,4.025,8.991,8.991,8.991h49.591h92.622h49.591c4.965,0,8.991-4.025,8.991-8.991c0-4.965-4.025-8.991-8.991-8.991h-42.503
	l-10.922-45.496h171.839c22.984,0,41.683-18.698,41.683-41.683C512,369.444,507.975,365.419,503.009,365.419z M290.906,461.589
	h-69.813l10.922-45.496h47.968L290.906,461.589z"/>
<path d="M39.35,371.245h433.302c4.965,0,8.991-4.025,8.991-8.991c0-4.965-4.025-8.991-8.991-8.991H39.35
	c-4.965,0-8.991,4.025-8.991,8.991C30.359,367.219,34.384,371.245,39.35,371.245z"/>
<path d="M481.641,86.266c0-4.965-4.025-8.991-8.991-8.991H39.35c-4.965,0-8.991,4.025-8.991,8.991c0,4.965,4.025,8.991,8.991,8.991
	h433.302C477.616,95.257,481.641,91.231,481.641,86.266z"/>
<path d="M168.097,301.582c4.965,0,8.991-4.026,8.991-8.991v-40.092h11.219c4.965,0,8.991-4.025,8.991-8.991
	s-4.025-8.991-8.991-8.991h-11.219v-78.587c0-3.884-2.495-7.331-6.186-8.541c-3.693-1.212-7.743,0.083-10.046,3.212l-64.481,87.578
	c-2.01,2.731-2.314,6.361-0.784,9.388c1.53,3.027,4.633,4.934,8.023,4.934h55.49v40.092
	C159.106,297.556,163.132,301.582,168.097,301.582z M121.401,234.517l37.705-51.212v51.212H121.401z"/>
<path d="M388.174,301.582c4.965,0,8.991-4.026,8.991-8.991v-40.092h11.219c4.965,0,8.991-4.025,8.991-8.991
	s-4.025-8.991-8.991-8.991h-11.219v-78.587c0-3.884-2.495-7.331-6.186-8.541c-3.695-1.212-7.743,0.083-10.046,3.212l-64.481,87.578
	c-2.01,2.731-2.314,6.361-0.784,9.388s4.633,4.934,8.023,4.934h55.49v40.092C379.183,297.556,383.208,301.582,388.174,301.582z
	 M341.477,234.517l37.705-51.212v51.212H341.477z"/>
<path d="M291.067,241.536c4.965,0,8.991-4.025,8.991-8.991v-41.548c0-24.293-19.764-44.059-44.059-44.059
	c-24.293,0-44.057,19.764-44.057,44.059v66.526c0,24.293,19.764,44.059,44.059,44.059c24.293,0,44.057-19.764,44.057-44.059
	c0-4.965-4.025-8.991-8.991-8.991c-4.965,0-8.991,4.025-8.991,8.991c0,14.378-11.698,26.077-26.077,26.077
	c-14.378,0-26.076-11.698-26.076-26.077v-66.526c0-14.378,11.698-26.077,26.077-26.077c14.378,0,26.076,11.698,26.076,26.077v41.548
	C282.076,237.511,286.102,241.536,291.067,241.536z"/>
<g>
</g>
<g>
</g>
<g>
</g>
<g>
</g>
<g>
</g>
<g>
</g>
<g>
</g>
<g>
</g>
<g>
</g>
<g>
</g>
<g>
</g>
<g>
</g>
<g>
</g>
<g>
</g>
<g>
</g>
</svg>
