<?xml version="1.0" encoding="iso-8859-1"?>
<!-- Generator: Adobe Illustrator 19.0.0, SVG Export Plug-In . SVG Version: 6.00 Build 0)  -->
<svg version="1.1" id="Layer_1" xmlns="http://www.w3.org/2000/svg" xmlns:xlink="http://www.w3.org/1999/xlink" x="0px" y="0px"
	 viewBox="0 0 511.999 511.999" style="enable-background:new 0 0 511.999 511.999;" xml:space="preserve">
<polygon style="fill:#CCCCCC;" points="302.308,470.315 209.679,470.315 217.435,438.008 224.927,406.84 287.072,406.84 
	294.552,438.008 "/>
<polygon style="fill:#999999;" points="294.552,438.008 217.435,438.008 224.927,406.84 254.389,374.748 287.072,406.84 "/>
<path style="fill:#CCCCCC;" d="M503.007,73.843v300.305c0,18.054-14.637,32.691-32.691,32.691H41.683
	c-18.054,0-32.691-14.637-32.691-32.691V73.843c0-18.054,14.637-32.691,32.691-32.691h428.634
	C488.37,41.153,503.007,55.79,503.007,73.843z"/>
<path style="fill:#E6E6E6;" d="M503.007,73.844v300.305c0,18.054-14.637,32.691-32.691,32.691H207.701L310.232,41.154h160.084
	C488.37,41.154,503.007,55.791,503.007,73.844z"/>
<rect x="8.992" y="85.999" style="fill:#9BD7F4;" width="494.015" height="275.994"/>
<polygon style="fill:#C8EDFC;" points="503.007,86 503.007,361.994 220.276,361.994 297.657,86 "/>
<path style="fill:#F94B54;" d="M354.304,224.002c0,54.281-44.019,98.299-98.299,98.299c-8.2,0-16.171-1.007-23.784-2.901
	c-42.808-10.633-74.516-49.318-74.516-95.398c0-54.292,44.007-98.299,98.299-98.299c10.202,0,20.032,1.558,29.286,4.435
	C325.269,142.605,354.304,179.911,354.304,224.002z"/>
<path style="fill:#F98791;" d="M354.304,224.002c0,54.281-44.019,98.299-98.299,98.299c-8.2,0-16.171-1.007-23.784-2.901
	l53.07-189.262C325.269,142.605,354.304,179.911,354.304,224.002z"/>
<path d="M470.317,32.428H41.683C18.7,32.428,0,51.127,0,74.111v40.433c0,4.965,4.025,8.991,8.991,8.991s8.991-4.025,8.991-8.991
	V74.111c0-13.069,10.633-23.701,23.701-23.701h428.634c13.069,0,23.701,10.633,23.701,23.701v267.002
	c0,4.965,4.025,8.991,8.991,8.991s8.991-4.025,8.991-8.991V74.111C512,51.127,493.3,32.428,470.317,32.428z"/>
<path d="M503.009,365.419c-4.965,0-8.991,4.025-8.991,8.991c0,13.069-10.633,23.701-23.701,23.701H41.683
	c-13.068,0.001-23.701-10.632-23.701-23.701V149.309c0-4.965-4.025-8.991-8.991-8.991S0,144.343,0,149.309v225.102
	c0,22.983,18.7,41.683,41.683,41.683h171.839L202.6,461.589h-42.503c-4.965,0-8.991,4.025-8.991,8.991
	c0,4.965,4.025,8.991,8.991,8.991h49.591h92.622h49.591c4.965,0,8.991-4.025,8.991-8.991c0-4.965-4.025-8.991-8.991-8.991h-42.503
	l-10.922-45.496h171.839c22.984,0,41.683-18.7,41.683-41.683C512,369.444,507.975,365.419,503.009,365.419z M290.906,461.589
	h-69.813l10.922-45.496h47.968L290.906,461.589z"/>
<path d="M39.35,371.245h433.302c4.965,0,8.991-4.025,8.991-8.991c0-4.965-4.025-8.991-8.991-8.991H39.35
	c-4.965,0-8.991,4.025-8.991,8.991C30.359,367.219,34.384,371.245,39.35,371.245z"/>
<path d="M481.641,86.266c0-4.965-4.025-8.991-8.991-8.991H39.35c-4.965,0-8.991,4.025-8.991,8.991c0,4.965,4.025,8.991,8.991,8.991
	h433.302C477.616,95.257,481.641,91.231,481.641,86.266z"/>
<path d="M337.874,279.416c4.354,2.394,9.818,0.803,12.21-3.548c8.64-15.72,13.206-33.566,13.206-51.607
	c0-59.161-48.13-107.29-107.29-107.29s-107.29,48.13-107.29,107.29s48.13,107.29,107.29,107.29c24.282,0,48.077-8.341,66.998-23.486
	c3.877-3.102,4.504-8.762,1.401-12.637c-3.102-3.877-8.762-4.504-12.637-1.401c-15.974,12.786-35.256,19.544-55.762,19.544
	c-49.246,0-89.309-40.063-89.309-89.309s40.063-89.309,89.309-89.309s89.309,40.063,89.309,89.309
	c0,15.023-3.798,29.873-10.983,42.946C331.935,271.558,333.523,277.025,337.874,279.416z"/>
<path d="M309.382,170.878c-3.511-3.511-9.204-3.511-12.714,0l-40.667,40.667l-40.667-40.667c-3.511-3.511-9.204-3.511-12.714,0
	c-3.511,3.511-3.511,9.204,0,12.714l40.667,40.667l-40.668,40.668c-3.511,3.511-3.511,9.204,0,12.714
	c1.755,1.755,4.057,2.634,6.357,2.634c2.3,0,4.602-0.878,6.357-2.634l40.667-40.667l40.667,40.667
	c1.755,1.755,4.057,2.634,6.357,2.634s4.602-0.878,6.357-2.634c3.511-3.511,3.511-9.204,0-12.714l-40.667-40.667l40.667-40.667
	C312.893,180.082,312.893,174.389,309.382,170.878z"/>
<g>
</g>
<g>
</g>
<g>
</g>
<g>
</g>
<g>
</g>
<g>
</g>
<g>
</g>
<g>
</g>
<g>
</g>
<g>
</g>
<g>
</g>
<g>
</g>
<g>
</g>
<g>
</g>
<g>
</g>
</svg>
