<?xml version="1.0" encoding="iso-8859-1"?>
<!-- Generator: Adobe Illustrator 19.0.0, SVG Export Plug-In . SVG Version: 6.00 Build 0)  -->
<svg version="1.1" id="Layer_1" xmlns="http://www.w3.org/2000/svg" xmlns:xlink="http://www.w3.org/1999/xlink" x="0px" y="0px"
	 viewBox="0 0 511.999 511.999" style="enable-background:new 0 0 511.999 511.999;" xml:space="preserve">
<polygon style="fill:#CCCCCC;" points="302.313,470.314 209.684,470.314 217.44,438.007 224.932,406.839 287.076,406.839 
	294.557,438.007 "/>
<polygon style="fill:#999999;" points="294.557,438.007 217.44,438.007 224.932,406.839 255.205,386.324 287.076,406.839 "/>
<path style="fill:#CCCCCC;" d="M503.012,73.843v300.305c0,18.054-14.637,32.691-32.691,32.691H41.687
	c-18.054,0-32.691-14.637-32.691-32.691V73.843c0-18.054,14.637-32.691,32.691-32.691h428.634
	C488.375,41.153,503.012,55.79,503.012,73.843z"/>
<path style="fill:#E6E6E6;" d="M503.012,73.843v300.305c0,18.054-14.637,32.691-32.691,32.691H207.706L310.237,41.153h160.084
	C488.375,41.153,503.012,55.79,503.012,73.843z"/>
<rect x="8.997" y="85.999" style="fill:#9BD7F4;" width="494.015" height="275.994"/>
<polygon style="fill:#C8EDFC;" points="503.012,85.999 503.012,361.993 220.281,361.993 297.662,85.999 "/>
<rect x="49.21" y="120.272" style="fill:#F9C573;" width="88.709" height="88.709"/>
<g>
	<rect x="49.21" y="240.149" style="fill:#F94B54;" width="88.709" height="88.709"/>
	<rect x="297.356" y="120.272" style="fill:#F94B54;" width="165.431" height="88.709"/>
</g>
<polyline style="fill:#F2F2F2;" points="441.814,240.15 462.789,240.15 462.789,328.86 297.358,328.86 297.358,240.15 
	411.845,240.15 "/>
<rect x="174.494" y="240.149" style="fill:#F9C573;" width="88.709" height="88.709"/>
<polyline style="fill:#E6E6E6;" points="174.484,149.643 174.484,208.982 263.193,208.982 263.193,120.273 174.484,120.273 "/>
<polygon style="fill:#FCD8A9;" points="263.197,240.149 263.197,328.858 229.571,328.858 254.446,240.149 "/>
<path d="M470.317,32.428H41.683C18.7,32.428,0,51.127,0,74.111v40.433c0,4.965,4.025,8.991,8.991,8.991s8.991-4.025,8.991-8.991
	V74.111c0-13.069,10.633-23.701,23.701-23.701h428.634c13.069,0,23.701,10.632,23.701,23.701v267.002
	c0,4.965,4.025,8.991,8.991,8.991s8.991-4.025,8.991-8.991V74.111C512,51.127,493.3,32.428,470.317,32.428z"/>
<path d="M503.009,365.419c-4.965,0-8.991,4.025-8.991,8.991c0,13.069-10.633,23.701-23.701,23.701H41.683
	c-13.068,0.001-23.701-10.632-23.701-23.701V149.309c0-4.965-4.025-8.991-8.991-8.991S0,144.343,0,149.309v225.102
	c0,22.983,18.7,41.683,41.683,41.683h171.839L202.6,461.589h-42.503c-4.965,0-8.991,4.025-8.991,8.991
	c0,4.965,4.025,8.991,8.991,8.991h191.804c4.965,0,8.991-4.025,8.991-8.991c0-4.965-4.025-8.991-8.991-8.991h-42.503l-10.922-45.496
	h171.839c22.984,0,41.683-18.698,41.683-41.683C512,369.444,507.975,365.419,503.009,365.419z M290.906,461.589h-69.813
	l10.922-45.496h47.968L290.906,461.589z"/>
<path d="M39.35,371.245h433.302c4.965,0,8.991-4.025,8.991-8.991c0-4.965-4.025-8.991-8.991-8.991H39.35
	c-4.965,0-8.991,4.025-8.991,8.991C30.359,367.219,34.384,371.245,39.35,371.245z"/>
<path d="M481.641,86.266c0-4.965-4.025-8.991-8.991-8.991H39.35c-4.965,0-8.991,4.025-8.991,8.991c0,4.965,4.025,8.991,8.991,8.991
	h433.302C477.616,95.257,481.641,91.231,481.641,86.266z"/>
<path d="M146.911,120.538c0-4.965-4.025-8.991-8.991-8.991H49.211c-4.965,0-8.991,4.025-8.991,8.991v88.709
	c0,4.965,4.025,8.991,8.991,8.991h88.709c4.965,0,8.991-4.025,8.991-8.991V120.538z M128.929,200.256H58.202v-70.728h70.728V200.256
	z"/>
<path d="M137.92,231.425H49.211c-4.965,0-8.991,4.025-8.991,8.991v88.709c0,4.965,4.025,8.991,8.991,8.991h88.709
	c4.965,0,8.991-4.025,8.991-8.991v-88.709C146.911,235.449,142.885,231.425,137.92,231.425z M80.851,284.77l-22.65,22.65v-45.298
	L80.851,284.77z M70.917,249.406h45.298l-22.65,22.65L70.917,249.406z M93.566,297.484l22.65,22.65H70.917L93.566,297.484z
	 M106.281,284.77l22.65-22.65v45.298L106.281,284.77z"/>
<path d="M471.779,120.538c0-4.965-4.025-8.991-8.991-8.991H297.357c-4.965,0-8.991,4.025-8.991,8.991v88.709
	c0,4.965,4.025,8.991,8.991,8.991h165.431c4.965,0,8.991-4.025,8.991-8.991V120.538z M361.048,164.893l-54.7,29.332v-58.663
	L361.048,164.893z M333.149,129.529h93.847l-46.924,25.162L333.149,129.529z M380.073,175.094l46.924,25.162h-93.847
	L380.073,175.094z M399.098,164.893l54.7-29.332v58.663L399.098,164.893z"/>
<path d="M411.845,249.406c4.965,0,8.991-4.025,8.991-8.991c0-4.965-4.025-8.991-8.991-8.991H297.358
	c-4.965,0-8.991,4.025-8.991,8.991v88.709c0,4.965,4.025,8.991,8.991,8.991h165.431c4.965,0,8.991-4.025,8.991-8.991v-88.709
	c0-4.965-4.025-8.991-8.991-8.991h-20.974c-4.965,0-8.991,4.025-8.991,8.991c0,4.965,4.025,8.991,8.991,8.991h11.983v70.728H306.349
	v-70.728H411.845z"/>
<path d="M263.192,231.425h-88.709c-4.965,0-8.991,4.025-8.991,8.991v88.709c0,4.965,4.025,8.991,8.991,8.991h88.709
	c4.965,0,8.991-4.025,8.991-8.991v-88.709C272.183,235.449,268.157,231.425,263.192,231.425z M254.201,320.134h-70.728v-70.728
	h70.728V320.134z"/>
<path d="M272.183,120.538c0-4.965-4.025-8.991-8.991-8.991h-88.709c-4.965,0-8.991,4.025-8.991,8.991
	c0,4.965,4.025,8.991,8.991,8.991h79.718v70.728h-70.728v-50.349c0-4.965-4.025-8.991-8.991-8.991c-4.965,0-8.991,4.025-8.991,8.991
	v59.339c0,4.965,4.025,8.991,8.991,8.991h88.709c4.965,0,8.991-4.025,8.991-8.991V120.538z"/>
<g>
</g>
<g>
</g>
<g>
</g>
<g>
</g>
<g>
</g>
<g>
</g>
<g>
</g>
<g>
</g>
<g>
</g>
<g>
</g>
<g>
</g>
<g>
</g>
<g>
</g>
<g>
</g>
<g>
</g>
</svg>
