<?xml version="1.0" encoding="iso-8859-1"?>
<!-- Generator: Adobe Illustrator 19.0.0, SVG Export Plug-In . SVG Version: 6.00 Build 0)  -->
<svg version="1.1" id="Layer_1" xmlns="http://www.w3.org/2000/svg" xmlns:xlink="http://www.w3.org/1999/xlink" x="0px" y="0px"
	 viewBox="0 0 512 512" style="enable-background:new 0 0 512 512;" xml:space="preserve">
<path style="fill:#E6E6E6;" d="M416.071,64.462c3.017,1.071,6.264,1.658,9.65,1.658H86.28c-7.98,0-15.189-3.224-20.417-8.452
	c-4.203-4.203-7.105-9.673-8.084-15.799c-0.242-1.497-0.368-3.04-0.368-4.618c0-15.937,12.92-28.869,28.869-28.869H425.72
	c-7.969,0-15.177,3.236-20.405,8.452c-5.228,5.228-8.452,12.448-8.452,20.417c0,1.578,0.127,3.121,0.368,4.618
	C398.913,52.383,406.282,60.996,416.071,64.462z"/>
<path style="fill:#CCCCCC;" d="M416.071,41.869v24.252H86.28c-7.98,0-15.189-3.224-20.417-8.452
	c-4.203-4.203-7.105-9.673-8.084-15.799C57.779,41.869,416.071,41.869,416.071,41.869z"/>
<path style="fill:#999999;" d="M454.59,37.251v355.309H425.72V162.839v-32.808V66.121c-15.937,0-28.858-12.92-28.858-28.869
	c0-7.969,3.224-15.189,8.452-20.417c5.228-5.217,12.437-8.452,20.405-8.452C441.669,8.382,454.59,21.314,454.59,37.251z"/>
<polygon style="fill:#E6E6E6;" points="425.72,392.561 425.72,503.109 155.787,503.109 122.979,503.109 86.28,503.109 86.28,66.121 
	425.72,66.121 425.72,130.031 425.72,162.839 "/>
<ellipse style="fill:#9BD7F4;" cx="327.833" cy="247.859" rx="52.257" ry="45.048"/>
<ellipse style="fill:#F9C573;" cx="336.251" cy="289.521" rx="43.397" ry="35.859"/>
<ellipse style="fill:#9BD7F4;" cx="243.333" cy="136.47" rx="104.791" ry="22.052"/>
<circle style="fill:#F94B54;" cx="177.706" cy="324.01" r="40.298"/>
<path d="M425.72,0H86.28C65.599,0,48.774,16.825,48.774,37.506c0,10.023,3.9,19.442,10.982,26.525
	c5,4.999,11.168,8.404,17.887,9.979v429.354c0,4.77,3.866,8.637,8.637,8.637h36.7c4.771,0,8.637-3.867,8.637-8.637
	c0-4.77-3.866-8.637-8.637-8.637H94.916V75.012h322.168v55.274c0,4.77,3.866,8.637,8.637,8.637c4.771,0,8.637-3.867,8.637-8.637
	V66.375c0-4.77-3.866-8.637-8.637-8.637c-11.15,0-20.221-9.076-20.221-20.233c0-5.409,2.103-10.491,5.915-14.303
	c3.832-3.823,8.913-5.929,14.306-5.929c11.156,0,20.233,9.076,20.233,20.233v346.673h-11.591V163.099
	c0-4.77-3.866-8.637-8.637-8.637c-4.771,0-8.637,3.867-8.637,8.637v331.628H155.791c-4.771,0-8.637,3.867-8.637,8.637
	c0,4.77,3.866,8.637,8.637,8.637h269.934c4.771,0,8.637-3.867,8.637-8.637V401.452h20.228c4.771,0,8.637-3.867,8.637-8.637V37.506
	C463.226,16.825,446.401,0,425.72,0z M86.28,57.738c-5.409,0-10.491-2.104-14.31-5.922c-3.82-3.82-5.924-8.901-5.924-14.31
	c0-11.156,9.076-20.233,20.233-20.233H394.13c-3.845,5.981-5.905,12.948-5.905,20.233c0,7.448,2.19,14.391,5.949,20.233H86.28z"/>
<path d="M116.595,241.981c0,4.77,3.866,8.637,8.637,8.637h105.361c4.771,0,8.637-3.867,8.637-8.637v-51.817
	c0-4.77-3.866-8.637-8.637-8.637H125.232c-4.771,0-8.637,3.867-8.637,8.637V241.981z M133.868,198.8h88.087v34.544h-88.087V198.8z"
	/>
<path d="M221.957,461.911c0,4.77,3.866,8.637,8.637,8.637s8.637-3.867,8.637-8.637v-51.817c0-4.77-3.866-8.637-8.637-8.637H125.233
	c-4.771,0-8.637,3.867-8.637,8.637v51.817c0,4.77,3.866,8.637,8.637,8.637c4.771,0,8.637-3.867,8.637-8.637v-43.181h88.087V461.911z
	"/>
<path d="M395.409,190.164c0-4.77-3.866-8.637-8.637-8.637h-88.774c-4.771,0-8.637,3.867-8.637,8.637s3.866,8.637,8.637,8.637h80.137
	v38.853l-13.384-17.601c-1.634-2.15-4.178-3.409-6.875-3.409c-0.032,0-0.068,0-0.101,0c-2.733,0.032-5.29,1.357-6.893,3.57
	l-23.924,33.033l-6.229-12.757c-1.388-2.844-4.22-4.701-7.381-4.839c-3.154-0.131-6.146,1.464-7.779,4.174l-32.946,54.725V190.164
	c0-4.77-3.866-8.637-8.637-8.637c-4.771,0-8.637,3.867-8.637,8.637v135.477c0,4.77,3.866,8.637,8.637,8.637h122.786
	c4.771,0,8.637-3.867,8.637-8.637V190.164z M312.176,262.34l26.692,54.665h-59.602L312.176,262.34z M358.09,317.005l-22.543-46.169
	l22.499-31.065l20.09,26.419v50.815H358.09z"/>
<path d="M386.773,352.147H263.987c-4.771,0-8.637,3.867-8.637,8.637c0,4.77,3.866,8.637,8.637,8.637h122.786
	c4.771,0,8.637-3.867,8.637-8.637C395.409,356.014,391.543,352.147,386.773,352.147z"/>
<path d="M386.773,446.365H263.987c-4.771,0-8.637,3.867-8.637,8.637c0,4.77,3.866,8.637,8.637,8.637h122.786
	c4.771,0,8.637-3.867,8.637-8.637C395.409,450.232,391.543,446.365,386.773,446.365z"/>
<path d="M386.773,414.959H263.987c-4.771,0-8.637,3.867-8.637,8.637c0,4.77,3.866,8.637,8.637,8.637h122.786
	c4.771,0,8.637-3.867,8.637-8.637C395.409,418.826,391.543,414.959,386.773,414.959z"/>
<path d="M386.773,383.553H263.987c-4.771,0-8.637,3.867-8.637,8.637c0,4.77,3.866,8.637,8.637,8.637h122.786
	c4.771,0,8.637-3.867,8.637-8.637C395.409,387.42,391.543,383.553,386.773,383.553z"/>
<path d="M395.409,106.967c0-4.77-3.866-8.637-8.637-8.637H125.232c-4.771,0-8.637,3.867-8.637,8.637v51.817
	c0,4.77,3.866,8.637,8.637,8.637h30.56c4.771,0,8.637-3.867,8.637-8.637s-3.866-8.637-8.637-8.637h-21.923v-34.544h244.267v34.544
	H187.457c-4.771,0-8.637,3.867-8.637,8.637s3.866,8.637,8.637,8.637h199.316c4.771,0,8.637-3.867,8.637-8.637V106.967z"/>
<path d="M116.595,376.745c0,4.77,3.866,8.637,8.637,8.637h105.361c4.771,0,8.637-3.867,8.637-8.637V271.384
	c0-4.77-3.866-8.637-8.637-8.637H125.232c-4.771,0-8.637,3.867-8.637,8.637V376.745z M190.127,324.064l31.83-31.83v63.66
	L190.127,324.064z M209.742,368.109h-63.659l31.83-31.83L209.742,368.109z M177.913,311.85l-31.83-31.83h63.659L177.913,311.85z
	 M165.698,324.064l-31.83,31.83v-63.66L165.698,324.064z"/>
<g>
</g>
<g>
</g>
<g>
</g>
<g>
</g>
<g>
</g>
<g>
</g>
<g>
</g>
<g>
</g>
<g>
</g>
<g>
</g>
<g>
</g>
<g>
</g>
<g>
</g>
<g>
</g>
<g>
</g>
</svg>
