<?xml version="1.0" encoding="iso-8859-1"?>
<!-- Generator: Adobe Illustrator 19.0.0, SVG Export Plug-In . SVG Version: 6.00 Build 0)  -->
<svg version="1.1" id="Layer_1" xmlns="http://www.w3.org/2000/svg" xmlns:xlink="http://www.w3.org/1999/xlink" x="0px" y="0px"
	 viewBox="0 0 512 512" style="enable-background:new 0 0 512 512;" xml:space="preserve">
<polygon style="fill:#CCCCCC;" points="260.56,466.543 181.077,466.543 187.733,438.82 194.161,412.075 247.485,412.075 
	253.905,438.82 "/>
<polygon style="fill:#999999;" points="253.905,438.82 187.733,438.82 194.161,412.075 219.442,384.538 247.485,412.075 "/>
<path style="fill:#CCCCCC;" d="M432.775,126.339v257.685c0,15.492-12.56,28.051-28.051,28.051h-367.8
	c-15.492,0-28.051-12.56-28.051-28.051V126.339c0-15.492,12.56-28.051,28.051-28.051h367.8
	C420.215,98.288,432.775,110.848,432.775,126.339z"/>
<path style="fill:#E6E6E6;" d="M432.775,126.34v257.685c0,15.492-12.56,28.051-28.051,28.051H179.38l87.98-313.786h137.364
	C420.216,98.289,432.775,110.849,432.775,126.34z"/>
<rect x="8.872" y="136.765" style="fill:#9BD7F4;" width="423.903" height="236.826"/>
<polygon style="fill:#C8EDFC;" points="432.775,136.771 432.775,373.594 190.171,373.594 256.57,136.771 "/>
<path style="fill:#666666;" d="M503.008,64.411v212.821c0,10.636-8.621,19.245-19.245,19.245H378.366
	c-10.636,0-19.245-8.609-19.245-19.245V64.411c0-10.636,8.609-19.245,19.245-19.245h105.397
	C494.387,45.166,503.008,53.775,503.008,64.411z"/>
<path style="fill:#999999;" d="M503.008,64.411v212.821c0,10.636-8.621,19.245-19.245,19.245h-91.188l70.457-251.31h20.732
	C494.387,45.166,503.008,53.775,503.008,64.411z"/>
<rect x="359.118" y="93.838" style="fill:#F9C573;" width="143.887" height="153.971"/>
<polygon style="fill:#FCD8A9;" points="503.008,93.836 503.008,247.807 406.22,247.807 449.386,93.836 "/>
<path d="M8.993,171.389c4.966,0,8.993-4.026,8.993-8.993v-34.533c0-10.446,8.499-18.945,18.945-18.945h294.612
	c4.968,0,8.993-4.026,8.993-8.993c0-4.966-4.025-8.993-8.993-8.993H36.931C16.567,90.932,0,107.499,0,127.863v34.533
	C0,167.362,4.026,171.389,8.993,171.389z"/>
<path d="M431.05,313.876c-4.968,0-8.993,4.026-8.993,8.993v61.539c0,10.441-8.495,18.937-18.938,18.937H36.923
	c-10.441,0-18.937-8.495-18.937-18.937V192.096c0-4.966-4.026-8.993-8.993-8.993S0,187.13,0,192.096v192.312
	c0,20.359,16.564,36.923,36.923,36.923h145.145l-8.702,36.245h-35.277c-4.966,0-8.993,4.026-8.993,8.993s4.026,8.993,8.993,8.993
	h42.366h79.131h42.366c4.968,0,8.993-4.026,8.993-8.993s-4.025-8.993-8.993-8.993h-35.276l-8.702-36.245h145.145
	c20.359,0,36.924-16.564,36.924-36.923v-61.539C440.043,317.903,436.017,313.876,431.05,313.876z M248.18,457.577h-56.316
	l8.702-36.245h38.913L248.18,457.577z"/>
<path d="M34.93,383.016h370.184c4.968,0,8.993-4.026,8.993-8.993s-4.025-8.993-8.993-8.993H34.93c-4.966,0-8.993,4.026-8.993,8.993
	S29.963,383.016,34.93,383.016z"/>
<path d="M340.536,138.235c0-4.966-4.025-8.993-8.993-8.993H34.941c-4.966,0-8.993,4.026-8.993,8.993
	c0,4.967,4.026,8.993,8.993,8.993h296.602C336.511,147.228,340.536,143.201,340.536,138.235z"/>
<path d="M333.103,194.346l-22.336-22.335c-3.513-3.512-9.206-3.512-12.718,0c-3.512,3.512-3.512,9.206,0,12.718l6.983,6.983h-78.471
	c-4.967,0-8.993,4.026-8.993,8.993s4.026,8.993,8.993,8.993h78.471l-6.983,6.983c-3.512,3.512-3.512,9.206,0,12.718
	c1.757,1.757,4.058,2.634,6.36,2.634c2.301,0,4.603-0.878,6.36-2.634l22.336-22.335c1.686-1.687,2.633-3.974,2.633-6.359
	C335.737,198.322,334.789,196.033,333.103,194.346z"/>
<path d="M335.736,264.256c0-4.966-4.025-8.993-8.993-8.993h-78.472l6.983-6.983c3.512-3.512,3.512-9.205,0-12.717
	c-3.512-3.512-9.206-3.512-12.717,0l-22.335,22.335c-3.512,3.512-3.512,9.205,0,12.717l22.335,22.335
	c1.755,1.757,4.058,2.634,6.359,2.634s4.603-0.878,6.359-2.634c3.512-3.512,3.512-9.205,0-12.717l-6.983-6.983h78.472
	C331.711,273.248,335.736,269.222,335.736,264.256z"/>
<path d="M477.324,85.112h-92.528c-4.968,0-8.993,4.026-8.993,8.993c0,4.966,4.025,8.993,8.993,8.993h92.528
	c4.968,0,8.993-4.026,8.993-8.993C486.317,89.138,482.292,85.112,477.324,85.112z"/>
<path d="M486.317,248.068c0-4.966-4.025-8.993-8.993-8.993h-92.528c-4.968,0-8.993,4.026-8.993,8.993s4.025,8.993,8.993,8.993
	h92.528C482.292,257.061,486.317,253.035,486.317,248.068z"/>
<circle cx="431.061" cy="272.246" r="8.993"/>
<path d="M503.007,211.823c4.968,0,8.993-4.026,8.993-8.993V64.677c0-15.571-12.667-28.239-28.239-28.239H378.366
	c-15.571,0-28.239,12.668-28.239,28.239v212.827c0,15.571,12.667,28.239,28.239,28.239h105.395
	c15.571,0,28.239-12.668,28.239-28.239V229.81c0-4.966-4.025-8.993-8.993-8.993c-4.968,0-8.993,4.026-8.993,8.993v47.694
	c0,5.654-4.6,10.253-10.253,10.253H378.366c-5.654,0-10.253-4.6-10.253-10.253V64.677c0-5.654,4.6-10.253,10.253-10.253h105.395
	c5.654,0,10.253,4.6,10.253,10.253v138.154C494.014,207.797,498.041,211.823,503.007,211.823z"/>
<g>
</g>
<g>
</g>
<g>
</g>
<g>
</g>
<g>
</g>
<g>
</g>
<g>
</g>
<g>
</g>
<g>
</g>
<g>
</g>
<g>
</g>
<g>
</g>
<g>
</g>
<g>
</g>
<g>
</g>
</svg>
