<?xml version="1.0" encoding="iso-8859-1"?>
<!-- Generator: Adobe Illustrator 19.0.0, SVG Export Plug-In . SVG Version: 6.00 Build 0)  -->
<svg version="1.1" id="Layer_1" xmlns="http://www.w3.org/2000/svg" xmlns:xlink="http://www.w3.org/1999/xlink" x="0px" y="0px"
	 viewBox="0 0 511.999 511.999" style="enable-background:new 0 0 511.999 511.999;" xml:space="preserve">
<polygon style="fill:#CCCCCC;" points="302.308,470.313 209.679,470.313 217.435,438.006 224.927,406.838 287.072,406.838 
	294.552,438.006 "/>
<polygon style="fill:#999999;" points="294.552,438.006 217.435,438.006 224.927,406.838 254.389,374.746 287.072,406.838 "/>
<path style="fill:#CCCCCC;" d="M503.007,73.841v300.305c0,18.054-14.637,32.691-32.691,32.691H41.683
	c-18.054,0-32.691-14.637-32.691-32.691V73.841c0-18.054,14.637-32.691,32.691-32.691h428.634
	C488.37,41.151,503.007,55.788,503.007,73.841z"/>
<path style="fill:#E6E6E6;" d="M503.007,73.843v300.305c0,18.054-14.637,32.691-32.691,32.691H207.701L310.232,41.152h160.084
	C488.37,41.152,503.007,55.789,503.007,73.843z"/>
<rect x="8.992" y="85.999" style="fill:#9BD7F4;" width="494.015" height="275.994"/>
<polygon style="fill:#C8EDFC;" points="503.007,85.998 503.007,361.992 220.276,361.992 297.657,85.998 "/>
<path style="fill:#E6E6E6;" d="M410.73,244.453c0,38.349-31.096,69.445-69.457,69.445H156.278c-30.377,0-55-24.623-55-55
	c0-30.377,24.623-55,55-55c4.663,0,9.195,0.587,13.522,1.69c8.499-40.83,44.666-71.495,88.014-71.495
	c8.799,0,17.31,1.271,25.342,3.632c20.955,6.15,38.744,19.744,50.301,37.725c2.565-0.288,5.179-0.456,7.816-0.456
	C379.634,174.996,410.73,206.093,410.73,244.453z"/>
<path style="fill:#FFFFFF;" d="M410.73,244.453c0,38.349-31.096,69.445-69.457,69.445H233.767l49.389-176.172
	c20.955,6.15,38.744,19.744,50.301,37.725c2.565-0.288,5.179-0.456,7.816-0.456C379.634,174.996,410.73,206.093,410.73,244.453z"/>
<path d="M470.316,32.427H41.683C18.7,32.427,0,51.127,0,74.111v40.433c0,4.965,4.024,8.991,8.991,8.991s8.991-4.025,8.991-8.991
	V74.111c0-13.069,10.632-23.701,23.701-23.701h428.634c13.069,0,23.701,10.633,23.701,23.701v267.002
	c0,4.965,4.024,8.991,8.991,8.991s8.991-4.025,8.991-8.991V74.111C512,51.127,493.3,32.427,470.316,32.427z"/>
<path d="M503.009,365.419c-4.967,0-8.991,4.025-8.991,8.991c0,13.069-10.632,23.701-23.701,23.701H41.683
	c-13.069,0.001-23.701-10.632-23.701-23.701V149.308c0-4.965-4.024-8.991-8.991-8.991S0,144.343,0,149.308V374.41
	c0,22.984,18.7,41.684,41.683,41.684h171.839l-10.923,45.496h-42.501c-4.967,0-8.991,4.025-8.991,8.991s4.024,8.991,8.991,8.991
	h49.59h92.623h49.591c4.967,0,8.991-4.025,8.991-8.991s-4.024-8.991-8.991-8.991h-42.503l-10.922-45.496h171.839
	c22.984,0,41.683-18.7,41.683-41.683C512,369.445,507.975,365.419,503.009,365.419z M290.906,461.589h-69.813l10.923-45.496h47.968
	L290.906,461.589z"/>
<path d="M39.35,371.245H472.65c4.967,0,8.991-4.025,8.991-8.991c0-4.965-4.024-8.991-8.991-8.991H39.35
	c-4.967,0-8.991,4.025-8.991,8.991C30.359,367.22,34.384,371.245,39.35,371.245z"/>
<path d="M481.641,86.267c0-4.965-4.024-8.991-8.991-8.991H39.35c-4.967,0-8.991,4.025-8.991,8.991c0,4.965,4.024,8.991,8.991,8.991
	H472.65C477.617,95.258,481.641,91.232,481.641,86.267z"/>
<path d="M384.026,300.181c3.511,3.511,9.204,3.512,12.714,0c14.817-14.816,22.977-34.514,22.977-55.466
	c0-43.254-35.189-78.443-78.443-78.443c-1.093,0-2.202,0.025-3.323,0.074c-18.606-25.759-48.175-40.981-80.143-40.981
	c-43.671,0-82.166,29.034-94.65,70.18c-2.284-0.246-4.582-0.369-6.883-0.369c-35.285,0-63.991,28.706-63.991,63.989
	s28.706,63.989,63.991,63.989h185.001c8.767,0,17.375-1.437,25.591-4.271c4.694-1.62,7.185-6.738,5.567-11.432
	c-1.62-4.693-6.734-7.187-11.432-5.567c-6.324,2.182-12.961,3.288-19.726,3.288H156.273c-25.37,0-46.009-20.639-46.009-46.008
	c0-25.37,20.639-46.008,46.009-46.008c3.822,0,7.63,0.474,11.318,1.406c2.377,0.601,4.896,0.207,6.972-1.093
	c2.077-1.299,3.535-3.391,4.035-5.79c7.761-37.277,41.072-64.333,79.208-64.333c27.645,0,53.099,13.917,68.089,37.228
	c1.849,2.875,5.17,4.45,8.563,4.072c2.334-0.261,4.627-0.394,6.816-0.394c33.339,0,60.461,27.122,60.461,60.461
	c0,16.149-6.289,31.331-17.708,42.752C380.515,290.977,380.515,296.67,384.026,300.181z"/>
<path d="M256.001,184.714c-4.967,0-8.991,4.025-8.991,8.991v60.394l-13.798-13.798c-3.511-3.511-9.203-3.511-12.715,0
	c-3.511,3.511-3.511,9.204,0,12.714l29.146,29.147c1.687,1.687,3.973,2.634,6.358,2.634c2.386,0,4.67-0.947,6.358-2.634
	l29.146-29.147c3.511-3.511,3.511-9.204,0-12.714c-3.512-3.511-9.204-3.511-12.715,0l-13.798,13.798v-60.394
	C264.991,188.739,260.966,184.714,256.001,184.714z"/>
<g>
</g>
<g>
</g>
<g>
</g>
<g>
</g>
<g>
</g>
<g>
</g>
<g>
</g>
<g>
</g>
<g>
</g>
<g>
</g>
<g>
</g>
<g>
</g>
<g>
</g>
<g>
</g>
<g>
</g>
</svg>
