<?xml version="1.0" encoding="iso-8859-1"?>
<!-- Generator: Adobe Illustrator 19.0.0, SVG Export Plug-In . SVG Version: 6.00 Build 0)  -->
<svg version="1.1" id="Layer_1" xmlns="http://www.w3.org/2000/svg" xmlns:xlink="http://www.w3.org/1999/xlink" x="0px" y="0px"
	 viewBox="0 0 511.999 511.999" style="enable-background:new 0 0 511.999 511.999;" xml:space="preserve">
<polygon style="fill:#CCCCCC;" points="292.53,503.013 220.159,503.013 226.219,477.771 232.072,453.42 280.625,453.42 
	286.47,477.771 "/>
<polygon style="fill:#999999;" points="286.47,477.771 226.219,477.771 232.072,453.42 255.091,428.346 280.625,453.42 "/>
<path style="fill:#CCCCCC;" d="M449.337,193.248v234.629c0,14.106-11.436,25.541-25.541,25.541H88.903
	c-14.106,0-25.541-11.436-25.541-25.541V193.248c0-14.106,11.436-25.541,25.541-25.541h334.893
	C437.901,167.707,449.337,179.144,449.337,193.248z"/>
<path style="fill:#E6E6E6;" d="M449.337,193.249v234.629c0,14.106-11.436,25.541-25.541,25.541H218.614l80.108-285.712h125.075
	C437.901,167.708,449.337,179.145,449.337,193.249z"/>
<rect x="63.361" y="202.749" style="fill:#9BD7F4;" width="385.976" height="215.633"/>
<polygon style="fill:#C8EDFC;" points="449.337,202.746 449.337,418.381 228.438,418.381 288.896,202.746 "/>
<polyline style="fill:#E6E6E6;" points="388.858,418.307 388.858,8.373 123.141,8.373 123.141,418.307 "/>
<polyline style="fill:#F94B54;" points="151.897,390.646 151.897,334.324 238.99,334.324 238.99,390.646 "/>
<polyline style="fill:#F9C573;" points="273.015,392.947 273.015,241.36 360.1,241.36 360.1,392.947 "/>
<rect x="151.903" y="113.528" style="fill:#999999;" width="87.081" height="31.335"/>
<rect x="151.903" y="175.704" style="fill:#9BD7F4;" width="87.081" height="126.745"/>
<rect x="273.011" y="113.528" style="fill:#F94B54;" width="87.081" height="95.283"/>
<rect x="151.903" y="37.133" style="fill:#F9C573;" width="208.201" height="45.435"/>
<path d="M62.607,233.244c4.766,0,8.628-3.863,8.628-8.628v-31.658c0-9.356,7.612-16.968,16.968-16.968h11.353
	c4.766,0,8.628-3.863,8.628-8.628c0-4.765-3.862-8.628-8.628-8.628H88.202c-18.87,0-34.223,15.353-34.223,34.223v31.658
	C53.979,229.382,57.842,233.244,62.607,233.244z"/>
<path d="M413.792,175.992h10c9.356,0,16.968,7.612,16.968,16.968v209.053c0,4.765,3.862,8.628,8.628,8.628s8.628-3.863,8.628-8.628
	V192.959c0-18.87-15.353-34.223-34.223-34.223h-10c-4.766,0-8.628,3.863-8.628,8.628S409.027,175.992,413.792,175.992z"/>
<path d="M449.392,419.45c-4.766,0-8.628,3.863-8.628,8.628c0,9.356-7.612,16.968-16.969,16.968H88.203
	c-9.357,0-16.969-7.612-16.969-16.968v-176.24c0-4.765-3.862-8.628-8.628-8.628s-8.628,3.863-8.628,8.628v176.24
	c0,18.87,15.354,34.223,34.224,34.223h132.525l-7.789,32.443h-32.025c-4.766,0-8.628,3.863-8.628,8.628s3.862,8.628,8.628,8.628
	h38.827h72.517h38.826c4.766,0,8.628-3.863,8.628-8.628s-3.862-8.628-8.628-8.628H299.06l-7.788-32.443h132.523
	c18.87,0,34.224-15.353,34.224-34.223C458.019,423.313,454.156,419.45,449.392,419.45z M281.313,494.745h-50.629l7.789-32.443
	h35.051L281.313,494.745z"/>
<path d="M77.749,418.561c0,4.765,3.862,8.628,8.628,8.628h339.245c4.766,0,8.628-3.863,8.628-8.628s-3.862-8.628-8.628-8.628H86.377
	C81.612,409.933,77.749,413.796,77.749,418.561z"/>
<path d="M123.141,399.976c4.766,0,8.628-3.863,8.628-8.628V17.255h248.461v374.093c0,4.765,3.862,8.628,8.628,8.628
	s8.628-3.863,8.628-8.628V8.628c0-4.765-3.862-8.628-8.628-8.628H123.141c-4.766,0-8.628,3.863-8.628,8.628v382.721
	C114.513,396.113,118.376,399.976,123.141,399.976z"/>
<path d="M143.272,145.111c0,4.765,3.862,8.628,8.628,8.628h87.085c4.766,0,8.628-3.863,8.628-8.628v-31.332
	c0-4.765-3.862-8.628-8.628-8.628h-87.085c-4.766,0-8.628,3.863-8.628,8.628V145.111z M160.527,122.406h69.83v14.077h-69.83V122.406
	z"/>
<path d="M143.272,302.708c0,4.765,3.862,8.628,8.628,8.628h87.085c4.766,0,8.628-3.863,8.628-8.628V175.959
	c0-4.765-3.862-8.628-8.628-8.628h-87.085c-4.766,0-8.628,3.863-8.628,8.628V302.708z M160.527,184.587h69.83v109.494h-69.83
	V184.587z"/>
<path d="M143.268,391.348c0,4.765,3.862,8.628,8.628,8.628s8.628-3.863,8.628-8.628v-48.142h69.838v48.142
	c0,4.765,3.862,8.628,8.628,8.628c4.766,0,8.628-3.863,8.628-8.628v-56.77c0-4.765-3.862-8.628-8.628-8.628h-87.093
	c-4.766,0-8.628,3.863-8.628,8.628C143.268,334.578,143.268,391.348,143.268,391.348z"/>
<path d="M368.727,113.779c0-4.765-3.862-8.628-8.628-8.628h-87.084c-4.766,0-8.628,3.863-8.628,8.628v95.284
	c0,4.765,3.862,8.628,8.628,8.628H360.1c4.766,0,8.628-3.863,8.628-8.628V113.779z M351.472,200.435h-69.828v-78.029h69.828V200.435
	z"/>
<path d="M360.1,399.971c4.766,0,8.628-3.863,8.628-8.628v-149.73c0-4.765-3.862-8.628-8.628-8.628h-87.084
	c-4.766,0-8.628,3.863-8.628,8.628v149.73c0,4.765,3.862,8.628,8.628,8.628s8.628-3.863,8.628-8.628V250.241h69.828v141.103
	C351.472,396.108,355.334,399.971,360.1,399.971z"/>
<path d="M368.727,37.386c0-4.765-3.862-8.628-8.628-8.628h-208.2c-4.766,0-8.628,3.863-8.628,8.628v45.435
	c0,4.765,3.862,8.628,8.628,8.628h208.199c4.766,0,8.628-3.863,8.628-8.628V37.386H368.727z M351.472,74.194H160.527v-28.18h190.944
	v28.18H351.472z"/>
<g>
</g>
<g>
</g>
<g>
</g>
<g>
</g>
<g>
</g>
<g>
</g>
<g>
</g>
<g>
</g>
<g>
</g>
<g>
</g>
<g>
</g>
<g>
</g>
<g>
</g>
<g>
</g>
<g>
</g>
</svg>
