<?xml version="1.0" encoding="iso-8859-1"?>
<!-- Generator: Adobe Illustrator 19.0.0, SVG Export Plug-In . SVG Version: 6.00 Build 0)  -->
<svg version="1.1" id="Layer_1" xmlns="http://www.w3.org/2000/svg" xmlns:xlink="http://www.w3.org/1999/xlink" x="0px" y="0px"
	 viewBox="0 0 512 512" style="enable-background:new 0 0 512 512;" xml:space="preserve">
<polygon style="fill:#CCCCCC;" points="303.995,473.732 207.993,473.732 216.031,440.249 223.797,407.946 288.203,407.946 
	295.956,440.249 "/>
<polygon style="fill:#999999;" points="295.956,440.249 216.031,440.249 223.797,407.946 249.925,375.918 288.203,407.946 "/>
<path style="fill:#CCCCCC;" d="M512,62.829v311.238c0,18.711-15.17,33.881-33.881,33.881H33.881C15.17,407.946,0,392.778,0,374.067
	V62.829c0-18.711,15.17-33.881,33.881-33.881h444.239C496.83,28.947,512,44.118,512,62.829z"/>
<path style="fill:#E6E6E6;" d="M512,62.829v311.238c0,18.711-15.17,33.881-33.881,33.881H205.943L312.207,28.948h165.912
	C496.83,28.947,512,44.118,512,62.829z"/>
<rect y="75.427" style="fill:#9BD7F4;" width="512" height="286.042"/>
<polygon style="fill:#C8EDFC;" points="512,75.427 512,361.469 218.976,361.469 299.174,75.427 "/>
<rect x="177.715" y="464.415" style="fill:#E6E6E6;" width="156.557" height="18.636"/>
<g>
	<rect y="69.836" style="fill:#B3B3B3;" width="512" height="11.182"/>
	<rect y="356.835" style="fill:#B3B3B3;" width="512" height="11.182"/>
</g>
<polygon style="fill:#F94B54;" points="180.697,180.411 157.837,254.161 137.685,254.161 112.923,205.856 88.162,254.161 
	68.01,254.161 45.149,180.411 64.668,180.411 79.875,229.487 105.021,180.411 120.825,180.411 145.984,229.487 161.191,180.411 "/>
<polygon style="fill:#F98791;" points="466.838,180.411 443.978,254.161 423.826,254.161 399.064,205.856 374.303,254.161 
	354.151,254.161 331.29,180.411 350.809,180.411 366.016,229.487 391.163,180.411 406.966,180.411 432.125,229.487 447.332,180.411 
	"/>
<polygon style="fill:#F94B54;" points="323.774,180.411 300.913,254.161 280.761,254.161 260.274,214.18 256,205.856 
	231.226,254.161 211.074,254.161 188.226,180.411 207.732,180.411 222.939,229.487 248.098,180.411 263.902,180.411 
	267.679,187.779 289.048,229.487 304.255,180.411 "/>
<polygon style="fill:#F98791;" points="304.255,180.411 323.774,180.411 300.913,254.161 280.761,254.161 260.274,214.18 
	267.679,187.779 289.048,229.487 "/>
<g>
</g>
<g>
</g>
<g>
</g>
<g>
</g>
<g>
</g>
<g>
</g>
<g>
</g>
<g>
</g>
<g>
</g>
<g>
</g>
<g>
</g>
<g>
</g>
<g>
</g>
<g>
</g>
<g>
</g>
</svg>
