<?xml version="1.0" encoding="iso-8859-1"?>
<!-- Generator: Adobe Illustrator 19.0.0, SVG Export Plug-In . SVG Version: 6.00 Build 0)  -->
<svg version="1.1" id="Layer_1" xmlns="http://www.w3.org/2000/svg" xmlns:xlink="http://www.w3.org/1999/xlink" x="0px" y="0px"
	 viewBox="0 0 512 512" style="enable-background:new 0 0 512 512;" xml:space="preserve">
<polygon style="fill:#CCCCCC;" points="303.995,473.732 207.993,473.732 216.031,440.249 223.797,407.946 288.203,407.946 
	295.956,440.249 "/>
<polygon style="fill:#999999;" points="295.956,440.249 216.031,440.249 223.797,407.946 249.925,375.918 288.203,407.946 "/>
<path style="fill:#CCCCCC;" d="M512,62.829v311.238c0,18.711-15.17,33.881-33.881,33.881H33.881C15.17,407.946,0,392.778,0,374.067
	V62.829c0-18.711,15.17-33.881,33.881-33.881h444.239C496.83,28.947,512,44.118,512,62.829z"/>
<path style="fill:#E6E6E6;" d="M512,62.829v311.238c0,18.711-15.17,33.881-33.881,33.881H205.943L312.207,28.948h165.912
	C496.83,28.947,512,44.118,512,62.829z"/>
<rect y="75.427" style="fill:#9BD7F4;" width="512" height="286.042"/>
<polygon style="fill:#C8EDFC;" points="512,75.427 512,361.469 218.976,361.469 299.174,75.427 "/>
<rect x="177.715" y="464.415" style="fill:#E6E6E6;" width="156.557" height="18.636"/>
<g>
	<rect y="69.836" style="fill:#B3B3B3;" width="512" height="11.182"/>
	<rect y="356.835" style="fill:#B3B3B3;" width="512" height="11.182"/>
</g>
<g>
	<rect x="98.213" y="222.07" style="fill:#F94B54;" width="52.803" height="36.726"/>
	<rect x="98.213" y="289.098" style="fill:#F94B54;" width="52.803" height="36.726"/>
	<rect x="185.791" y="289.098" style="fill:#F94B54;" width="52.815" height="36.726"/>
	<rect x="185.791" y="222.07" style="fill:#F94B54;" width="52.815" height="36.726"/>
</g>
<g>
	<rect x="273.381" y="222.07" style="fill:#F98791;" width="52.815" height="36.726"/>
	<rect x="273.381" y="289.098" style="fill:#F98791;" width="52.815" height="36.726"/>
	<rect x="360.972" y="289.098" style="fill:#F98791;" width="52.815" height="36.726"/>
	<rect x="360.972" y="222.07" style="fill:#F98791;" width="52.815" height="36.726"/>
</g>
<rect x="98.213" y="111.991" style="fill:#F9C573;" width="315.574" height="78.272"/>
<polygon style="fill:#FCD8A9;" points="413.787,111.991 413.787,190.264 266.983,190.264 288.924,111.991 "/>
<path style="fill:#F94B54;" d="M98.213,111.991v78.272h315.574v-78.272H98.213z M402.605,179.082h-293.21v-55.909h293.21V179.082z"
	/>
<g>
	<circle style="fill:#4D4D4D;" cx="136.728" cy="151.128" r="9.318"/>
	<circle style="fill:#4D4D4D;" cx="200.402" cy="151.128" r="9.318"/>
	<circle style="fill:#4D4D4D;" cx="264.076" cy="151.128" r="9.318"/>
	<circle style="fill:#4D4D4D;" cx="232.245" cy="151.128" r="9.318"/>
	<circle style="fill:#4D4D4D;" cx="168.571" cy="151.128" r="9.318"/>
</g>
<polygon style="fill:#F98791;" points="413.787,111.991 413.787,190.264 266.983,190.264 270.114,179.082 402.605,179.082 
	402.605,123.173 285.793,123.173 288.924,111.991 "/>
<g>
</g>
<g>
</g>
<g>
</g>
<g>
</g>
<g>
</g>
<g>
</g>
<g>
</g>
<g>
</g>
<g>
</g>
<g>
</g>
<g>
</g>
<g>
</g>
<g>
</g>
<g>
</g>
<g>
</g>
</svg>
