<svg xmlns="http://www.w3.org/2000/svg" style="display: none;"><symbol id="monitor-2" viewBox="0 0 511.999 511.999"><title>monitor-2</title><polygon style="fill:#CCCCCC;" points="303.529,502.77 208.452,502.77 216.414,469.61 224.105,437.619 287.889,437.619 295.567,469.61 "/><polygon style="fill:#999999;" points="295.567,469.61 216.414,469.61 224.105,437.619 249.981,405.898 287.889,437.619 "/><path style="fill:#CCCCCC;" d="M509.529,95.827v308.238c0,18.53-15.024,33.554-33.554,33.554H36.018 c-18.53,0-33.554-15.024-33.554-33.554V95.827c0-18.53,15.024-33.554,33.554-33.554h439.956 C494.506,62.273,509.529,77.296,509.529,95.827z"/><path style="fill:#E6E6E6;" d="M509.529,95.827v308.238c0,18.53-15.024,33.554-33.554,33.554H206.422l105.24-375.346h164.313 C494.506,62.273,509.529,77.296,509.529,95.827z"/><rect x="2.47" y="108.303" style="fill:#9BD7F4;" width="507.065" height="283.284"/><polygon style="fill:#C8EDFC;" points="509.529,108.303 509.529,391.588 219.33,391.588 298.754,108.303 "/><rect x="178.472" y="493.542" style="fill:#E6E6E6;" width="155.048" height="18.457"/><rect x="2.47" y="102.766" style="fill:#B3B3B3;" width="507.065" height="11.074"/><rect x="232.44" y="343.195" style="fill:#F94B54;" width="165.457" height="46.142"/><g> <rect x="96.045" style="fill:#F9C573;" width="43.828" height="47.569"/> <rect x="96.045" y="68.979" style="fill:#F9C573;" width="43.828" height="320.358"/> </g><polygon style="fill:#808080;" points="345.817,220.651 286.602,154.444 286.602,51.26 274.298,51.26 274.298,154.499 216.894,220.723 226.191,228.782 280.523,166.103 336.644,228.853 "/><rect x="2.47" y="386.998" style="fill:#B3B3B3;" width="507.065" height="11.074"/><rect x="201.248" y="207.858" style="fill:#F94B54;" width="160.29" height="46.142"/><polygon style="fill:#F9C573;" points="139.867,34.981 96.039,34.981 64.159,34.981 64.159,78.822 96.039,78.822 139.867,78.822 312.327,78.822 312.327,34.981 "/><rect x="96.045" y="78.822" style="fill:#E2AB5A;" width="43.828" height="15.996"/></symbol><symbol id="monitor-1" viewBox="0 0 512 512"><title>monitor-1</title><polygon style="fill:#CCCCCC;" points="303.995,473.732 207.993,473.732 216.031,440.249 223.797,407.946 288.203,407.946 295.956,440.249 "/><polygon style="fill:#999999;" points="295.956,440.249 216.031,440.249 223.797,407.946 249.925,375.918 288.203,407.946 "/><path style="fill:#CCCCCC;" d="M512,62.829v311.238c0,18.711-15.17,33.881-33.881,33.881H33.881C15.17,407.946,0,392.778,0,374.067 V62.829c0-18.711,15.17-33.881,33.881-33.881h444.239C496.83,28.947,512,44.118,512,62.829z"/><path style="fill:#E6E6E6;" d="M512,62.829v311.238c0,18.711-15.17,33.881-33.881,33.881H205.943L312.207,28.948h165.912 C496.83,28.947,512,44.118,512,62.829z"/><rect y="75.427" style="fill:#9BD7F4;" width="512" height="286.042"/><polygon style="fill:#C8EDFC;" points="512,75.427 512,361.469 218.976,361.469 299.174,75.427 "/><rect x="177.715" y="464.415" style="fill:#E6E6E6;" width="156.557" height="18.636"/><g> <rect y="69.836" style="fill:#B3B3B3;" width="512" height="11.182"/> <rect y="356.835" style="fill:#B3B3B3;" width="512" height="11.182"/> </g><polygon style="fill:#F94B54;" points="180.697,180.411 157.837,254.161 137.685,254.161 112.923,205.856 88.162,254.161 68.01,254.161 45.149,180.411 64.668,180.411 79.875,229.487 105.021,180.411 120.825,180.411 145.984,229.487 161.191,180.411 "/><polygon style="fill:#F98791;" points="466.838,180.411 443.978,254.161 423.826,254.161 399.064,205.856 374.303,254.161 354.151,254.161 331.29,180.411 350.809,180.411 366.016,229.487 391.163,180.411 406.966,180.411 432.125,229.487 447.332,180.411 "/><polygon style="fill:#F94B54;" points="323.774,180.411 300.913,254.161 280.761,254.161 260.274,214.18 256,205.856 231.226,254.161 211.074,254.161 188.226,180.411 207.732,180.411 222.939,229.487 248.098,180.411 263.902,180.411 267.679,187.779 289.048,229.487 304.255,180.411 "/><polygon style="fill:#F98791;" points="304.255,180.411 323.774,180.411 300.913,254.161 280.761,254.161 260.274,214.18 267.679,187.779 289.048,229.487 "/></symbol><symbol id="monitor" viewBox="0 0 512 512"><title>monitor</title><polygon style="fill:#CCCCCC;" points="303.995,473.732 207.993,473.732 216.031,440.249 223.797,407.946 288.203,407.946 295.956,440.249 "/><polygon style="fill:#999999;" points="295.956,440.249 216.031,440.249 223.797,407.946 249.925,375.918 288.203,407.946 "/><path style="fill:#CCCCCC;" d="M512,62.829v311.238c0,18.711-15.17,33.881-33.881,33.881H33.881C15.17,407.946,0,392.778,0,374.067 V62.829c0-18.711,15.17-33.881,33.881-33.881h444.239C496.83,28.947,512,44.118,512,62.829z"/><path style="fill:#E6E6E6;" d="M512,62.829v311.238c0,18.711-15.17,33.881-33.881,33.881H205.943L312.207,28.948h165.912 C496.83,28.947,512,44.118,512,62.829z"/><rect y="75.427" style="fill:#9BD7F4;" width="512" height="286.042"/><polygon style="fill:#C8EDFC;" points="512,75.427 512,361.469 218.976,361.469 299.174,75.427 "/><rect x="177.715" y="464.415" style="fill:#E6E6E6;" width="156.557" height="18.636"/><g> <rect y="69.836" style="fill:#B3B3B3;" width="512" height="11.182"/> <rect y="356.835" style="fill:#B3B3B3;" width="512" height="11.182"/> </g><g> <path style="fill:#F94B54;" d="M402.295,229.077v-90.759h-14.027L323.09,226.84v20.873h60.568v41.559h18.636v-41.559h11.629 v-18.636H402.295z M383.658,229.077h-39.074l39.074-53.076V229.077z"/> <path style="fill:#F94B54;" d="M288.266,151.698c-2.584-2.584-5.467-4.845-8.585-6.759c-6.908-4.199-15.021-6.622-23.68-6.622 c-25.184,0-45.671,20.475-45.671,45.659v68.942c0,18.674,11.269,34.763,27.358,41.832c5.603,2.472,11.803,3.839,18.313,3.839 c25.171,0,45.659-20.487,45.659-45.671v-68.942C301.659,171.391,296.54,159.974,288.266,151.698z M283.023,252.919 c0,14.909-12.126,27.035-27.023,27.035c-4.796,0-9.306-1.255-13.207-3.454c-8.25-4.634-13.828-13.468-13.828-23.581v-68.942 c0-14.909,12.126-27.023,27.035-27.023c7.057,0,13.48,2.721,18.301,7.181c5.355,4.92,8.722,11.989,8.722,19.841V252.919 L283.023,252.919z"/> <path style="fill:#F94B54;" d="M174.212,229.077v-90.759h-14.027L95.008,226.84v20.873h60.568v41.559h18.636v-41.559h11.629 v-18.636H174.212z M155.575,229.077h-39.074l39.074-53.076V229.077z"/> </g><g> <path style="fill:#F98791;" d="M301.659,183.977v68.942c0,25.184-20.487,45.671-45.659,45.671c-6.51,0-12.71-1.367-18.313-3.839 l5.106-18.251c3.901,2.199,8.411,3.454,13.207,3.454c14.897,0,27.023-12.126,27.023-27.035v-68.942 c0-7.852-3.367-14.921-8.722-19.841l5.38-19.195c3.118,1.913,6.001,4.175,8.585,6.759 C296.54,159.974,301.659,171.391,301.659,183.977z"/> <path style="fill:#F98791;" d="M402.295,229.077v-90.759h-14.027L323.09,226.84v20.873h60.568v41.559h18.636v-41.559h11.629 v-18.636H402.295z M383.658,229.077h-39.074l39.074-53.076V229.077z"/> </g></symbol><symbol id="computer-2" viewBox="0 0 512 512"><title>computer-2</title><polygon style="fill:#CCCCCC;" points="303.995,473.732 207.993,473.732 216.031,440.249 223.797,407.946 288.203,407.946 295.956,440.249 "/><polygon style="fill:#999999;" points="295.956,440.249 216.031,440.249 223.797,407.946 249.925,375.918 288.203,407.946 "/><path style="fill:#CCCCCC;" d="M512,62.829v311.238c0,18.711-15.17,33.881-33.881,33.881H33.881C15.17,407.946,0,392.778,0,374.067 V62.829c0-18.711,15.17-33.881,33.881-33.881h444.239C496.83,28.947,512,44.118,512,62.829z"/><path style="fill:#E6E6E6;" d="M512,62.829v311.238c0,18.711-15.17,33.881-33.881,33.881H205.943L312.207,28.948h165.912 C496.83,28.947,512,44.118,512,62.829z"/><rect y="75.427" style="fill:#9BD7F4;" width="512" height="286.042"/><polygon style="fill:#C8EDFC;" points="512,75.427 512,361.469 218.976,361.469 299.174,75.427 "/><rect x="177.715" y="464.415" style="fill:#E6E6E6;" width="156.557" height="18.636"/><g> <rect y="69.836" style="fill:#B3B3B3;" width="512" height="11.182"/> <rect y="356.835" style="fill:#B3B3B3;" width="512" height="11.182"/> </g><g> <path style="fill:#F9C573;" d="M281.457,138.604c-1.416-0.199-2.87-0.286-4.336-0.286h-40.689V298.59h18.636v-45.385h22.053 c18.885,0,34.241-15.356,34.241-34.241v-46.404C311.362,155.141,298.304,140.729,281.457,138.604z M292.726,218.964 c0,8.61-6.995,15.605-15.605,15.605h-22.053v-77.614h22.053c8.61,0,15.605,6.995,15.605,15.605V218.964z"/> <path style="fill:#F9C573;" d="M162.906,138.318h-14.462L107.32,298.59h19.233l7.541-29.371h43.162l7.541,29.371h19.233 L162.906,138.318z M138.877,250.583l16.797-65.463l16.797,65.463H138.877z"/> </g><g> <polygon style="fill:#FCD8A9;" points="376.514,156.955 376.514,279.954 401.984,279.954 401.984,298.59 332.409,298.59 332.409,279.954 357.878,279.954 357.878,156.955 332.409,156.955 332.409,138.318 401.984,138.318 401.984,156.955 "/> <path style="fill:#FCD8A9;" d="M311.362,172.559v46.404c0,18.885-15.356,34.241-34.241,34.241h-22.053v45.385h-18.462 l18.462-65.848v1.826h22.053c8.61,0,15.605-6.995,15.605-15.605v-46.404c0-8.61-6.995-15.605-15.605-15.605h-0.808l5.144-18.351 C298.304,140.729,311.362,155.141,311.362,172.559z"/> </g></symbol><symbol id="computer-1" viewBox="0 0 512 512"><title>computer-1</title><polygon style="fill:#CCCCCC;" points="303.995,473.732 207.993,473.732 216.031,440.249 223.797,407.946 288.203,407.946 295.956,440.249 "/><polygon style="fill:#999999;" points="295.956,440.249 216.031,440.249 223.797,407.946 249.925,375.918 288.203,407.946 "/><path style="fill:#CCCCCC;" d="M512,62.829v311.238c0,18.711-15.17,33.881-33.881,33.881H33.881C15.17,407.946,0,392.778,0,374.067 V62.829c0-18.711,15.17-33.881,33.881-33.881h444.239C496.83,28.947,512,44.118,512,62.829z"/><path style="fill:#E6E6E6;" d="M512,62.829v311.238c0,18.711-15.17,33.881-33.881,33.881H205.943L312.207,28.948h165.912 C496.83,28.947,512,44.118,512,62.829z"/><rect y="75.427" style="fill:#9BD7F4;" width="512" height="286.042"/><polygon style="fill:#C8EDFC;" points="512,75.427 512,361.469 218.976,361.469 299.174,75.427 "/><rect x="177.715" y="464.415" style="fill:#E6E6E6;" width="156.557" height="18.636"/><g> <rect y="69.836" style="fill:#B3B3B3;" width="512" height="11.182"/> <rect y="356.835" style="fill:#B3B3B3;" width="512" height="11.182"/> </g><path style="fill:#E6E6E6;" d="M326.52,167.801v51.858h-18.636v-51.858c0-17.754-8.958-33.458-22.6-42.814 c-8.337-5.728-18.425-9.07-29.284-9.07c-28.613,0-51.883,23.27-51.883,51.883v51.858H185.48v-51.858 c0-38.888,31.632-70.52,70.52-70.52c12.524,0,24.302,3.292,34.514,9.045C311.983,118.415,326.52,141.436,326.52,167.801z"/><path style="fill:#FFFFFF;" d="M326.52,167.801v51.858h-18.636v-51.858c0-17.754-8.958-33.458-22.6-42.814l5.231-18.661 C311.983,118.415,326.52,141.436,326.52,167.801z"/><rect x="174.622" y="210.341" style="fill:#F94B54;" width="162.757" height="118.03"/><polygon style="fill:#F98791;" points="337.378,210.34 337.378,328.37 228.257,328.37 261.342,210.34 "/><path style="fill:#333333;" d="M274.524,261.795c0-10.233-8.296-18.528-18.528-18.528c-10.233,0-18.528,8.296-18.528,18.528 c0,7.739,4.747,14.362,11.486,17.134v12.915c0,3.89,3.153,7.043,7.043,7.043s7.043-3.153,7.043-7.043v-12.915 C269.777,276.156,274.524,269.532,274.524,261.795z"/></symbol><symbol id="computer" viewBox="0 0 512 512"><title>computer</title><polygon style="fill:#CCCCCC;" points="303.995,473.732 207.993,473.732 216.031,440.249 223.797,407.946 288.203,407.946 295.956,440.249 "/><polygon style="fill:#999999;" points="295.956,440.249 216.031,440.249 223.797,407.946 249.925,375.918 288.203,407.946 "/><path style="fill:#CCCCCC;" d="M512,62.829v311.238c0,18.711-15.17,33.881-33.881,33.881H33.881C15.17,407.946,0,392.778,0,374.067 V62.829c0-18.711,15.17-33.881,33.881-33.881h444.239C496.83,28.947,512,44.118,512,62.829z"/><path style="fill:#E6E6E6;" d="M512,62.829v311.238c0,18.711-15.17,33.881-33.881,33.881H205.943L312.207,28.948h165.912 C496.83,28.947,512,44.118,512,62.829z"/><rect y="75.427" style="fill:#9BD7F4;" width="512" height="286.042"/><polygon style="fill:#C8EDFC;" points="512,75.427 512,361.469 218.976,361.469 299.174,75.427 "/><rect x="177.715" y="464.415" style="fill:#E6E6E6;" width="156.557" height="18.636"/><g> <rect y="69.836" style="fill:#B3B3B3;" width="512" height="11.182"/> <rect y="356.835" style="fill:#B3B3B3;" width="512" height="11.182"/> </g><g> <rect x="98.213" y="222.07" style="fill:#F94B54;" width="52.803" height="36.726"/> <rect x="98.213" y="289.098" style="fill:#F94B54;" width="52.803" height="36.726"/> <rect x="185.791" y="289.098" style="fill:#F94B54;" width="52.815" height="36.726"/> <rect x="185.791" y="222.07" style="fill:#F94B54;" width="52.815" height="36.726"/> </g><g> <rect x="273.381" y="222.07" style="fill:#F98791;" width="52.815" height="36.726"/> <rect x="273.381" y="289.098" style="fill:#F98791;" width="52.815" height="36.726"/> <rect x="360.972" y="289.098" style="fill:#F98791;" width="52.815" height="36.726"/> <rect x="360.972" y="222.07" style="fill:#F98791;" width="52.815" height="36.726"/> </g><rect x="98.213" y="111.991" style="fill:#F9C573;" width="315.574" height="78.272"/><polygon style="fill:#FCD8A9;" points="413.787,111.991 413.787,190.264 266.983,190.264 288.924,111.991 "/><path style="fill:#F94B54;" d="M98.213,111.991v78.272h315.574v-78.272H98.213z M402.605,179.082h-293.21v-55.909h293.21V179.082z"/><g> <circle style="fill:#4D4D4D;" cx="136.728" cy="151.128" r="9.318"/> <circle style="fill:#4D4D4D;" cx="200.402" cy="151.128" r="9.318"/> <circle style="fill:#4D4D4D;" cx="264.076" cy="151.128" r="9.318"/> <circle style="fill:#4D4D4D;" cx="232.245" cy="151.128" r="9.318"/> <circle style="fill:#4D4D4D;" cx="168.571" cy="151.128" r="9.318"/> </g><polygon style="fill:#F98791;" points="413.787,111.991 413.787,190.264 266.983,190.264 270.114,179.082 402.605,179.082 402.605,123.173 285.793,123.173 288.924,111.991 "/></symbol><symbol id="coding" viewBox="0 0 512 512"><title>coding</title><polygon style="fill:#CCCCCC;" points="303.995,473.732 207.993,473.732 216.031,440.249 223.797,407.946 288.203,407.946 295.956,440.249 "/><polygon style="fill:#999999;" points="295.956,440.249 216.031,440.249 223.797,407.946 249.925,375.918 288.203,407.946 "/><path style="fill:#CCCCCC;" d="M512,62.829v311.238c0,18.711-15.17,33.881-33.881,33.881H33.881C15.17,407.946,0,392.778,0,374.067 V62.829c0-18.711,15.17-33.881,33.881-33.881h444.239C496.83,28.947,512,44.118,512,62.829z"/><path style="fill:#E6E6E6;" d="M512,62.829v311.238c0,18.711-15.17,33.881-33.881,33.881H205.943L312.207,28.948h165.912 C496.83,28.947,512,44.118,512,62.829z"/><rect y="75.427" style="fill:#9BD7F4;" width="512" height="286.042"/><polygon style="fill:#C8EDFC;" points="512,75.427 512,361.469 218.976,361.469 299.174,75.427 "/><rect x="177.715" y="464.415" style="fill:#E6E6E6;" width="156.557" height="18.636"/><g> <rect y="69.836" style="fill:#B3B3B3;" width="512" height="11.182"/> <rect y="356.835" style="fill:#B3B3B3;" width="512" height="11.182"/> </g><g> <polygon style="fill:#4D4D4D;" points="212.758,279.043 120.512,218.448 212.758,157.852 222.99,173.429 154.456,218.448 222.99,263.467 "/> <polygon style="fill:#4D4D4D;" points="396.455,218.454 304.206,279.046 293.968,263.467 362.512,218.454 293.968,173.428 304.206,157.848 "/> <polygon style="fill:#4D4D4D;" points="292.303,130.553 242.632,311.274 233.736,308.828 224.666,306.343 274.326,125.62 284.327,128.367 "/> </g><g> <polygon style="fill:#808080;" points="284.327,128.367 292.303,130.553 242.632,311.274 233.736,308.828 "/> <polygon style="fill:#808080;" points="396.455,218.454 304.206,279.046 293.968,263.467 362.512,218.454 293.968,173.428 304.206,157.848 "/> </g></symbol></svg>